<?xml version="1.0" encoding="UTF-8"?>
<svg width="9px" height="14px" viewBox="0 0 9 14" version="1.1" xmlns="http://www.w3.org/2000/svg" xmlns:xlink="http://www.w3.org/1999/xlink">
    <!-- Generator: Sketch 46.2 (44496) - http://www.bohemiancoding.com/sketch -->
    <title>caret</title>
    <desc>Created with Sketch.</desc>
    <defs></defs>
    <g id="Page-1" stroke="none" stroke-width="1" fill="none" fill-rule="evenodd">
        <g id="Transaction" transform="translate(-126.000000, -189.000000)" fill="#B0B4A9">
            <path d="M137.708726,191.43341 C137.484852,191.209536 137.175574,191.071068 136.833954,191.071068 L136.833954,191.071068 L129.308181,191.071068 L129.308181,191.071068 C128.624942,191.071068 128.071068,191.624942 128.071068,192.308181 L128.071068,192.308181 L128.071068,192.308181 C128.071068,192.99142 128.624942,193.545295 129.308181,193.545295 L135.596841,193.545295 L135.596841,199.833954 C135.596841,200.517193 136.150716,201.071068 136.833954,201.071068 C137.517193,201.071068 138.071068,200.517193 138.071068,199.833954 L138.071068,192.308181 L138.071068,192.308181 C138.071068,191.966562 137.932599,191.657283 137.708726,191.43341 Z" id="caret" transform="translate(133.071068, 196.071068) rotate(225.000000) translate(-133.071068, -196.071068) "></path>
        </g>
    </g>
</svg>