<?xml version="1.0" encoding="UTF-8"?>
<svg width="22px" height="22px" viewBox="0 0 22 22" version="1.1" xmlns="http://www.w3.org/2000/svg" xmlns:xlink="http://www.w3.org/1999/xlink">
    <!-- Generator: Sketch 46.2 (44496) - http://www.bohemiancoding.com/sketch -->
    <title>confirmation</title>
    <desc>Created with Sketch.</desc>
    <defs></defs>
    <g id="Page-1" stroke="none" stroke-width="1" fill="none" fill-rule="evenodd">
        <g id="Transaction" transform="translate(-353.000000, -912.000000)" fill-rule="nonzero" fill="#79D000">
            <path d="M364,912.8 C358.4,912.8 353.8,917.4 353.8,923 C353.8,928.6 358.4,933.2 364,933.2 C369.6,933.2 374.2,928.6 374.2,923 C374.2,917.4 369.6,912.8 364,912.8 Z M369.2,920.3 L362.6,926.9 C362.4,927 362.2,927 362,927 C361.8,927 361.6,926.9 361.5,926.8 L358.8,924.1 C358.5,923.8 358.5,923.3 358.8,923 C359.1,922.7 359.6,922.7 359.9,923 L362,925.1 L368,919.1 C368.3,918.8 368.8,918.8 369.1,919.1 C369.5,919.5 369.5,920 369.2,920.3 Z" id="confirmation"></path>
        </g>
    </g>
</svg>