<?xml version="1.0" encoding="UTF-8"?>
<svg width="24px" height="24px" viewBox="0 0 24 24" version="1.1" xmlns="http://www.w3.org/2000/svg" xmlns:xlink="http://www.w3.org/1999/xlink">
    <!-- Generator: Sketch 46.2 (44496) - http://www.bohemiancoding.com/sketch -->
    <title>close</title>
    <desc>Created with Sketch.</desc>
    <defs></defs>
    <g id="Page-1" stroke="none" stroke-width="1" fill="none" fill-rule="evenodd">
        <g id="Transaction" transform="translate(-291.000000, -102.000000)" fill-rule="nonzero" fill="#7B856F">
            <g id="mobile" transform="translate(249.000000, 98.000000)">
                <path d="M42.7363636,27.2636364 C43.0664336,27.5937063 43.479021,27.7587413 43.8916084,27.7587413 C44.3041958,27.7587413 44.7167832,27.5937063 45.0468531,27.2636364 L54,18.3517483 L62.9531469,27.3048951 C63.2832168,27.634965 63.6958042,27.8 64.1083916,27.8 C64.520979,27.8 64.9335664,27.634965 65.2636364,27.3048951 C65.9237762,26.6447552 65.9237762,25.6132867 65.2636364,24.9531469 L56.3517483,16 L65.3048951,7.04685315 C65.965035,6.38671329 65.965035,5.35524476 65.3048951,4.6951049 C64.6447552,4.03496503 63.6132867,4.03496503 62.9531469,4.6951049 L54,13.6482517 L45.0468531,4.73636364 C44.3867133,4.07622378 43.3552448,4.07622378 42.6951049,4.73636364 C42.034965,5.3965035 42.034965,6.42797203 42.6951049,7.08811189 L51.6482517,16 L42.7363636,24.9531469 C42.0762238,25.572028 42.0762238,26.6447552 42.7363636,27.2636364 Z" id="close"></path>
            </g>
        </g>
    </g>
</svg>