<svg width="21" height="22" viewBox="0 0 21 21" xmlns="http://www.w3.org/2000/svg"><path d="M20.66 19.065l-3.847-3.84A9.342 9.342 0 0 0 18.85 9.42C18.85 4.226 14.614 0 9.409 0 4.203 0 0 4.258 0 9.452c0 5.193 4.236 9.419 9.441 9.419 2.102 0 4.171-.71 5.82-2.032l3.848 3.838c.226.226.485.323.776.323.29 0 .55-.097.776-.323.452-.483.452-1.16 0-1.612zM17 9.5c0 4.122-3.352 7.5-7.483 7.5S2 13.622 2 9.5 5.352 2 9.517 2A7.463 7.463 0 0 1 17 9.5z" fill-rule="nonzero" fill="#000" fill-opacity=".251"/></svg>