<?xml version="1.0" encoding="UTF-8"?>
<svg width="21px" height="22px" viewBox="0 0 21 21" version="1.1" xmlns="http://www.w3.org/2000/svg" xmlns:xlink="http://www.w3.org/1999/xlink">
    <!-- Generator: Sketch 46.2 (44496) - http://www.bohemiancoding.com/sketch -->
    <title>search</title>
    <desc>Created with Sketch.</desc>
    <defs></defs>
    <g id="Page-1" stroke="none" stroke-width="1" fill="none" fill-rule="evenodd" fill-opacity="0.25073596">
        <g id="Landing" transform="translate(-336.000000, -379.000000)" fill-rule="nonzero" fill="#000000">
            <g id="logo-+-search" transform="translate(321.000000, 204.000000)">
                <g id="input-container" transform="translate(0.000000, 130.000000)">
                    <g id="input" transform="translate(0.000000, 30.000000)">
                        <path d="M35.6605081,34.0645161 L31.812933,30.2258065 C33.1385681,28.5483871 33.8498845,26.516129 33.8498845,24.4193548 C33.8498845,19.2258065 29.6143187,15 24.408776,15 C19.2032333,15 15,19.2580645 15,24.4516129 C15,29.6451613 19.2355658,33.8709677 24.4411085,33.8709677 C26.5427252,33.8709677 28.6120092,33.1612903 30.26097,31.8387097 L34.108545,35.6774194 C34.334873,35.9032258 34.5935335,36 34.8845266,36 C35.1755196,36 35.4341801,35.9032258 35.6605081,35.6774194 C36.113164,35.1935484 36.113164,34.516129 35.6605081,34.0645161 Z M32,24.5 C32,28.6216216 28.6478555,32 24.51693,32 C20.3860045,32 17,28.6216216 17,24.5 C17,20.3783784 20.3521445,17 24.51693,17 C28.6817156,17 32,20.3445946 32,24.5 Z" id="search"></path>
                    </g>
                </g>
            </g>
        </g>
    </g>
</svg>
