<?xml version="1.0" encoding="UTF-8"?>
<svg width="34px" height="33px" viewBox="0 0 34 33" version="1.1" xmlns="http://www.w3.org/2000/svg" xmlns:xlink="http://www.w3.org/1999/xlink">
    <!-- Generator: Sketch 46.2 (44496) - http://www.bohemiancoding.com/sketch -->
    <title>settings</title>
    <desc>Created with Sketch.</desc>
    <defs></defs>
    <g id="Page-1" stroke="none" stroke-width="1" fill="none" fill-rule="evenodd">
        <g id="Transaction" transform="translate(-249.000000, -96.000000)" fill-rule="nonzero" fill="#7B856F">
            <path d="M263.78832,127.054853 C263.457607,128.019172 262.396563,128.543453 261.436552,128.231757 L260.507142,127.929997 C259.539009,127.615664 258.996262,126.572516 259.296037,125.596301 L259.315426,125.53316 C259.614684,124.558628 259.188981,123.28235 258.362949,122.681318 L258.675874,122.909007 C257.850577,122.30851 256.499222,122.300731 255.671338,122.881944 L255.617298,122.919882 C254.783235,123.505432 253.616572,123.305983 253.022703,122.489822 L252.447765,121.699676 C251.848872,120.87661 252.029846,119.708447 252.838501,119.100643 L252.891287,119.060968 C253.705977,118.448628 254.111105,117.165914 253.795537,116.194014 L253.915083,116.562199 C253.599797,115.591164 252.510693,114.790464 251.499359,114.774058 L251.433344,114.772987 C250.414463,114.756458 249.588497,113.909356 249.588497,112.900003 L249.588497,111.922825 C249.588497,110.904933 250.422011,110.066247 251.433344,110.049841 L251.499359,110.04877 C252.51824,110.032242 253.599516,109.232529 253.915083,108.260629 L253.795537,108.628813 C254.110824,107.657779 253.699942,106.369664 252.891287,105.76186 L252.838501,105.722185 C252.023811,105.109845 251.853896,103.939313 252.447765,103.123152 L253.022703,102.333006 C253.621596,101.50994 254.789414,101.321733 255.617298,101.902945 L255.671338,101.940884 C256.505401,102.526434 257.849841,102.514853 258.675874,101.913821 L258.362949,102.141509 C259.188245,101.541013 259.615201,100.265883 259.315426,99.2896684 L259.296037,99.2265265 C258.996779,98.251995 259.54713,97.2045271 260.507142,96.8928311 L261.436552,96.5910707 C262.404684,96.2767378 263.457036,96.80199 263.78832,97.7679744 L263.809747,97.8304546 C264.14046,98.7947735 265.23507,99.5765084 266.256659,99.5765084 L265.869651,99.5765084 C266.890331,99.5765084 267.985279,98.796439 268.316563,97.8304546 L268.337991,97.7679744 C268.668703,96.8036556 269.729747,96.2793746 270.689759,96.5910707 L271.619169,96.8928311 C272.587301,97.207164 273.130048,98.2503118 272.830274,99.2265265 L272.810884,99.2896684 C272.511626,100.2642 272.937329,101.540477 273.763362,102.141509 L273.450436,101.913821 C274.275733,102.514318 275.627088,102.522097 276.454972,101.940884 L276.509013,101.902945 C277.343075,101.317395 278.509738,101.516844 279.103607,102.333006 L279.678546,103.123152 C280.277438,103.946218 280.096465,105.114381 279.287809,105.722185 L279.235024,105.76186 C278.420333,106.3742 278.015206,107.656914 278.330773,108.628813 L278.211227,108.260629 C278.526514,109.231664 279.615617,110.032364 280.626951,110.04877 L280.692966,110.049841 C281.711847,110.06637 282.537813,110.913472 282.537813,111.922825 L282.537813,112.900003 C282.537813,113.917895 281.7043,114.756581 280.692966,114.772987 L280.626951,114.774058 C279.60807,114.790586 278.526795,115.590299 278.211227,116.562199 L278.330773,116.194014 C278.015487,117.165049 278.426368,118.453164 279.235024,119.060968 L279.287809,119.100643 C280.102499,119.712983 280.272414,120.883515 279.678546,121.699676 L279.103607,122.489822 C278.504715,123.312888 277.336897,123.501095 276.509013,122.919882 L276.454972,122.881944 C275.62091,122.296393 274.276469,122.307975 273.450436,122.909007 L273.763362,122.681318 C272.938065,123.281815 272.511109,124.556945 272.810884,125.53316 L272.830274,125.596301 C273.129532,126.570833 272.57918,127.618301 271.619169,127.929997 L270.689759,128.231757 C269.721626,128.54609 268.669275,128.020838 268.337991,127.054853 L268.316563,126.992373 C267.98585,126.028054 266.89124,125.24632 265.869651,125.24632 L266.256659,125.24632 C265.23598,125.24632 264.141031,126.026389 263.809747,126.992373 L263.78832,127.054853 Z M266.063155,120.421706 C270.487117,120.421706 274.073447,116.835376 274.073447,112.411414 C274.073447,107.987452 270.487117,104.401122 266.063155,104.401122 C261.639193,104.401122 258.052864,107.987452 258.052864,112.411414 C258.052864,116.835376 261.639193,120.421706 266.063155,120.421706 Z" id="settings"></path>
        </g>
    </g>
</svg>