<svg width="34" height="33" xmlns="http://www.w3.org/2000/svg"><path d="M14.788 31.055a1.887 1.887 0 0 1-2.351 1.177l-.93-.302a1.88 1.88 0 0 1-1.211-2.334l.02-.063c.299-.974-.127-2.25-.953-2.852l.313.228c-.825-.6-2.177-.608-3.005-.027l-.054.038c-.834.585-2 .386-2.594-.43l-.575-.79a1.884 1.884 0 0 1 .39-2.6l.053-.039c.815-.612 1.22-1.895.905-2.867l.12.368c-.316-.97-1.405-1.772-2.417-1.788l-.066-.001A1.886 1.886 0 0 1 .588 16.9v-.977c0-1.018.834-1.857 1.845-1.873l.066-.001c1.02-.017 2.1-.816 2.416-1.788l-.12.368c.316-.971-.095-2.26-.904-2.867l-.052-.04a1.885 1.885 0 0 1-.391-2.599l.575-.79a1.887 1.887 0 0 1 2.594-.43l.054.038c.834.585 2.179.574 3.005-.027l-.313.228c.825-.601 1.252-1.876.952-2.852l-.019-.063A1.886 1.886 0 0 1 11.507.893l.93-.302a1.88 1.88 0 0 1 2.351 1.177l.022.062c.33.965 1.425 1.747 2.447 1.747h-.387c1.02 0 2.115-.78 2.447-1.747l.021-.062A1.887 1.887 0 0 1 21.69.591l.93.302a1.88 1.88 0 0 1 1.21 2.334l-.02.063c-.298.974.127 2.25.953 2.852l-.313-.228c.826.6 2.177.608 3.005.027l.054-.038c.834-.586 2-.386 2.595.43l.575.79a1.884 1.884 0 0 1-.391 2.6l-.053.039c-.815.612-1.22 1.895-.904 2.867l-.12-.368c.316.97 1.405 1.771 2.416 1.788h.066a1.886 1.886 0 0 1 1.845 1.874v.977a1.886 1.886 0 0 1-1.845 1.873l-.066.001c-1.019.017-2.1.816-2.416 1.788l.12-.368c-.316.971.095 2.26.904 2.867l.053.04c.814.612.984 1.783.39 2.599l-.574.79a1.887 1.887 0 0 1-2.595.43l-.054-.038c-.834-.586-2.179-.574-3.005.027l.313-.228c-.825.6-1.252 1.876-.952 2.852l.02.063c.299.975-.252 2.022-1.212 2.334l-.93.302a1.88 1.88 0 0 1-2.351-1.177l-.021-.063c-.331-.964-1.426-1.746-2.447-1.746h.387c-1.021 0-2.116.78-2.447 1.746l-.022.063zm2.275-6.633a8.01 8.01 0 1 0 0-16.02 8.01 8.01 0 0 0 0 16.02z" fill-rule="nonzero" fill="#7B856F"/></svg>