<?xml version="1.0" encoding="UTF-8"?>
<svg width="703px" height="180px" viewBox="0 0 703 180" version="1.1" xmlns="http://www.w3.org/2000/svg" xmlns:xlink="http://www.w3.org/1999/xlink">
    <!-- Generator: Sketch 46.2 (44496) - http://www.bohemiancoding.com/sketch -->
    <title>logotype</title>
    <desc>Created with Sketch.</desc>
    <defs></defs>
    <g id="Page-1" stroke="none" stroke-width="1" fill="none" fill-rule="evenodd">
        <g id="Logotype" transform="translate(-95.000000, -50.000000)" fill="#629D1F">
            <g id="logotype" transform="translate(95.000000, 50.000000)">
                <path d="M179.734,38.4607863 C179.602,37.9667891 179.422,37.4927917 179.19,37.0387942 C179.148,36.9627947 179.102,36.8887951 179.06,36.8107955 C178.816,36.3767979 178.534,35.9668002 178.206,35.5908023 C178.18,35.5608024 178.162,35.5268026 178.134,35.4968028 C177.782,35.108805 177.38,34.7688068 176.948,34.4608086 C176.902,34.4268087 176.868,34.380809 176.82,34.3468092 C176.778,34.3208093 176.732,34.3088094 176.694,34.2828095 C176.304,34.028811 175.896,33.7988122 175.45,33.6208132 L92.69,0.518997117 C90.964,-0.172999039 89.038,-0.172999039 87.312,0.518997117 L4.552,33.6228132 C4.106,33.8008122 3.698,34.0308109 3.308,34.2848095 C3.268,34.3128094 3.222,34.3248093 3.182,34.3488092 C3.134,34.382809 3.1,34.4288087 3.054,34.4628085 C2.622,34.7688068 2.22,35.108805 1.868,35.4988028 C1.84,35.5268026 1.82,35.5608024 1.794,35.5908023 C1.466,35.9668002 1.184,36.3787979 0.94,36.8107955 C0.898,36.8887951 0.85,36.9627947 0.81,37.0387942 C0.578,37.4927917 0.398,37.9667891 0.266,38.4607863 C0.238,38.5607858 0.22,38.6607852 0.196,38.7607847 C0.078,39.2767818 0,39.8007789 0,40.3467759 L0,139.654224 C0,142.616208 1.802,145.278193 4.552,146.378187 L87.31,179.482003 C87.384,179.514003 87.462,179.522003 87.536,179.548003 C87.82,179.650002 88.104,179.732001 88.396,179.800001 C88.52,179.828001 88.64,179.860001 88.764,179.882001 C89.174,179.954 89.586,180 90,180 C90.414,180 90.826,179.954 91.236,179.882001 C91.36,179.860001 91.48,179.828001 91.604,179.800001 C91.896,179.732001 92.18,179.650002 92.464,179.548003 C92.538,179.520003 92.616,179.512003 92.69,179.482003 L175.448,146.378187 C178.198,145.278193 180,142.618208 180,139.654224 L180,40.3467759 C180,39.8027789 179.922,39.2767818 179.804,38.7627847 C179.782,38.6607852 179.762,38.5607858 179.734,38.4607863 Z M90.5,66 L27,40.5010078 L90.5,15 L154,40.5010078 L90.5,66 Z M165,134.696919 L97,162 L97,78.3050802 L165,51 L165,134.696919 Z" id="model" fill-rule="nonzero"></path>
                <g id="type-(outlines)" transform="translate(253.000000, 5.000000)">
                    <path d="M10.08,149 L10.08,65.84 L47.4,65.84 L47.4,75.08 L20.88,75.08 L20.88,100.88 L44.88,100.88 L44.88,109.88 L20.88,109.88 L20.88,139.76 L49.32,139.76 L49.32,149 L10.08,149 Z M81,96.32 L95.28,65.84 L106.08,65.84 L87.12,104.48 C88.8000084,108.080018 90.5799906,111.819981 92.46,115.7 C94.3400094,119.580019 96.179991,123.459981 97.98,127.34 C99.780009,131.220019 101.479992,134.999982 103.08,138.68 C104.680008,142.360018 106.079994,145.799984 107.28,149 L96.6,149 C95.7199956,146.599988 94.7000058,143.980014 93.54,141.14 C92.3799942,138.299986 91.100007,135.400015 89.7,132.44 C88.299993,129.479985 86.8600074,126.460015 85.38,123.38 C83.8999926,120.299985 82.4400072,117.320014 81,114.44 C79.5599928,117.320014 78.0800076,120.299985 76.56,123.38 C75.0399924,126.460015 73.6000068,129.479985 72.24,132.44 C70.8799932,135.400015 69.6200058,138.299986 68.46,141.14 C67.2999942,143.980014 66.320004,146.599988 65.52,149 L55.08,149 C56.2000056,145.879984 57.559992,142.520018 59.16,138.92 C60.760008,135.319982 62.4399912,131.620019 64.2,127.82 C65.9600088,124.019981 67.739991,120.200019 69.54,116.36 C71.340009,112.519981 73.0799916,108.840018 74.76,105.32 L55.56,65.84 L66.6,65.84 L81,96.32 Z M117.72,67.04 C123.320028,65.6799932 128.799973,65 134.16,65 C138.320021,65 142.099983,65.499995 145.5,66.5 C148.900017,67.500005 151.819988,69.0599894 154.26,71.18 C156.700012,73.3000106 158.579993,76.0399832 159.9,79.4 C161.220007,82.7600168 161.88,86.7999764 161.88,91.52 C161.88,96.320024 161.200007,100.419983 159.84,103.82 C158.479993,107.220017 156.560012,109.979989 154.08,112.1 C151.599988,114.220011 148.620017,115.759995 145.14,116.72 C141.659983,117.680005 137.800021,118.16 133.56,118.16 L128.52,118.16 L128.52,149 L117.72,149 L117.72,67.04 Z M128.52,108.68 L132.84,108.68 C135.560014,108.68 138.019989,108.380003 140.22,107.78 C142.420011,107.179997 144.279992,106.200007 145.8,104.84 C147.320008,103.479993 148.479996,101.720011 149.28,99.56 C150.080004,97.3999892 150.48,94.720016 150.48,91.52 C150.48,88.319984 150.080004,85.620011 149.28,83.42 C148.479996,81.219989 147.380007,79.4600066 145.98,78.14 C144.579993,76.8199934 142.88001,75.8800028 140.88,75.32 C138.87999,74.7599972 136.680012,74.48 134.28,74.48 C132.19999,74.48 130.280009,74.5999988 128.52,74.84 L128.52,108.68 Z M211.2,139.76 L211.2,149 L174.12,149 L174.12,65.84 L184.92,65.84 L184.92,139.76 L211.2,139.76 Z M273.96,107.48 C273.96,113.960032 273.380006,119.859973 272.22,125.18 C271.059994,130.500027 269.260012,135.059981 266.82,138.86 C264.379988,142.660019 261.300019,145.59999 257.58,147.68 C253.859982,149.76001 249.480025,150.8 244.44,150.8 C239.399975,150.8 235.020019,149.76001 231.3,147.68 C227.579982,145.59999 224.500012,142.660019 222.06,138.86 C219.619988,135.059981 217.800006,130.500027 216.6,125.18 C215.399994,119.859973 214.8,113.960032 214.8,107.48 C214.8,100.999968 215.399994,95.0800268 216.6,89.72 C217.800006,84.3599732 219.619988,79.780019 222.06,75.98 C224.500012,72.179981 227.579982,69.2200106 231.3,67.1 C235.020019,64.9799894 239.399975,63.92 244.44,63.92 C249.480025,63.92 253.859982,64.9799894 257.58,67.1 C261.300019,69.2200106 264.379988,72.179981 266.82,75.98 C269.260012,79.780019 271.059994,84.3599732 272.22,89.72 C273.380006,95.0800268 273.96,100.999968 273.96,107.48 Z M262.44,107.48 C262.44,102.439975 262.120003,97.8400208 261.48,93.68 C260.839997,89.5199792 259.800007,85.940015 258.36,82.94 C256.919993,79.939985 255.060012,77.6000084 252.78,75.92 C250.499989,74.2399916 247.720017,73.4 244.44,73.4 C241.159984,73.4 238.380012,74.2399916 236.1,75.92 C233.819989,77.6000084 231.960007,79.939985 230.52,82.94 C229.079993,85.940015 228.020004,89.5199792 227.34,93.68 C226.659997,97.8400208 226.32,102.439975 226.32,107.48 C226.32,112.520025 226.659997,117.119979 227.34,121.28 C228.020004,125.440021 229.079993,128.999985 230.52,131.96 C231.960007,134.920015 233.819989,137.219992 236.1,138.86 C238.380012,140.500008 241.159984,141.32 244.44,141.32 C247.720017,141.32 250.499989,140.500008 252.78,138.86 C255.060012,137.219992 256.919993,134.920015 258.36,131.96 C259.800007,128.999985 260.839997,125.440021 261.48,121.28 C262.120003,117.119979 262.44,112.520025 262.44,107.48 Z M288.96,67.04 C294.560028,65.6799932 299.959974,65 305.16,65 C309.320021,65 313.079983,65.4799952 316.44,66.44 C319.800017,67.4000048 322.679988,68.9199896 325.08,71 C327.480012,73.0800104 329.339994,75.7599836 330.66,79.04 C331.980007,82.3200164 332.64,86.2799768 332.64,90.92 C332.64,96.6800288 331.540011,101.339982 329.34,104.9 C327.139989,108.460018 324.160019,111.159991 320.4,113 C321.360005,114.600008 322.579993,116.779986 324.06,119.54 C325.540008,122.300014 327.059992,125.339983 328.62,128.66 C330.180008,131.980017 331.699993,135.399982 333.18,138.92 C334.660008,142.440018 335.919995,145.799984 336.96,149 L326.16,149 C325.279996,146.599988 324.180007,143.880015 322.86,140.84 C321.539994,137.799985 320.160007,134.780015 318.72,131.78 C317.279993,128.779985 315.840007,125.900014 314.4,123.14 C312.959993,120.379986 311.680006,118.04001 310.56,116.12 C309.279994,116.280001 307.960007,116.4 306.6,116.48 C305.239993,116.56 303.880007,116.6 302.52,116.6 L299.52,116.6 L299.52,149 L288.96,149 L288.96,67.04 Z M299.52,107.72 L304.08,107.72 C309.600028,107.72 313.839985,106.460013 316.8,103.94 C319.760015,101.419987 321.24,97.0800308 321.24,90.92 C321.24,87.7999844 320.860004,85.1800106 320.1,83.06 C319.339996,80.9399894 318.260007,79.2600062 316.86,78.02 C315.459993,76.7799938 313.78001,75.8800028 311.82,75.32 C309.85999,74.7599972 307.680012,74.48 305.28,74.48 C303.19999,74.48 301.280009,74.5999988 299.52,74.84 L299.52,107.72 Z M348.84,149 L348.84,65.84 L386.16,65.84 L386.16,75.08 L359.64,75.08 L359.64,100.88 L383.64,100.88 L383.64,109.88 L359.64,109.88 L359.64,139.76 L388.08,139.76 L388.08,149 L348.84,149 Z M401.76,67.04 C407.360028,65.6799932 412.759974,65 417.96,65 C422.120021,65 425.879984,65.4799952 429.24,66.44 C432.600017,67.4000048 435.479988,68.9199896 437.88,71 C440.280012,73.0800104 442.139994,75.7599836 443.46,79.04 C444.780007,82.3200164 445.44,86.2799768 445.44,90.92 C445.44,96.6800288 444.340011,101.339982 442.14,104.9 C439.939989,108.460018 436.960019,111.159991 433.2,113 C434.160005,114.600008 435.379993,116.779986 436.86,119.54 C438.340008,122.300014 439.859993,125.339983 441.42,128.66 C442.980008,131.980017 444.499993,135.399982 445.98,138.92 C447.460008,142.440018 448.719995,145.799984 449.76,149 L438.96,149 C438.079996,146.599988 436.980007,143.880015 435.66,140.84 C434.339994,137.799985 432.960008,134.780015 431.52,131.78 C430.079993,128.779985 428.640008,125.900014 427.2,123.14 C425.759993,120.379986 424.480006,118.04001 423.36,116.12 C422.079994,116.280001 420.760007,116.4 419.4,116.48 C418.039994,116.56 416.680007,116.6 415.32,116.6 L412.32,116.6 L412.32,149 L401.76,149 L401.76,67.04 Z M412.32,107.72 L416.88,107.72 C422.400028,107.72 426.639986,106.460013 429.6,103.94 C432.560015,101.419987 434.04,97.0800308 434.04,90.92 C434.04,87.7999844 433.660004,85.1800106 432.9,83.06 C432.139997,80.9399894 431.060007,79.2600062 429.66,78.02 C428.259993,76.7799938 426.58001,75.8800028 424.62,75.32 C422.659991,74.7599972 420.480012,74.48 418.08,74.48 C415.99999,74.48 414.080009,74.5999988 412.32,74.84 L412.32,107.72 Z" id="EXPLORER"></path>
                    <path d="M12.4,39 L15.96,10.08 L25.24,10.08 C26.840008,10.08 28.2099943,10.2366651 29.35,10.55 C30.4900057,10.8633349 31.4233297,11.3066638 32.15,11.88 C32.8766703,12.4533362 33.4133316,13.1466626 33.76,13.96 C34.1066684,14.7733374 34.28,15.679995 34.28,16.68 C34.28,17.5066708 34.1700011,18.2966629 33.95,19.05 C33.7299989,19.8033371 33.386669,20.4999968 32.92,21.14 C32.453331,21.7800032 31.8600036,22.3533308 31.14,22.86 C30.4199964,23.3666692 29.560005,23.786665 28.56,24.12 C30.2000082,24.5333354 31.419996,25.2033287 32.22,26.13 C33.020004,27.0566713 33.42,28.2333262 33.42,29.66 C33.42,30.99334 33.1733358,32.2299943 32.68,33.37 C32.1866642,34.5100057 31.473338,35.4966625 30.54,36.33 C29.606662,37.1633375 28.4700067,37.8166643 27.13,38.29 C25.7899933,38.7633357 24.2733418,39 22.58,39 L12.4,39 Z M19.14,26.26 L18.08,34.96 L22.98,34.96 C23.913338,34.96 24.71333,34.8333346 25.38,34.58 C26.04667,34.3266654 26.5966645,33.9700023 27.03,33.51 C27.4633355,33.0499977 27.7833323,32.4966699 27.99,31.85 C28.1966677,31.2033301 28.3,30.4933372 28.3,29.72 C28.3,28.6666614 27.96667,27.8266698 27.3,27.2 C26.63333,26.5733302 25.5400076,26.26 24.02,26.26 L19.14,26.26 Z M19.58,22.68 L23.42,22.68 C25.2066756,22.68 26.5833285,22.2600042 27.55,21.42 C28.5166715,20.5799958 29,19.293342 29,17.56 C29,16.3466606 28.6566701,15.4633361 27.97,14.91 C27.2833299,14.3566639 26.2133406,14.08 24.76,14.08 L20.64,14.08 L19.58,22.68 Z M45.2,39 L39.98,39 L43.52,10.08 L48.74,10.08 L45.2,39 Z M76.44,10.08 L75.9,14.34 L67.98,14.34 L64.94,39 L59.78,39 L62.8,14.34 L54.86,14.34 L55.38,10.08 L76.44,10.08 Z M89.52,34.92 C90.3333374,34.92 91.0433303,34.8566673 91.65,34.73 C92.2566697,34.6033327 92.7833311,34.440001 93.23,34.24 C93.6766689,34.039999 94.0599984,33.8300011 94.38,33.61 C94.7000016,33.3899989 94.9799988,33.180001 95.22,32.98 C95.4600012,32.779999 95.6733324,32.6166673 95.86,32.49 C96.0466676,32.3633327 96.2333324,32.3 96.42,32.3 C96.5800008,32.3 96.7133328,32.333333 96.82,32.4 C96.9266672,32.466667 97.013333,32.533333 97.08,32.6 L98.9,34.86 C97.6466604,36.3000072 96.1733418,37.4033295 94.48,38.17 C92.7866582,38.9366705 90.840011,39.32 88.64,39.32 C86.8666578,39.32 85.2866736,39.0033365 83.9,38.37 C82.5133264,37.7366635 81.3400048,36.8600056 80.38,35.74 C79.4199952,34.6199944 78.6900025,33.293341 78.19,31.76 C77.6899975,30.226659 77.44,28.5533424 77.44,26.74 C77.44,25.073325 77.6199982,23.4966741 77.98,22.01 C78.3400018,20.5233259 78.85333,19.1500063 79.52,17.89 C80.18667,16.6299937 80.986662,15.500005 81.92,14.5 C82.853338,13.499995 83.886661,12.6466702 85.02,11.94 C86.153339,11.2333298 87.3766601,10.6933352 88.69,10.32 C90.0033399,9.9466648 91.3733262,9.76 92.8,9.76 C93.8533386,9.76 94.813329,9.8566657 95.68,10.05 C96.546671,10.2433343 97.3333298,10.5133316 98.04,10.86 C98.7466702,11.2066684 99.3799972,11.6233309 99.94,12.11 C100.500003,12.5966691 101.006664,13.139997 101.46,13.74 L99.66,15.9 C99.526666,16.0600008 99.3700009,16.1999994 99.19,16.32 C99.0099991,16.4400006 98.786668,16.5 98.52,16.5 C98.2266652,16.5 97.946668,16.3800012 97.68,16.14 C97.413332,15.8999988 97.0766687,15.6366681 96.67,15.35 C96.2633313,15.0633319 95.7366699,14.8000012 95.09,14.56 C94.4433301,14.3199988 93.5933386,14.2 92.54,14.2 C91.1533264,14.2 89.8666726,14.4833305 88.68,15.05 C87.4933274,15.6166695 86.4600044,16.4266614 85.58,17.48 C84.6999956,18.5333386 84.0100025,19.8033259 83.51,21.29 C83.0099975,22.7766741 82.76,24.4466574 82.76,26.3 C82.76,27.6466734 82.9299983,28.853328 83.27,29.92 C83.6100017,30.986672 84.079997,31.8899963 84.68,32.63 C85.280003,33.3700037 85.9933292,33.9366647 86.82,34.33 C87.6466708,34.7233353 88.5466618,34.92 89.52,34.92 Z M132.02,22.6 C132.02,24.200008 131.843335,25.7233261 131.49,27.17 C131.136665,28.6166739 130.630003,29.9599938 129.97,31.2 C129.309997,32.4400062 128.516671,33.559995 127.59,34.56 C126.663329,35.560005 125.623339,36.4133298 124.47,37.12 C123.316661,37.8266702 122.066673,38.3699981 120.72,38.75 C119.373327,39.1300019 117.960007,39.32 116.48,39.32 C114.639991,39.32 112.986674,38.9933366 111.52,38.34 C110.053326,37.6866634 108.803339,36.7866724 107.77,35.64 C106.736662,34.4933276 105.946669,33.1400078 105.4,31.58 C104.853331,30.0199922 104.58,28.3266758 104.58,26.5 C104.58,24.899992 104.756665,23.3766739 105.11,21.93 C105.463335,20.4833261 105.969997,19.1400062 106.63,17.9 C107.290003,16.6599938 108.083329,15.540005 109.01,14.54 C109.936671,13.539995 110.976661,12.6833369 112.13,11.97 C113.283339,11.2566631 114.533327,10.7100019 115.88,10.33 C117.226673,9.9499981 118.646659,9.76 120.14,9.76 C121.980009,9.76 123.633326,10.0866634 125.1,10.74 C126.566674,11.3933366 127.813328,12.2933276 128.84,13.44 C129.866672,14.5866724 130.653331,15.9433255 131.2,17.51 C131.746669,19.0766745 132.02,20.7733242 132.02,22.6 Z M126.7,22.72 C126.7,21.4133268 126.536668,20.226672 126.21,19.16 C125.883332,18.093328 125.410003,17.1800038 124.79,16.42 C124.169997,15.6599962 123.413338,15.0733354 122.52,14.66 C121.626662,14.2466646 120.620006,14.04 119.5,14.04 C118.059993,14.04 116.750006,14.3333304 115.57,14.92 C114.389994,15.5066696 113.380004,16.3399946 112.54,17.42 C111.699996,18.5000054 111.050002,19.7999924 110.59,21.32 C110.129998,22.8400076 109.9,24.5266574 109.9,26.38 C109.9,27.6866732 110.059998,28.873328 110.38,29.94 C110.700002,31.006672 111.166664,31.9166629 111.78,32.67 C112.393336,33.4233371 113.143329,34.0033313 114.03,34.41 C114.916671,34.8166687 115.926661,35.02 117.06,35.02 C118.513341,35.02 119.833327,34.7266696 121.02,34.14 C122.206673,33.5533304 123.219996,32.726672 124.06,31.66 C124.900004,30.593328 125.549998,29.3033409 126.01,27.79 C126.470002,26.2766591 126.7,24.586676 126.7,22.72 Z M142.58,39 L137.36,39 L140.9,10.08 L146.12,10.08 L142.58,39 Z M157.66,10.08 C157.886668,10.08 158.076666,10.0899999 158.23,10.11 C158.383334,10.1300001 158.519999,10.1699997 158.64,10.23 C158.760001,10.2900003 158.866666,10.3733328 158.96,10.48 C159.053334,10.5866672 159.153333,10.7333324 159.26,10.92 L170.52,30.66 C170.546667,30.2733314 170.576666,29.8966685 170.61,29.53 C170.643334,29.1633315 170.68,28.8200016 170.72,28.5 L172.98,10.08 L177.56,10.08 L173.98,39 L171.32,39 C170.919998,39 170.580001,38.9366673 170.3,38.81 C170.019999,38.6833327 169.786668,38.4466684 169.6,38.1 L158.4,18.36 C158.373333,18.6800016 158.346667,18.9899985 158.32,19.29 C158.293333,19.5900015 158.266667,19.873332 158.24,20.14 L155.96,39 L151.38,39 L154.94,10.08 L157.66,10.08 Z M205.1,34.92 C205.913337,34.92 206.62333,34.8566673 207.23,34.73 C207.83667,34.6033327 208.363331,34.440001 208.81,34.24 C209.256669,34.039999 209.639998,33.8300011 209.96,33.61 C210.280002,33.3899989 210.559999,33.180001 210.8,32.98 C211.040001,32.779999 211.253332,32.6166673 211.44,32.49 C211.626668,32.3633327 211.813332,32.3 212,32.3 C212.160001,32.3 212.293333,32.333333 212.4,32.4 C212.506667,32.466667 212.593333,32.533333 212.66,32.6 L214.48,34.86 C213.22666,36.3000072 211.753342,37.4033295 210.06,38.17 C208.366658,38.9366705 206.420011,39.32 204.22,39.32 C202.446658,39.32 200.866674,39.0033365 199.48,38.37 C198.093326,37.7366635 196.920005,36.8600056 195.96,35.74 C194.999995,34.6199944 194.270003,33.293341 193.77,31.76 C193.269998,30.226659 193.02,28.5533424 193.02,26.74 C193.02,25.073325 193.199998,23.4966741 193.56,22.01 C193.920002,20.5233259 194.43333,19.1500063 195.1,17.89 C195.76667,16.6299937 196.566662,15.500005 197.5,14.5 C198.433338,13.499995 199.466661,12.6466702 200.6,11.94 C201.733339,11.2333298 202.95666,10.6933352 204.27,10.32 C205.58334,9.9466648 206.953326,9.76 208.38,9.76 C209.433339,9.76 210.393329,9.8566657 211.26,10.05 C212.126671,10.2433343 212.91333,10.5133316 213.62,10.86 C214.32667,11.2066684 214.959997,11.6233309 215.52,12.11 C216.080003,12.5966691 216.586664,13.139997 217.04,13.74 L215.24,15.9 C215.106666,16.0600008 214.950001,16.1999994 214.77,16.32 C214.589999,16.4400006 214.366668,16.5 214.1,16.5 C213.806665,16.5 213.526668,16.3800012 213.26,16.14 C212.993332,15.8999988 212.656669,15.6366681 212.25,15.35 C211.843331,15.0633319 211.31667,14.8000012 210.67,14.56 C210.02333,14.3199988 209.173339,14.2 208.12,14.2 C206.733326,14.2 205.446673,14.4833305 204.26,15.05 C203.073327,15.6166695 202.040004,16.4266614 201.16,17.48 C200.279996,18.5333386 199.590003,19.8033259 199.09,21.29 C198.589998,22.7766741 198.34,24.4466574 198.34,26.3 C198.34,27.6466734 198.509998,28.853328 198.85,29.92 C199.190002,30.986672 199.659997,31.8899963 200.26,32.63 C200.860003,33.3700037 201.573329,33.9366647 202.4,34.33 C203.226671,34.7233353 204.126662,34.92 205.1,34.92 Z M243.42,39 L239.4,39 C238.946664,39 238.586668,38.8933344 238.32,38.68 C238.053332,38.4666656 237.886667,38.1800018 237.82,37.82 L236.62,31.78 L225.84,31.78 L223.16,37.82 C223.013333,38.1266682 222.773335,38.3999988 222.44,38.64 C222.106665,38.8800012 221.733335,39 221.32,39 L217.24,39 L231.22,10.08 L236.52,10.08 L243.42,39 Z M227.46,28.12 L235.88,28.12 L233.92,18.22 C233.813333,17.7399976 233.706667,17.233336 233.6,16.7 C233.493333,16.166664 233.393334,15.56667 233.3,14.9 C233.046665,15.56667 232.796668,16.1833305 232.55,16.75 C232.303332,17.3166695 232.073334,17.8133312 231.86,18.24 L227.46,28.12 Z M266.04,15.28 C265.853332,15.546668 265.666668,15.7433327 265.48,15.87 C265.293332,15.9966673 265.066668,16.06 264.8,16.06 C264.533332,16.06 264.260001,15.9533344 263.98,15.74 C263.699999,15.5266656 263.366669,15.2900013 262.98,15.03 C262.593331,14.7699987 262.136669,14.5333344 261.61,14.32 C261.083331,14.1066656 260.44667,14 259.7,14 C258.966663,14 258.320003,14.1066656 257.76,14.32 C257.199997,14.5333344 256.730002,14.8266648 256.35,15.2 C255.969998,15.5733352 255.683334,16.0133308 255.49,16.52 C255.296666,17.0266692 255.2,17.5733304 255.2,18.16 C255.2,18.7733364 255.356665,19.2833313 255.67,19.69 C255.983335,20.0966687 256.393331,20.4533318 256.9,20.76 C257.406669,21.0666682 257.986663,21.3399988 258.64,21.58 C259.293337,21.8200012 259.956663,22.073332 260.63,22.34 C261.303337,22.606668 261.966663,22.9133316 262.62,23.26 C263.273337,23.6066684 263.853331,24.0333308 264.36,24.54 C264.866669,25.0466692 265.276665,25.6566631 265.59,26.37 C265.903335,27.0833369 266.06,27.9466616 266.06,28.96 C266.06,30.3733404 265.816669,31.7066604 265.33,32.96 C264.843331,34.2133396 264.143338,35.3099953 263.23,36.25 C262.316662,37.1900047 261.210007,37.9366639 259.91,38.49 C258.609993,39.0433361 257.146675,39.32 255.52,39.32 C254.679996,39.32 253.853337,39.2300009 253.04,39.05 C252.226663,38.8699991 251.460004,38.613335 250.74,38.28 C250.019996,37.946665 249.353336,37.546669 248.74,37.08 C248.126664,36.613331 247.593336,36.0933362 247.14,35.52 L248.98,33.04 C249.126667,32.8533324 249.313332,32.7000006 249.54,32.58 C249.766668,32.4599994 249.993332,32.4 250.22,32.4 C250.433334,32.4 250.643332,32.466666 250.85,32.6 C251.056668,32.733334 251.283332,32.8966657 251.53,33.09 C251.776668,33.2833343 252.043332,33.4966655 252.33,33.73 C252.616668,33.9633345 252.946665,34.1766657 253.32,34.37 C253.693335,34.5633343 254.113331,34.726666 254.58,34.86 C255.046669,34.993334 255.586664,35.06 256.2,35.06 C257.706674,35.06 258.886662,34.6333376 259.74,33.78 C260.593338,32.9266624 261.02,31.7466742 261.02,30.24 C261.02,29.57333 260.866668,29.0266688 260.56,28.6 C260.253332,28.1733312 259.846669,27.8133348 259.34,27.52 C258.833331,27.2266652 258.260003,26.9700011 257.62,26.75 C256.979997,26.5299989 256.323337,26.2966679 255.65,26.05 C254.976663,25.8033321 254.320003,25.5166683 253.68,25.19 C253.039997,24.8633317 252.466669,24.4433359 251.96,23.93 C251.453331,23.4166641 251.046668,22.7866704 250.74,22.04 C250.433332,21.2933296 250.28,20.3733388 250.28,19.28 C250.28,18.0399938 250.509998,16.8466724 250.97,15.7 C251.430002,14.5533276 252.086662,13.5433377 252.94,12.67 C253.793338,11.7966623 254.829994,11.0966693 256.05,10.57 C257.270006,10.0433307 258.646659,9.78 260.18,9.78 C260.966671,9.78 261.72333,9.8599992 262.45,10.02 C263.17667,10.1800008 263.85333,10.4066652 264.48,10.7 C265.10667,10.9933348 265.683331,11.3433313 266.21,11.75 C266.736669,12.1566687 267.193331,12.6066642 267.58,13.1 L266.04,15.28 Z M294.12,39 L288.9,39 L290.46,26.3 L278.3,26.3 L276.74,39 L271.52,39 L275.08,10.08 L280.3,10.08 L278.74,22.62 L290.92,22.62 L292.48,10.08 L297.7,10.08 L294.12,39 Z M313.08,39 L316.64,10.08 L325.92,10.08 C327.520008,10.08 328.889994,10.2366651 330.03,10.55 C331.170006,10.8633349 332.10333,11.3066638 332.83,11.88 C333.55667,12.4533362 334.093332,13.1466626 334.44,13.96 C334.786668,14.7733374 334.96,15.679995 334.96,16.68 C334.96,17.5066708 334.850001,18.2966629 334.63,19.05 C334.409999,19.8033371 334.066669,20.4999968 333.6,21.14 C333.133331,21.7800032 332.540004,22.3533308 331.82,22.86 C331.099996,23.3666692 330.240005,23.786665 329.24,24.12 C330.880008,24.5333354 332.099996,25.2033287 332.9,26.13 C333.700004,27.0566713 334.1,28.2333262 334.1,29.66 C334.1,30.99334 333.853336,32.2299943 333.36,33.37 C332.866664,34.5100057 332.153338,35.4966625 331.22,36.33 C330.286662,37.1633375 329.150007,37.8166643 327.81,38.29 C326.469993,38.7633357 324.953342,39 323.26,39 L313.08,39 Z M319.82,26.26 L318.76,34.96 L323.66,34.96 C324.593338,34.96 325.39333,34.8333346 326.06,34.58 C326.72667,34.3266654 327.276664,33.9700023 327.71,33.51 C328.143336,33.0499977 328.463332,32.4966699 328.67,31.85 C328.876668,31.2033301 328.98,30.4933372 328.98,29.72 C328.98,28.6666614 328.64667,27.8266698 327.98,27.2 C327.31333,26.5733302 326.220008,26.26 324.7,26.26 L319.82,26.26 Z M320.26,22.68 L324.1,22.68 C325.886676,22.68 327.263328,22.2600042 328.23,21.42 C329.196671,20.5799958 329.68,19.293342 329.68,17.56 C329.68,16.3466606 329.33667,15.4633361 328.65,14.91 C327.96333,14.3566639 326.893341,14.08 325.44,14.08 L321.32,14.08 L320.26,22.68 Z M345.78,34.7 L356.3,34.7 L355.8,39 L340.08,39 L343.64,10.08 L348.82,10.08 L345.78,34.7 Z M387.72,22.6 C387.72,24.200008 387.543335,25.7233261 387.19,27.17 C386.836665,28.6166739 386.330003,29.9599938 385.67,31.2 C385.009997,32.4400062 384.216671,33.559995 383.29,34.56 C382.363329,35.560005 381.323339,36.4133298 380.17,37.12 C379.016661,37.8266702 377.766673,38.3699981 376.42,38.75 C375.073327,39.1300019 373.660007,39.32 372.18,39.32 C370.339991,39.32 368.686674,38.9933366 367.22,38.34 C365.753326,37.6866634 364.503339,36.7866724 363.47,35.64 C362.436662,34.4933276 361.646669,33.1400078 361.1,31.58 C360.553331,30.0199922 360.28,28.3266758 360.28,26.5 C360.28,24.899992 360.456665,23.3766739 360.81,21.93 C361.163335,20.4833261 361.669997,19.1400062 362.33,17.9 C362.990003,16.6599938 363.783329,15.540005 364.71,14.54 C365.636671,13.539995 366.676661,12.6833369 367.83,11.97 C368.983339,11.2566631 370.233327,10.7100019 371.58,10.33 C372.926673,9.9499981 374.346659,9.76 375.84,9.76 C377.680009,9.76 379.333326,10.0866634 380.8,10.74 C382.266674,11.3933366 383.513328,12.2933276 384.54,13.44 C385.566672,14.5866724 386.353331,15.9433255 386.9,17.51 C387.446669,19.0766745 387.72,20.7733242 387.72,22.6 Z M382.4,22.72 C382.4,21.4133268 382.236668,20.226672 381.91,19.16 C381.583332,18.093328 381.110003,17.1800038 380.49,16.42 C379.869997,15.6599962 379.113338,15.0733354 378.22,14.66 C377.326662,14.2466646 376.320006,14.04 375.2,14.04 C373.759993,14.04 372.450006,14.3333304 371.27,14.92 C370.089994,15.5066696 369.080004,16.3399946 368.24,17.42 C367.399996,18.5000054 366.750002,19.7999924 366.29,21.32 C365.829998,22.8400076 365.6,24.5266574 365.6,26.38 C365.6,27.6866732 365.759998,28.873328 366.08,29.94 C366.400002,31.006672 366.866664,31.9166629 367.48,32.67 C368.093336,33.4233371 368.843329,34.0033313 369.73,34.41 C370.616671,34.8166687 371.626661,35.02 372.76,35.02 C374.213341,35.02 375.533327,34.7266696 376.72,34.14 C377.906673,33.5533304 378.919996,32.726672 379.76,31.66 C380.600004,30.593328 381.249998,29.3033409 381.71,27.79 C382.170002,26.2766591 382.4,24.586676 382.4,22.72 Z M404.64,34.92 C405.453337,34.92 406.16333,34.8566673 406.77,34.73 C407.37667,34.6033327 407.903331,34.440001 408.35,34.24 C408.796669,34.039999 409.179998,33.8300011 409.5,33.61 C409.820002,33.3899989 410.099999,33.180001 410.34,32.98 C410.580001,32.779999 410.793332,32.6166673 410.98,32.49 C411.166668,32.3633327 411.353332,32.3 411.54,32.3 C411.700001,32.3 411.833333,32.333333 411.94,32.4 C412.046667,32.466667 412.133333,32.533333 412.2,32.6 L414.02,34.86 C412.76666,36.3000072 411.293342,37.4033295 409.6,38.17 C407.906658,38.9366705 405.960011,39.32 403.76,39.32 C401.986658,39.32 400.406674,39.0033365 399.02,38.37 C397.633326,37.7366635 396.460005,36.8600056 395.5,35.74 C394.539995,34.6199944 393.810003,33.293341 393.31,31.76 C392.809998,30.226659 392.56,28.5533424 392.56,26.74 C392.56,25.073325 392.739998,23.4966741 393.1,22.01 C393.460002,20.5233259 393.97333,19.1500063 394.64,17.89 C395.30667,16.6299937 396.106662,15.500005 397.04,14.5 C397.973338,13.499995 399.006661,12.6466702 400.14,11.94 C401.273339,11.2333298 402.49666,10.6933352 403.81,10.32 C405.12334,9.9466648 406.493326,9.76 407.92,9.76 C408.973339,9.76 409.933329,9.8566657 410.8,10.05 C411.666671,10.2433343 412.45333,10.5133316 413.16,10.86 C413.86667,11.2066684 414.499997,11.6233309 415.06,12.11 C415.620003,12.5966691 416.126664,13.139997 416.58,13.74 L414.78,15.9 C414.646666,16.0600008 414.490001,16.1999994 414.31,16.32 C414.129999,16.4400006 413.906668,16.5 413.64,16.5 C413.346665,16.5 413.066668,16.3800012 412.8,16.14 C412.533332,15.8999988 412.196669,15.6366681 411.79,15.35 C411.383331,15.0633319 410.85667,14.8000012 410.21,14.56 C409.56333,14.3199988 408.713339,14.2 407.66,14.2 C406.273326,14.2 404.986673,14.4833305 403.8,15.05 C402.613327,15.6166695 401.580004,16.4266614 400.7,17.48 C399.819996,18.5333386 399.130003,19.8033259 398.63,21.29 C398.129998,22.7766741 397.88,24.4466574 397.88,26.3 C397.88,27.6466734 398.049998,28.853328 398.39,29.92 C398.730002,30.986672 399.199997,31.8899963 399.8,32.63 C400.400003,33.3700037 401.113329,33.9366647 401.94,34.33 C402.766671,34.7233353 403.666662,34.92 404.64,34.92 Z M426.98,22.3 L428.1,22.3 C428.566669,22.3 428.963332,22.2300007 429.29,22.09 C429.616668,21.9499993 429.913332,21.7200016 430.18,21.4 L438.54,11.2 C438.886668,10.7733312 439.253331,10.4800008 439.64,10.32 C440.026669,10.1599992 440.479997,10.08 441,10.08 L445.46,10.08 L435.22,22.18 C434.913332,22.5400018 434.616668,22.8466654 434.33,23.1 C434.043332,23.3533346 433.740002,23.5533326 433.42,23.7 C433.820002,23.8600008 434.163332,24.0799986 434.45,24.36 C434.736668,24.6400014 434.999999,25.0066644 435.24,25.46 L442.58,39 L438.02,39 C437.713332,39 437.453334,38.9766669 437.24,38.93 C437.026666,38.8833331 436.843334,38.8166671 436.69,38.73 C436.536666,38.6433329 436.41,38.5366673 436.31,38.41 C436.209999,38.2833327 436.12,38.1400008 436.04,37.98 L430.08,27.2 C429.893332,26.8533316 429.653335,26.6033341 429.36,26.45 C429.066665,26.2966659 428.633336,26.22 428.06,26.22 L426.5,26.22 L424.92,39 L419.76,39 L423.3,10.06 L428.5,10.06 L426.98,22.3 Z" id="BITCOIN-CASH-BLOCK"></path>
                </g>
            </g>
        </g>
    </g>
</svg>