<?xml version="1.0" encoding="UTF-8"?>
<svg width="107px" height="35px" viewBox="0 0 107 35" version="1.1" xmlns="http://www.w3.org/2000/svg" xmlns:xlink="http://www.w3.org/1999/xlink">
    <!-- Generator: Sketch 46.2 (44496) - http://www.bohemiancoding.com/sketch -->
    <title>type (outlines)</title>
    <desc>Created with Sketch.</desc>
    <defs></defs>
    <g id="Symbols" stroke="none" stroke-width="1" fill="none" fill-rule="evenodd">
        <g id="logotype" transform="translate(-64.000000, -3.000000)" fill="#629D1F">
            <g id="type-(outlines)">
                <g transform="translate(61.550212, 1.215470)">
                    <path d="M2.45227723,36.2209945 L2.45227723,16.0053039 L11.5315417,16.0053039 L11.5315417,18.2514917 L5.07971711,18.2514917 L5.07971711,24.5233149 L10.9184724,24.5233149 L10.9184724,26.7111602 L5.07971711,26.7111602 L5.07971711,33.9748066 L11.9986421,33.9748066 L11.9986421,36.2209945 L2.45227723,36.2209945 Z M19.7057992,23.4148066 L23.1798586,16.0053039 L25.8072985,16.0053039 L21.1946818,25.398453 C21.6033967,26.2735955 22.0364334,27.1827577 22.4938048,28.1259669 C22.9511763,29.069176 23.3988097,30.012371 23.8367185,30.9555801 C24.2746274,31.8987892 24.6882017,32.8176751 25.077454,33.7122652 C25.4667063,34.6068553 25.807297,35.44309 26.0992362,36.2209945 L23.5009901,36.2209945 C23.2869013,35.6375661 23.0387567,35.0006664 22.7565488,34.3102762 C22.4743409,33.6198861 22.1629437,32.9149207 21.822348,32.1953591 C21.4817522,31.4757975 21.1314304,30.7416612 20.771372,29.9929282 C20.4113136,29.2441952 20.0561262,28.5197825 19.7057992,27.8196685 C19.3554721,28.5197825 18.9954191,29.2441952 18.6256294,29.9929282 C18.2558397,30.7416612 17.9055179,31.4757975 17.5746535,32.1953591 C17.243789,32.9149207 16.9372574,33.6198861 16.6550495,34.3102762 C16.3728416,35.0006664 16.1344281,35.6375661 15.939802,36.2209945 L13.3999434,36.2209945 C13.67242,35.4625376 14.0032795,34.6457502 14.3925318,33.7706077 C14.7817841,32.8954652 15.1904929,31.9960267 15.6186705,31.0722652 C16.046848,30.1485037 16.4798847,29.2198942 16.9177935,28.2864088 C17.3557023,27.3529235 17.7790079,26.4583468 18.1877228,25.6026519 L13.5167185,16.0053039 L16.202546,16.0053039 L19.7057992,23.4148066 Z M28.6390948,16.2970166 C30.0014778,15.9664072 31.334647,15.801105 32.6386422,15.801105 C33.6506982,15.801105 34.5702929,15.9226507 35.3974541,16.1657459 C36.2246152,16.408841 36.93499,16.7880637 37.5285997,17.3034254 C38.1222095,17.8187871 38.5795741,18.4848578 38.9007072,19.3016575 C39.2218404,20.1184571 39.3824045,21.1005467 39.3824045,22.2479558 C39.3824045,23.4148125 39.2169748,24.4114876 38.8861103,25.238011 C38.5552459,26.0645345 38.0881501,26.735467 37.4848091,27.2508287 C36.881468,27.7661904 36.1564965,28.1405513 35.3098727,28.3739227 C34.463249,28.607294 33.5241919,28.7239779 32.4926733,28.7239779 L31.2665347,28.7239779 L31.2665347,36.2209945 L28.6390948,36.2209945 L28.6390948,16.2970166 Z M31.2665347,26.4194475 L32.3175106,26.4194475 C32.9792395,26.4194475 33.577706,26.3465201 34.1129279,26.200663 C34.6481498,26.0548059 35.1006488,25.8165762 35.4704385,25.4859669 C35.8402282,25.1553575 36.1224319,24.7275164 36.317058,24.2024309 C36.5116842,23.6773454 36.6089958,23.0258602 36.6089958,22.2479558 C36.6089958,21.4700514 36.5116842,20.8137043 36.317058,20.278895 C36.1224319,19.7440857 35.8548249,19.3162447 35.5142292,18.9953591 C35.1736334,18.6744735 34.760059,18.4459675 34.2734937,18.3098343 C33.7869283,18.173701 33.2517144,18.1056354 32.6678359,18.1056354 C32.161808,18.1056354 31.6947122,18.1348063 31.2665347,18.1931492 L31.2665347,26.4194475 Z M51.3810467,33.9748066 L51.3810467,36.2209945 L42.3601698,36.2209945 L42.3601698,16.0053039 L44.9876097,16.0053039 L44.9876097,33.9748066 L51.3810467,33.9748066 Z M66.6493918,26.1277348 C66.6493918,27.7029913 66.50829,29.1372311 66.2260821,30.4304972 C65.9438742,31.7237634 65.5059719,32.8322606 64.9123621,33.7560221 C64.3187524,34.6797836 63.5694529,35.3944726 62.6644413,35.9001105 C61.7594298,36.4057484 60.6938676,36.6585635 59.4677228,36.6585635 C58.2415781,36.6585635 57.1760159,36.4057484 56.2710043,35.9001105 C55.3659927,35.3944726 54.6166933,34.6797836 54.0230835,33.7560221 C53.4294737,32.8322606 52.9867059,31.7237634 52.6947667,30.4304972 C52.4028274,29.1372311 52.25686,27.7029913 52.25686,26.1277348 C52.25686,24.5524783 52.4028274,23.1133767 52.6947667,21.8103867 C52.9867059,20.5073968 53.4294737,19.3940378 54.0230835,18.4702762 C54.6166933,17.5465147 55.3659927,16.8269639 56.2710043,16.3116022 C57.1760159,15.7962405 58.2415781,15.5385635 59.4677228,15.5385635 C60.6938676,15.5385635 61.7594298,15.7962405 62.6644413,16.3116022 C63.5694529,16.8269639 64.3187524,17.5465147 64.9123621,18.4702762 C65.5059719,19.3940378 65.9438742,20.5073968 66.2260821,21.8103867 C66.50829,23.1133767 66.6493918,24.5524783 66.6493918,26.1277348 Z M63.8467893,26.1277348 C63.8467893,24.9025353 63.76894,23.7843144 63.6132391,22.7730387 C63.4575382,21.7617629 63.204528,20.8914954 62.8542009,20.1622099 C62.5038738,19.4329245 62.0513748,18.8640904 61.4966903,18.4556906 C60.9420058,18.0472908 60.26569,17.8430939 59.4677228,17.8430939 C58.6697556,17.8430939 57.9934399,18.0472908 57.4387554,18.4556906 C56.8840708,18.8640904 56.4315718,19.4329245 56.0812447,20.1622099 C55.7309177,20.8914954 55.4730419,21.7617629 55.3076097,22.7730387 C55.1421774,23.7843144 55.0594626,24.9025353 55.0594626,26.1277348 C55.0594626,27.3529343 55.1421774,28.4711552 55.3076097,29.4824309 C55.4730419,30.4937067 55.7309177,31.3591124 56.0812447,32.078674 C56.4315718,32.7982356 56.8840708,33.3573461 57.4387554,33.7560221 C57.9934399,34.1546981 58.6697556,34.3540331 59.4677228,34.3540331 C60.26569,34.3540331 60.9420058,34.1546981 61.4966903,33.7560221 C62.0513748,33.3573461 62.5038738,32.7982356 62.8542009,32.078674 C63.204528,31.3591124 63.4575382,30.4937067 63.6132391,29.4824309 C63.76894,28.4711552 63.8467893,27.3529343 63.8467893,26.1277348 Z M70.2986139,16.2970166 C71.660997,15.9664072 72.9747038,15.801105 74.2397737,15.801105 C75.2518297,15.801105 76.1665589,15.9177889 76.9839887,16.1511602 C77.8014186,16.3845316 78.5020622,16.7540306 79.0859407,17.2596685 C79.6698191,17.7653064 80.1223181,18.4167916 80.4434513,19.2141436 C80.7645844,20.0114957 80.9251486,20.974138 80.9251486,22.1020994 C80.9251486,23.5023274 80.6575416,24.6351338 80.1223197,25.5005525 C79.5870978,26.3659712 78.8621263,27.0223182 77.9473834,27.4696133 C78.1809347,27.8585655 78.4777352,28.3885049 78.8377936,29.0594475 C79.1978519,29.7303901 79.5676361,30.4693882 79.9471571,31.2764641 C80.3266781,32.0835399 80.6964622,32.9149128 81.0565206,33.7706077 C81.4165789,34.6263026 81.7231105,35.44309 81.9761245,36.2209945 L79.3486846,36.2209945 C79.1345959,35.6375661 78.8669889,34.9763573 78.5458558,34.2373481 C78.2247226,33.4983388 77.8889976,32.7642025 77.5386705,32.0349171 C77.1883434,31.3056317 76.8380216,30.6055282 76.4876945,29.9345856 C76.1373675,29.2636431 75.8259703,28.694809 75.5534937,28.2280663 C75.2420919,28.2669615 74.9209635,28.2961325 74.5900991,28.3155801 C74.2592346,28.3350277 73.9283751,28.3447514 73.5975107,28.3447514 L72.8676663,28.3447514 L72.8676663,36.2209945 L70.2986139,36.2209945 L70.2986139,16.2970166 Z M72.8676663,26.1860773 L73.9770298,26.1860773 C75.3199502,26.1860773 76.3514533,25.8797821 77.0715701,25.2671823 C77.7916868,24.6545826 78.1517398,23.5995655 78.1517398,22.1020994 C78.1517398,21.3436426 78.0592938,20.7067429 77.8743989,20.1913812 C77.6895041,19.6760195 77.4267627,19.2676258 77.086167,18.9661878 C76.7455712,18.6647499 76.3368624,18.4459675 75.8600283,18.3098343 C75.3831943,18.173701 74.852846,18.1056354 74.2689675,18.1056354 C73.7629395,18.1056354 73.2958438,18.1348063 72.8676663,18.1931492 L72.8676663,26.1860773 Z M84.8663084,36.2209945 L84.8663084,16.0053039 L93.9455729,16.0053039 L93.9455729,18.2514917 L87.4937483,18.2514917 L87.4937483,24.5233149 L93.3325036,24.5233149 L93.3325036,26.7111602 L87.4937483,26.7111602 L87.4937483,33.9748066 L94.4126733,33.9748066 L94.4126733,36.2209945 L84.8663084,36.2209945 Z M97.7407639,16.2970166 C99.1031469,15.9664072 100.416854,15.801105 101.681924,15.801105 C102.69398,15.801105 103.608709,15.9177889 104.426139,16.1511602 C105.243569,16.3845316 105.944212,16.7540306 106.528091,17.2596685 C107.111969,17.7653064 107.564468,18.4167916 107.885601,19.2141436 C108.206734,20.0114957 108.367299,20.974138 108.367299,22.1020994 C108.367299,23.5023274 108.099692,24.6351338 107.56447,25.5005525 C107.029248,26.3659712 106.304276,27.0223182 105.389533,27.4696133 C105.623085,27.8585655 105.919885,28.3885049 106.279944,29.0594475 C106.640002,29.7303901 107.009786,30.4693882 107.389307,31.2764641 C107.768828,32.0835399 108.138612,32.9149128 108.498671,33.7706077 C108.858729,34.6263026 109.16526,35.44309 109.418274,36.2209945 L106.790835,36.2209945 C106.576746,35.6375661 106.309139,34.9763573 105.988006,34.2373481 C105.666873,33.4983388 105.331148,32.7642025 104.98082,32.0349171 C104.630493,31.3056317 104.280172,30.6055282 103.929844,29.9345856 C103.579517,29.2636431 103.26812,28.694809 102.995644,28.2280663 C102.684242,28.2669615 102.363113,28.2961325 102.032249,28.3155801 C101.701385,28.3350277 101.370525,28.3447514 101.039661,28.3447514 L100.309816,28.3447514 L100.309816,36.2209945 L97.7407639,36.2209945 L97.7407639,16.2970166 Z M100.309816,26.1860773 L101.41918,26.1860773 C102.7621,26.1860773 103.793603,25.8797821 104.51372,25.2671823 C105.233837,24.6545826 105.59389,23.5995655 105.59389,22.1020994 C105.59389,21.3436426 105.501444,20.7067429 105.316549,20.1913812 C105.131654,19.6760195 104.868913,19.2676258 104.528317,18.9661878 C104.187721,18.6647499 103.779012,18.4459675 103.302178,18.3098343 C102.825344,18.173701 102.294996,18.1056354 101.711117,18.1056354 C101.205089,18.1056354 100.737994,18.1348063 100.309816,18.1931492 L100.309816,26.1860773 Z" id="EXPLORER"></path>
                    <path d="M3.01669024,9.48066298 L3.88277228,2.45038674 L6.14042433,2.45038674 C6.52967663,2.45038674 6.86296891,2.48847107 7.14031117,2.56464088 C7.41765344,2.64081069 7.64471387,2.74858126 7.82149929,2.8879558 C7.99828471,3.02733035 8.12884446,3.19587378 8.21318246,3.39359116 C8.29752046,3.59130854 8.33968883,3.81171149 8.33968883,4.05480663 C8.33968883,4.25576528 8.31292813,4.44780756 8.25940594,4.63093923 C8.20588375,4.8140709 8.12235795,4.98342464 8.00882603,5.13900552 C7.8952941,5.29458641 7.75094854,5.43395887 7.57578501,5.55712707 C7.40062147,5.68029528 7.1914015,5.7823937 6.94811881,5.86342541 C7.34710242,5.96390474 7.64390285,6.12677604 7.838529,6.3520442 C8.03315515,6.57731236 8.13046676,6.86335002 8.13046676,7.21016575 C8.13046676,7.5342926 8.07045793,7.83491574 7.95043847,8.1120442 C7.83041901,8.38917266 7.65687997,8.62902293 7.42981612,8.83160221 C7.20275228,9.03418149 6.92622511,9.19300127 6.60022631,9.3080663 C6.27422751,9.42313133 5.9052543,9.48066298 5.49329562,9.48066298 L3.01669024,9.48066298 Z M4.65640736,6.38364641 L4.398529,8.49856354 L5.5906082,8.49856354 C5.81767205,8.49856354 6.01229528,8.46777195 6.17448373,8.40618785 C6.33667219,8.34460374 6.47047566,8.25790111 6.57589816,8.14607735 C6.68132066,8.03425358 6.75916995,7.89974296 6.80944837,7.74254144 C6.8597268,7.58533991 6.88486563,7.41274495 6.88486563,7.22475138 C6.88486563,6.96869117 6.80377262,6.76449432 6.64158416,6.6121547 C6.4793957,6.45981508 6.21341062,6.38364641 5.84362093,6.38364641 L4.65640736,6.38364641 Z M4.7634512,5.51337017 L5.69765205,5.51337017 C6.13231712,5.51337017 6.46723126,5.41127174 6.70240453,5.20707182 C6.93757779,5.00287191 7.05516266,4.69009419 7.05516266,4.26872928 C7.05516266,3.97377385 6.97163686,3.75904303 6.80458274,3.62453039 C6.63752863,3.49001774 6.37722006,3.42276243 6.02364922,3.42276243 L5.02132956,3.42276243 L4.7634512,5.51337017 Z M10.9963225,9.48066298 L9.72639321,9.48066298 L10.5876096,2.45038674 L11.8575389,2.45038674 L10.9963225,9.48066298 Z M18.5964356,2.45038674 L18.4650636,3.48596685 L16.5382744,3.48596685 L15.7986987,9.48066298 L14.5433663,9.48066298 L15.2780764,3.48596685 L13.3464215,3.48596685 L13.4729279,2.45038674 L18.5964356,2.45038674 Z M21.7785573,8.48883978 C21.9764272,8.48883978 22.1491553,8.47344398 22.2967468,8.44265193 C22.4443383,8.41185988 22.5724653,8.37215494 22.6811315,8.32353591 C22.7897978,8.27491688 22.8830548,8.22386767 22.9609052,8.17038674 C23.0387557,8.11690581 23.1068738,8.0658566 23.1652617,8.01723757 C23.2236495,7.96861854 23.275549,7.9289136 23.3209618,7.89812155 C23.3663746,7.8673295 23.4117867,7.8519337 23.4571994,7.8519337 C23.4961247,7.8519337 23.5285619,7.86003675 23.554512,7.87624309 C23.5804622,7.89244944 23.6015464,7.90865554 23.6177652,7.92486188 L24.0605375,8.47425414 C23.7556232,8.82431114 23.3971921,9.09252209 22.9852334,9.27889503 C22.5732747,9.46526797 22.0996915,9.55845304 21.5644696,9.55845304 C21.1330483,9.55845304 20.7486674,9.48147407 20.4113154,9.32751381 C20.0739634,9.17355356 19.788516,8.96044335 19.5549646,8.6881768 C19.3214133,8.41591024 19.1438196,8.09340886 19.0221782,7.72066298 C18.9005369,7.3479171 18.8397171,6.94114401 18.8397171,6.50033149 C18.8397171,6.09517293 18.8835073,5.71189868 18.9710891,5.35049724 C19.0586709,4.9890958 19.1835541,4.65525015 19.3457426,4.34895028 C19.507931,4.0426504 19.7025543,3.76795702 19.9296181,3.52486188 C20.1566819,3.28176674 20.4080703,3.07432867 20.6837907,2.90254144 C20.959511,2.73075421 21.2571224,2.5994848 21.5766337,2.50872928 C21.8961449,2.41797376 22.2294372,2.37259669 22.5765205,2.37259669 C22.8327783,2.37259669 23.0663261,2.39609553 23.2771711,2.44309392 C23.4880161,2.49009232 23.6793957,2.55572702 23.8513154,2.64 C24.0232352,2.72427298 24.1773119,2.8255611 24.3135502,2.9438674 C24.4497885,3.0621737 24.5730499,3.19425341 24.683338,3.3401105 L24.2454314,3.86519337 C24.2129937,3.90408859 24.17488,3.9381214 24.1310891,3.96729282 C24.0872982,3.99646423 24.0329659,4.01104972 23.9680905,4.01104972 C23.8967276,4.01104972 23.8286095,3.98187874 23.7637341,3.92353591 C23.6988587,3.86519308 23.6169548,3.80117899 23.5180198,3.73149171 C23.4190848,3.66180444 23.2909579,3.59779035 23.1336351,3.53944751 C22.9763123,3.48110468 22.7695251,3.4519337 22.5132673,3.4519337 C22.1759153,3.4519337 21.8628963,3.52080962 21.5742008,3.65856354 C21.2855054,3.79631745 21.0341171,3.99322156 20.8200283,4.24928177 C20.6059395,4.50534198 20.438077,4.81406817 20.3164356,5.17546961 C20.1947943,5.53687105 20.1339745,5.94283384 20.1339745,6.39337017 C20.1339745,6.72073829 20.175332,7.01406869 20.2580481,7.27337017 C20.3407642,7.53267165 20.4551054,7.75226429 20.601075,7.9321547 C20.7470446,8.1120451 20.9205836,8.24979694 21.1216973,8.34541436 C21.322811,8.44103179 21.5417621,8.48883978 21.7785573,8.48883978 Z M32.1180198,5.49392265 C32.1180198,5.88287487 32.0750405,6.25318425 31.9890806,6.60486188 C31.9031207,6.95653951 31.7798594,7.28309242 31.6192928,7.58453039 C31.4587262,7.88596836 31.2657248,8.15823083 31.0402829,8.40132597 C30.8148409,8.6444211 30.5618307,8.85185918 30.2812447,9.02364641 C30.0006587,9.19543364 29.6965599,9.32751335 29.3689392,9.4198895 C29.0413185,9.51226566 28.6974841,9.55845304 28.3374257,9.55845304 C27.8897856,9.55845304 27.4875643,9.47904315 27.1307496,9.32022099 C26.773935,9.16139884 26.4698362,8.9426165 26.2184441,8.6638674 C25.967052,8.38511831 25.7748616,8.05613449 25.641867,7.67690608 C25.5088725,7.29767766 25.4423762,6.88604274 25.4423762,6.44198895 C25.4423762,6.05303673 25.4853555,5.68272736 25.5713154,5.33104972 C25.6572753,4.97937209 25.7805367,4.65281919 25.9411033,4.35138122 C26.1016698,4.04994324 26.2946712,3.77768077 26.5201132,3.53458564 C26.7455551,3.2914905 26.9985653,3.08324212 27.2791513,2.90983425 C27.5597374,2.73642639 27.8638362,2.60353637 28.1914569,2.51116022 C28.5190775,2.41878407 28.8645338,2.37259669 29.2278359,2.37259669 C29.6754761,2.37259669 30.0776974,2.45200657 30.434512,2.61082873 C30.7913266,2.76965089 31.0946145,2.98843323 31.3443847,3.26718232 C31.5941549,3.54593141 31.7855345,3.87572554 31.918529,4.25657459 C32.0515235,4.63742364 32.1180198,5.04986887 32.1180198,5.49392265 Z M30.8237624,5.52309392 C30.8237624,5.20544961 30.7840268,4.91698104 30.7045545,4.65767956 C30.6250821,4.39837808 30.50993,4.17635451 30.3590948,3.99160221 C30.2082595,3.8068499 30.0241784,3.66423623 29.8068458,3.56375691 C29.5895133,3.46327758 29.3446124,3.41303867 29.0721358,3.41303867 C28.7218087,3.41303867 28.4031132,3.48434551 28.1160396,3.62696133 C27.828966,3.76957714 27.5832542,3.97215338 27.3788967,4.23469613 C27.1745393,4.49723888 27.0164079,4.81325782 26.9044979,5.18276243 C26.7925878,5.55226704 26.7366337,5.96228136 26.7366337,6.41281768 C26.7366337,6.73046199 26.7755583,7.01893056 26.8534088,7.27823204 C26.9312592,7.53753352 27.0447894,7.75874678 27.1940028,7.94187845 C27.3432162,8.12501012 27.5256755,8.26600319 27.7413861,8.36486188 C27.9570968,8.46372057 28.2028086,8.51314917 28.478529,8.51314917 C28.8320998,8.51314917 29.1532282,8.44184233 29.4419236,8.29922652 C29.7306191,8.1566107 29.9771418,7.95565507 30.1814993,7.69635359 C30.3858568,7.43705211 30.5439881,7.12346409 30.6558982,6.75558011 C30.7678082,6.38769613 30.8237624,5.97687151 30.8237624,5.52309392 Z M34.6870721,9.48066298 L33.4171429,9.48066298 L34.2783593,2.45038674 L35.5482885,2.45038674 L34.6870721,9.48066298 Z M38.3557567,2.45038674 C38.4109008,2.45038674 38.4571238,2.45281766 38.4944272,2.45767956 C38.5317305,2.46254146 38.5649786,2.47226512 38.5941726,2.48685083 C38.6233665,2.50143654 38.6493162,2.52169416 38.6720226,2.54762431 C38.694729,2.57355446 38.7190569,2.60920788 38.7450071,2.65458564 L41.4843564,7.45325967 C41.490844,7.35926288 41.4981423,7.26769842 41.5062518,7.17856354 C41.5143612,7.08942865 41.5232814,7.00596724 41.5330127,6.9281768 L42.0828289,2.45038674 L43.197058,2.45038674 L42.3261103,9.48066298 L41.6789816,9.48066298 C41.5816685,9.48066298 41.4989537,9.46526719 41.4308345,9.43447514 C41.3627154,9.40368309 41.3059503,9.34615143 41.2605375,9.26187845 L38.535785,4.46320442 C38.5292975,4.54099486 38.52281,4.61635323 38.5163225,4.68928177 C38.509835,4.76221031 38.5033475,4.83108623 38.49686,4.8959116 L37.9421782,9.48066298 L36.8279491,9.48066298 L37.6940311,2.45038674 L38.3557567,2.45038674 Z M49.8970297,8.48883978 C50.0948996,8.48883978 50.2676277,8.47344398 50.4152192,8.44265193 C50.5628107,8.41185988 50.6909377,8.37215494 50.799604,8.32353591 C50.9082702,8.27491688 51.0015272,8.22386767 51.0793777,8.17038674 C51.1572281,8.11690581 51.2253462,8.0658566 51.2837341,8.01723757 C51.3421219,7.96861854 51.3940215,7.9289136 51.4394342,7.89812155 C51.484847,7.8673295 51.5302591,7.8519337 51.5756719,7.8519337 C51.6145971,7.8519337 51.6470343,7.86003675 51.6729844,7.87624309 C51.6989346,7.89244944 51.7200188,7.90865554 51.7362376,7.92486188 L52.1790099,8.47425414 C51.8740956,8.82431114 51.5156645,9.09252209 51.1037058,9.27889503 C50.6917471,9.46526797 50.2181639,9.55845304 49.682942,9.55845304 C49.2515207,9.55845304 48.8671398,9.48147407 48.5297878,9.32751381 C48.1924358,9.17355356 47.9069884,8.96044335 47.6734371,8.6881768 C47.4398857,8.41591024 47.262292,8.09340886 47.1406506,7.72066298 C47.0190093,7.3479171 46.9581895,6.94114401 46.9581895,6.50033149 C46.9581895,6.09517293 47.0019798,5.71189868 47.0895615,5.35049724 C47.1771433,4.9890958 47.3020265,4.65525015 47.464215,4.34895028 C47.6264035,4.0426504 47.8210267,3.76795702 48.0480905,3.52486188 C48.2751544,3.28176674 48.5265427,3.07432867 48.8022631,2.90254144 C49.0779835,2.73075421 49.3755948,2.5994848 49.6951061,2.50872928 C50.0146173,2.41797376 50.3479096,2.37259669 50.6949929,2.37259669 C50.9512507,2.37259669 51.1847986,2.39609553 51.3956436,2.44309392 C51.6064886,2.49009232 51.7978681,2.55572702 51.9697878,2.64 C52.1417076,2.72427298 52.2957843,2.8255611 52.4320226,2.9438674 C52.5682609,3.0621737 52.6915223,3.19425341 52.8018105,3.3401105 L52.3639038,3.86519337 C52.3314661,3.90408859 52.2933524,3.9381214 52.2495615,3.96729282 C52.2057706,3.99646423 52.1514383,4.01104972 52.0865629,4.01104972 C52.0152,4.01104972 51.9470819,3.98187874 51.8822065,3.92353591 C51.8173311,3.86519308 51.7354272,3.80117899 51.6364922,3.73149171 C51.5375573,3.66180444 51.4094303,3.59779035 51.2521075,3.53944751 C51.0947847,3.48110468 50.8879975,3.4519337 50.6317397,3.4519337 C50.2943878,3.4519337 49.9813687,3.52080962 49.6926733,3.65856354 C49.4039778,3.79631745 49.1525895,3.99322156 48.9385007,4.24928177 C48.7244119,4.50534198 48.5565494,4.81406817 48.4349081,5.17546961 C48.3132667,5.53687105 48.252447,5.94283384 48.252447,6.39337017 C48.252447,6.72073829 48.2938044,7.01406869 48.3765205,7.27337017 C48.4592366,7.53267165 48.5735778,7.75226429 48.7195474,7.9321547 C48.865517,8.1120451 49.039056,8.24979694 49.2401697,8.34541436 C49.4412834,8.44103179 49.6602346,8.48883978 49.8970297,8.48883978 Z M59.2195757,9.48066298 L58.2415842,9.48066298 C58.131296,9.48066298 58.0437156,9.45473322 57.9788402,9.40287293 C57.9139648,9.35101263 57.8734183,9.2813264 57.8571994,9.19381215 L57.5652617,7.72552486 L54.9426874,7.72552486 L54.2906931,9.19381215 C54.2550116,9.26836133 54.1966246,9.33480634 54.1155304,9.39314917 C54.0344362,9.451492 53.943612,9.48066298 53.8430552,9.48066298 L52.8504668,9.48066298 L56.2515417,2.45038674 L57.5409335,2.45038674 L59.2195757,9.48066298 Z M55.3368034,6.8358011 L57.3852334,6.8358011 L56.9084017,4.42917127 C56.8824515,4.3124856 56.8565018,4.18931925 56.8305516,4.05966851 C56.8046015,3.93001777 56.7802736,3.78416287 56.7575672,3.62209945 C56.6959356,3.78416287 56.6351158,3.93406929 56.5751061,4.0718232 C56.5150964,4.20957712 56.4591422,4.33031256 56.4072419,4.43403315 L55.3368034,6.8358011 Z M64.7226025,3.71447514 C64.6771898,3.77930051 64.6317777,3.8271085 64.5863649,3.85790055 C64.5409522,3.8886926 64.4858089,3.9040884 64.4209335,3.9040884 C64.3560581,3.9040884 64.2895619,3.87815864 64.2214427,3.82629834 C64.1533236,3.77443805 64.0722306,3.71690639 63.9781612,3.65370166 C63.8840919,3.59049692 63.7729945,3.53296527 63.6448656,3.48110497 C63.5167367,3.42924468 63.3618491,3.40331492 63.180198,3.40331492 C63.0017907,3.40331492 62.8444703,3.42924468 62.708232,3.48110497 C62.5719937,3.53296527 62.4576525,3.60427211 62.3652051,3.69502762 C62.2727577,3.78578314 62.2030177,3.8927434 62.155983,4.0159116 C62.1089484,4.13907981 62.0854314,4.27196982 62.0854314,4.41458564 C62.0854314,4.56368399 62.1235451,4.68766065 62.1997737,4.78651934 C62.2760023,4.88537803 62.3757467,4.97208066 62.4990099,5.04662983 C62.6222731,5.12117901 62.763375,5.18762402 62.9223197,5.24596685 C63.0812643,5.30430968 63.2426394,5.36589286 63.4064498,5.43071823 C63.5702601,5.4955436 63.7316352,5.57009166 63.8905799,5.65436464 C64.0495246,5.73863762 64.1906264,5.84235666 64.3138897,5.96552486 C64.4371529,6.08869307 64.5368973,6.23697888 64.6131259,6.41038674 C64.6893545,6.58379461 64.7274682,6.79366359 64.7274682,7.04 C64.7274682,7.38357446 64.6682703,7.70769645 64.5498727,8.01237569 C64.4314751,8.31705493 64.2611798,8.58364527 64.0389816,8.8121547 C63.8167834,9.04066413 63.5475546,9.22217244 63.2312871,9.35668508 C62.9150196,9.49119773 62.5590213,9.55845304 62.1632815,9.55845304 C61.958924,9.55845304 61.7578133,9.5365748 61.5599434,9.49281768 C61.3620735,9.44906055 61.1755596,9.38666707 61.000396,9.30563536 C60.8252325,9.22460365 60.6630465,9.12736705 60.5138331,9.01392265 C60.3646197,8.90047825 60.2348709,8.77407068 60.1245827,8.63469613 L60.5722207,8.0318232 C60.6079021,7.98644545 60.6533142,7.94917142 60.7084583,7.92 C60.7636024,7.89082858 60.8187456,7.87624309 60.8738897,7.87624309 C60.92579,7.87624309 60.9768786,7.89244919 61.027157,7.92486188 C61.0774354,7.95727456 61.1325787,7.99697951 61.1925884,8.0439779 C61.2525981,8.09097629 61.3174725,8.14283581 61.3872136,8.19955801 C61.4569546,8.25628021 61.5372367,8.30813973 61.6280622,8.35513812 C61.7188878,8.40213651 61.821065,8.44184146 61.9345969,8.47425414 C62.0481288,8.50666683 62.1794995,8.52287293 62.3287129,8.52287293 C62.6952588,8.52287293 62.9823281,8.41915389 63.1899293,8.21171271 C63.3975305,8.00427152 63.5013296,7.71742356 63.5013296,7.35116022 C63.5013296,7.1890968 63.4640268,7.05620678 63.3894201,6.95248619 C63.3148134,6.8487656 63.2158799,6.76125266 63.0926167,6.68994475 C62.9693535,6.61863684 62.8298735,6.55624336 62.6741726,6.50276243 C62.5184716,6.4492815 62.3587184,6.39256015 62.1949081,6.33259669 C62.0310977,6.27263322 61.8713445,6.20294699 61.7156436,6.12353591 C61.5599426,6.04412483 61.4204627,5.94202641 61.2971994,5.81723757 C61.1739362,5.69244873 61.0750027,5.53930109 61.000396,5.35779006 C60.9257893,5.17627902 60.8884866,4.95263485 60.8884866,4.68685083 C60.8884866,4.38541286 60.9444407,4.09532368 61.0563508,3.81657459 C61.1682608,3.53782549 61.328014,3.29230309 61.5356153,3.08 C61.7432165,2.86769691 61.9954158,2.69753287 62.2922207,2.56950276 C62.5890255,2.44147266 62.9239397,2.37745856 63.2969731,2.37745856 C63.4883555,2.37745856 63.6724366,2.39690588 63.8492221,2.4358011 C64.0260075,2.47469633 64.1906263,2.52979707 64.3430835,2.60110497 C64.4955406,2.67241288 64.6358315,2.7574949 64.7639604,2.85635359 C64.8920893,2.95521228 65.0031867,3.06460345 65.097256,3.18453039 L64.7226025,3.71447514 Z M71.5539463,9.48066298 L70.284017,9.48066298 L70.6635361,6.39337017 L67.7052334,6.39337017 L67.3257143,9.48066298 L66.055785,9.48066298 L66.921867,2.45038674 L68.1917963,2.45038674 L67.8122772,5.49878453 L70.7754455,5.49878453 L71.1549646,2.45038674 L72.4248939,2.45038674 L71.5539463,9.48066298 Z M76.1665629,9.48066298 L77.032645,2.45038674 L79.290297,2.45038674 C79.6795493,2.45038674 80.0128416,2.48847107 80.2901839,2.56464088 C80.5675261,2.64081069 80.7945866,2.74858126 80.971372,2.8879558 C81.1481574,3.02733035 81.2787172,3.19587378 81.3630552,3.39359116 C81.4473932,3.59130854 81.4895615,3.81171149 81.4895615,4.05480663 C81.4895615,4.25576528 81.4628008,4.44780756 81.4092786,4.63093923 C81.3557565,4.8140709 81.2722306,4.98342464 81.1586987,5.13900552 C81.0451668,5.29458641 80.9008212,5.43395887 80.7256577,5.55712707 C80.5504942,5.68029528 80.3412742,5.7823937 80.0979915,5.86342541 C80.4969751,5.96390474 80.7937755,6.12677604 80.9884017,6.3520442 C81.1830278,6.57731236 81.2803395,6.86335002 81.2803395,7.21016575 C81.2803395,7.5342926 81.2203306,7.83491574 81.1003112,8.1120442 C80.9802917,8.38917266 80.8067527,8.62902293 80.5796888,8.83160221 C80.352625,9.03418149 80.0760978,9.19300127 79.750099,9.3080663 C79.4241002,9.42313133 79.055127,9.48066298 78.6431683,9.48066298 L76.1665629,9.48066298 Z M77.8062801,6.38364641 L77.5484017,8.49856354 L78.7404809,8.49856354 C78.9675447,8.49856354 79.162168,8.46777195 79.3243564,8.40618785 C79.4865449,8.34460374 79.6203484,8.25790111 79.7257709,8.14607735 C79.8311934,8.03425358 79.9090427,7.89974296 79.9593211,7.74254144 C80.0095995,7.58533991 80.0347383,7.41274495 80.0347383,7.22475138 C80.0347383,6.96869117 79.9536453,6.76449432 79.7914569,6.6121547 C79.6292684,6.45981508 79.3632833,6.38364641 78.9934936,6.38364641 L77.8062801,6.38364641 Z M77.9133239,5.51337017 L78.8475248,5.51337017 C79.2821898,5.51337017 79.617104,5.41127174 79.8522772,5.20707182 C80.0874505,5.00287191 80.2050354,4.69009419 80.2050354,4.26872928 C80.2050354,3.97377385 80.1215096,3.75904303 79.9544554,3.62453039 C79.7874013,3.49001774 79.5270928,3.42276243 79.1735219,3.42276243 L78.1712023,3.42276243 L77.9133239,5.51337017 Z M84.121867,8.43535912 L86.6811881,8.43535912 L86.5595474,9.48066298 L82.7351627,9.48066298 L83.6012447,2.45038674 L84.8614427,2.45038674 L84.121867,8.43535912 Z M94.3250919,5.49392265 C94.3250919,5.88287487 94.2821126,6.25318425 94.1961528,6.60486188 C94.1101929,6.95653951 93.9869315,7.28309242 93.8263649,7.58453039 C93.6657983,7.88596836 93.472797,8.15823083 93.247355,8.40132597 C93.0219131,8.6444211 92.7689029,8.85185918 92.4883168,9.02364641 C92.2077308,9.19543364 91.903632,9.32751335 91.5760113,9.4198895 C91.2483906,9.51226566 90.9045563,9.55845304 90.5444979,9.55845304 C90.0968577,9.55845304 89.6946364,9.47904315 89.3378218,9.32022099 C88.9810072,9.16139884 88.6769084,8.9426165 88.4255163,8.6638674 C88.1741242,8.38511831 87.9819337,8.05613449 87.8489392,7.67690608 C87.7159446,7.29767766 87.6494484,6.88604274 87.6494484,6.44198895 C87.6494484,6.05303673 87.6924277,5.68272736 87.7783876,5.33104972 C87.8643474,4.97937209 87.9876088,4.65281919 88.1481754,4.35138122 C88.308742,4.04994324 88.5017433,3.77768077 88.7271853,3.53458564 C88.9526272,3.2914905 89.2056374,3.08324212 89.4862235,2.90983425 C89.7668095,2.73642639 90.0709083,2.60353637 90.398529,2.51116022 C90.7261497,2.41878407 91.0716059,2.37259669 91.4349081,2.37259669 C91.8825482,2.37259669 92.2847696,2.45200657 92.6415842,2.61082873 C92.9983988,2.76965089 93.3016866,2.98843323 93.5514569,3.26718232 C93.8012271,3.54593141 93.9926066,3.87572554 94.1256011,4.25657459 C94.2585957,4.63742364 94.3250919,5.04986887 94.3250919,5.49392265 Z M93.0308345,5.52309392 C93.0308345,5.20544961 92.9910989,4.91698104 92.9116266,4.65767956 C92.8321542,4.39837808 92.7170022,4.17635451 92.5661669,3.99160221 C92.4153316,3.8068499 92.2312505,3.66423623 92.013918,3.56375691 C91.7965854,3.46327758 91.5516845,3.41303867 91.2792079,3.41303867 C90.9288809,3.41303867 90.6101853,3.48434551 90.3231117,3.62696133 C90.0360382,3.76957714 89.7903263,3.97215338 89.5859689,4.23469613 C89.3816114,4.49723888 89.2234801,4.81325782 89.11157,5.18276243 C88.99966,5.55226704 88.9437058,5.96228136 88.9437058,6.41281768 C88.9437058,6.73046199 88.9826304,7.01893056 89.0604809,7.27823204 C89.1383314,7.53753352 89.2518616,7.75874678 89.401075,7.94187845 C89.5502883,8.12501012 89.7327476,8.26600319 89.9484583,8.36486188 C90.1641689,8.46372057 90.4098808,8.51314917 90.6856011,8.51314917 C91.039172,8.51314917 91.3603003,8.44184233 91.6489958,8.29922652 C91.9376912,8.1566107 92.184214,7.95565507 92.3885714,7.69635359 C92.5929289,7.43705211 92.7510603,7.12346409 92.8629703,6.75558011 C92.9748803,6.38769613 93.0308345,5.97687151 93.0308345,5.52309392 Z M98.4414144,8.48883978 C98.6392843,8.48883978 98.8120125,8.47344398 98.959604,8.44265193 C99.1071955,8.41185988 99.2353224,8.37215494 99.3439887,8.32353591 C99.452655,8.27491688 99.5459119,8.22386767 99.6237624,8.17038674 C99.7016128,8.11690581 99.769731,8.0658566 99.8281188,8.01723757 C99.8865067,7.96861854 99.9384062,7.9289136 99.983819,7.89812155 C100.029232,7.8673295 100.074644,7.8519337 100.120057,7.8519337 C100.158982,7.8519337 100.191419,7.86003675 100.217369,7.87624309 C100.243319,7.89244944 100.264404,7.90865554 100.280622,7.92486188 L100.723395,8.47425414 C100.41848,8.82431114 100.060049,9.09252209 99.6480905,9.27889503 C99.2361318,9.46526797 98.7625486,9.55845304 98.2273267,9.55845304 C97.7959054,9.55845304 97.4115246,9.48147407 97.0741726,9.32751381 C96.7368206,9.17355356 96.4513732,8.96044335 96.2178218,8.6881768 C95.9842704,8.41591024 95.8066767,8.09340886 95.6850354,7.72066298 C95.563394,7.3479171 95.5025743,6.94114401 95.5025743,6.50033149 C95.5025743,6.09517293 95.5463645,5.71189868 95.6339463,5.35049724 C95.721528,4.9890958 95.8464113,4.65525015 96.0085997,4.34895028 C96.1707882,4.0426504 96.3654114,3.76795702 96.5924752,3.52486188 C96.8195391,3.28176674 97.0709274,3.07432867 97.3466478,2.90254144 C97.6223682,2.73075421 97.9199795,2.5994848 98.2394908,2.50872928 C98.5590021,2.41797376 98.8922944,2.37259669 99.2393777,2.37259669 C99.4956354,2.37259669 99.7291833,2.39609553 99.9400283,2.44309392 C100.150873,2.49009232 100.342253,2.55572702 100.514173,2.64 C100.686092,2.72427298 100.840169,2.8255611 100.976407,2.9438674 C101.112646,3.0621737 101.235907,3.19425341 101.346195,3.3401105 L100.908289,3.86519337 C100.875851,3.90408859 100.837737,3.9381214 100.793946,3.96729282 C100.750155,3.99646423 100.695823,4.01104972 100.630948,4.01104972 C100.559585,4.01104972 100.491467,3.98187874 100.426591,3.92353591 C100.361716,3.86519308 100.279812,3.80117899 100.180877,3.73149171 C100.081942,3.66180444 99.953815,3.59779035 99.7964922,3.53944751 C99.6391694,3.48110468 99.4323822,3.4519337 99.1761245,3.4519337 C98.8387725,3.4519337 98.5257534,3.52080962 98.237058,3.65856354 C97.9483625,3.79631745 97.6969742,3.99322156 97.4828854,4.24928177 C97.2687967,4.50534198 97.1009341,4.81406817 96.9792928,5.17546961 C96.8576514,5.53687105 96.7968317,5.94283384 96.7968317,6.39337017 C96.7968317,6.72073829 96.8381891,7.01406869 96.9209052,7.27337017 C97.0036213,7.53267165 97.1179625,7.75226429 97.2639321,7.9321547 C97.4099017,8.1120451 97.5834408,8.24979694 97.7845545,8.34541436 C97.9856681,8.44103179 98.2046193,8.48883978 98.4414144,8.48883978 Z M103.876322,5.42099448 L104.148798,5.42099448 C104.26233,5.42099448 104.35883,5.40397807 104.438303,5.36994475 C104.517775,5.33591143 104.589948,5.28000039 104.654823,5.20220994 L106.688656,2.72265193 C106.772994,2.61893134 106.862197,2.5476245 106.956266,2.50872928 C107.050335,2.46983406 107.160622,2.45038674 107.287129,2.45038674 L108.372164,2.45038674 L105.880962,5.3918232 C105.806355,5.47933745 105.734182,5.55388551 105.664441,5.61546961 C105.5947,5.67705371 105.520906,5.72567201 105.443055,5.76132597 C105.540368,5.80022119 105.623894,5.85370132 105.693635,5.92176796 C105.763376,5.98983459 105.82744,6.07896814 105.885827,6.18917127 L107.671513,9.48066298 L106.56215,9.48066298 C106.487543,9.48066298 106.424291,9.47499085 106.37239,9.46364641 C106.32049,9.45230197 106.275889,9.43609587 106.238586,9.41502762 C106.201282,9.39395938 106.170467,9.36802962 106.146139,9.33723757 C106.12181,9.30644552 106.099915,9.2716024 106.080453,9.23270718 L104.630495,6.6121547 C104.585082,6.52788171 104.526695,6.46710884 104.455332,6.42983425 C104.383969,6.39255967 104.278549,6.37392265 104.139066,6.37392265 L103.759547,6.37392265 L103.375163,9.48066298 L102.11983,9.48066298 L102.981047,2.44552486 L104.24611,2.44552486 L103.876322,5.42099448 Z" id="BITCOIN-CASH-BLOCK"></path>
                </g>
            </g>
        </g>
    </g>
</svg>