<svg width="107" height="35" xmlns="http://www.w3.org/2000/svg"><g fill="#629D1F" fill-rule="evenodd"><path d="M.002 34.436V14.221h9.08v2.246H2.63v6.272h5.839v2.188h-5.84v7.263h6.92v2.246H.002zM17.256 21.63l3.474-7.41h2.628l-4.613 9.394c.409.875.842 1.784 1.299 2.727.457.944.905 1.887 1.343 2.83.438.943.851 1.862 1.24 2.757.39.894.73 1.73 1.022 2.508h-2.598a56.77 56.77 0 0 0-.744-1.91 42.807 42.807 0 0 0-.934-2.115c-.341-.72-.691-1.454-1.051-2.203-.36-.748-.716-1.473-1.066-2.173-.35.7-.71 1.425-1.08 2.173-.37.75-.72 1.483-1.051 2.203-.331.72-.638 1.424-.92 2.115-.282.69-.52 1.327-.715 1.91h-2.54a36.11 36.11 0 0 1 .993-2.45c.389-.875.798-1.775 1.226-2.698.428-.924.861-1.853 1.299-2.786.438-.934.861-1.828 1.27-2.684l-4.671-9.597h2.686l3.503 7.41zm8.933-7.118a16.925 16.925 0 0 1 4-.495c1.012 0 1.932.121 2.759.364s1.537.623 2.13 1.138c.594.515 1.052 1.181 1.373 1.998.321.817.482 1.799.482 2.946 0 1.167-.166 2.164-.497 2.99-.33.827-.798 1.498-1.401 2.013-.603.516-1.328.89-2.175 1.123-.847.234-1.786.35-2.817.35h-1.226v7.497h-2.628V14.512zm2.628 10.123h1.05c.662 0 1.26-.073 1.796-.219a3.304 3.304 0 0 0 1.358-.715c.37-.33.652-.758.846-1.283.195-.525.292-1.177.292-1.955 0-.777-.097-1.434-.292-1.969-.194-.534-.462-.962-.803-1.283-.34-.321-.754-.55-1.24-.686a5.947 5.947 0 0 0-1.606-.204c-.506 0-.973.03-1.401.088v8.226zM48.93 32.19v2.246h-9.02V14.221h2.627v17.97h6.393zM64.2 24.343c0 1.575-.141 3.01-.424 4.303-.282 1.293-.72 2.402-1.313 3.325-.594.924-1.343 1.639-2.248 2.145-.905.505-1.97.758-3.197.758-1.226 0-2.292-.253-3.197-.758-.905-.506-1.654-1.22-2.248-2.145-.593-.923-1.036-2.032-1.328-3.325-.292-1.293-.438-2.728-.438-4.303 0-1.575.146-3.014.438-4.317.292-1.303.735-2.416 1.328-3.34.594-.924 1.343-1.644 2.248-2.159.905-.515 1.97-.773 3.197-.773 1.226 0 2.292.258 3.197.773.905.515 1.654 1.235 2.248 2.159.593.924 1.031 2.037 1.313 3.34.283 1.303.424 2.742.424 4.317zm-2.803 0c0-1.225-.078-2.343-.234-3.354-.155-1.012-.408-1.882-.759-2.611-.35-.73-.802-1.298-1.357-1.707-.555-.408-1.231-.612-2.03-.612-.797 0-1.473.204-2.028.612-.555.409-1.007.977-1.358 1.707-.35.729-.608 1.6-.773 2.61a20.858 20.858 0 0 0-.248 3.355c0 1.225.082 2.344.248 3.355.165 1.011.423 1.877.773 2.596.35.72.803 1.279 1.358 1.677.555.4 1.231.599 2.029.599.798 0 1.474-.2 2.029-.599.555-.398 1.007-.957 1.357-1.677.35-.72.604-1.585.76-2.596.155-1.011.233-2.13.233-3.355zm6.452-9.83a16.699 16.699 0 0 1 3.941-.496c1.012 0 1.927.116 2.744.35.818.233 1.518.603 2.102 1.108.584.506 1.037 1.157 1.358 1.955.32.797.481 1.76.481 2.888 0 1.4-.267 2.533-.802 3.398a5.187 5.187 0 0 1-2.175 1.97 47.015 47.015 0 0 1 2 3.807c.379.806.749 1.637 1.109 2.493.36.856.666 1.673.92 2.45h-2.628a37.212 37.212 0 0 0-.803-1.983 63.91 63.91 0 0 0-1.007-2.203c-.35-.729-.7-1.429-1.051-2.1-.35-.67-.662-1.24-.934-1.706-.312.038-.633.068-.964.087-.33.02-.661.03-.992.03h-.73v7.875h-2.57V14.512zm2.569 9.889h1.11c1.342 0 2.374-.307 3.094-.92.72-.612 1.08-1.667 1.08-3.164 0-.759-.092-1.396-.277-1.911-.185-.516-.448-.924-.789-1.225-.34-.302-.749-.52-1.226-.657a5.788 5.788 0 0 0-1.59-.204c-.507 0-.974.03-1.402.088v7.993zm11.999 10.034V14.221h9.079v2.246h-6.452v6.272h5.839v2.188h-5.839v7.263h6.919v2.246h-9.546zM95.29 14.512a16.699 16.699 0 0 1 3.941-.495c1.012 0 1.927.116 2.744.35.818.233 1.518.603 2.102 1.108.584.506 1.037 1.157 1.358 1.955.32.797.482 1.76.482 2.888 0 1.4-.268 2.533-.803 3.398a5.187 5.187 0 0 1-2.175 1.97 47.016 47.016 0 0 1 2 3.807c.379.806.749 1.637 1.109 2.493.36.856.666 1.673.92 2.45h-2.628a37.213 37.213 0 0 0-.803-1.983 63.907 63.907 0 0 0-1.007-2.203c-.35-.729-.7-1.429-1.05-2.1-.351-.67-.663-1.24-.935-1.706-.312.038-.633.068-.964.087-.33.02-.661.03-.992.03h-.73v7.875h-2.569V14.512zm2.569 9.89h1.11c1.342 0 2.374-.307 3.094-.92.72-.612 1.08-1.667 1.08-3.164 0-.759-.092-1.396-.277-1.911-.185-.516-.448-.924-.788-1.225-.341-.302-.75-.52-1.227-.657a5.788 5.788 0 0 0-1.59-.204c-.507 0-.974.03-1.402.088v7.993zM.567 7.696l.866-7.03h2.258c.389 0 .722.038 1 .114.277.076.504.184.68.323.177.14.308.308.392.506.085.198.127.418.127.661 0 .201-.027.393-.08.576a1.633 1.633 0 0 1-.251.508 1.838 1.838 0 0 1-.433.419 2.408 2.408 0 0 1-.628.306c.4.1.696.263.89.489.195.225.293.51.293.858 0 .324-.06.624-.18.902a2.04 2.04 0 0 1-.521.72 2.458 2.458 0 0 1-.83.476 3.313 3.313 0 0 1-1.106.172H.567zM2.207 4.6l-.258 2.115H3.14c.227 0 .422-.03.584-.092.162-.062.296-.149.401-.26.106-.112.183-.247.234-.404.05-.157.075-.33.075-.518 0-.256-.081-.46-.243-.612-.162-.153-.428-.229-.798-.229H2.207zm.107-.87h.934c.435 0 .77-.102 1.005-.306.235-.205.352-.517.352-.939 0-.295-.083-.51-.25-.644-.167-.135-.428-.202-.781-.202H2.572l-.258 2.09zm6.233 3.967h-1.27l.86-7.03h1.27l-.86 7.03zm7.6-7.03L16.015 1.7h-1.927l-.74 5.995h-1.254l.734-5.995h-1.931l.126-1.035h5.124zm3.182 6.038c.198 0 .37-.015.518-.046a1.777 1.777 0 0 0 .664-.272c.078-.054.146-.105.204-.153a2.03 2.03 0 0 1 .156-.12.241.241 0 0 1 .136-.046.18.18 0 0 1 .098.025.357.357 0 0 1 .063.048l.443.55c-.305.35-.664.618-1.076.804-.412.187-.885.28-1.42.28-.432 0-.816-.077-1.153-.231a2.456 2.456 0 0 1-.857-.64 2.802 2.802 0 0 1-.533-.967 3.914 3.914 0 0 1-.182-1.22c0-.405.044-.789.131-1.15a4.29 4.29 0 0 1 .375-1.002c.162-.306.357-.58.584-.824.227-.243.478-.45.754-.622s.573-.303.893-.394a3.642 3.642 0 0 1 1.7-.065c.211.047.403.112.575.196.171.085.326.186.462.304.136.119.26.25.37.397l-.438.525a.531.531 0 0 1-.115.102.303.303 0 0 1-.367-.044 2.678 2.678 0 0 0-.246-.192 1.693 1.693 0 0 0-.384-.192 1.82 1.82 0 0 0-.62-.088 2.152 2.152 0 0 0-1.694.798 2.838 2.838 0 0 0-.503.926 3.805 3.805 0 0 0-.183 1.218c0 .327.042.62.124.88.083.26.197.479.343.659a1.487 1.487 0 0 0 1.178.556zm10.34-2.995c0 .39-.044.76-.13 1.111a4.19 4.19 0 0 1-.37.98c-.16.301-.353.574-.579.817a3.58 3.58 0 0 1-1.67 1.018 3.783 3.783 0 0 1-1.032.139c-.448 0-.85-.08-1.207-.238a2.679 2.679 0 0 1-.912-.657 2.876 2.876 0 0 1-.577-.987c-.133-.379-.2-.79-.2-1.235 0-.388.044-.759.13-1.11a4.19 4.19 0 0 1 .37-.98c.16-.302.353-.574.578-.817A3.567 3.567 0 0 1 25.741.727a3.802 3.802 0 0 1 1.037-.139c.448 0 .85.08 1.207.238.357.16.66.378.91.657.25.278.44.608.574.989.133.38.2.793.2 1.237zm-1.295.03c0-.318-.04-.607-.12-.866a1.938 1.938 0 0 0-.345-.666 1.536 1.536 0 0 0-.552-.428 1.73 1.73 0 0 0-.735-.15c-.35 0-.669.07-.956.213a2.123 2.123 0 0 0-.737.608 2.89 2.89 0 0 0-.474.948c-.112.37-.168.78-.168 1.23 0 .318.039.606.117.866.077.259.191.48.34.663.15.183.332.324.548.423.215.1.461.149.737.149.353 0 .674-.072.963-.214.289-.143.535-.344.74-.603.204-.26.362-.573.474-.94.112-.369.168-.78.168-1.233zm3.863 3.957h-1.27l.862-7.03h1.27l-.862 7.03zm3.669-7.03a1.1 1.1 0 0 1 .139.007c.037.005.07.015.1.03.029.014.055.034.077.06a.67.67 0 0 1 .073.107l2.74 4.799a12.635 12.635 0 0 1 .048-.525l.55-4.478h1.114l-.87 7.03h-.648a.6.6 0 0 1-.248-.046.373.373 0 0 1-.17-.173L36.086 2.68a41.148 41.148 0 0 1-.039.432l-.555 4.585h-1.114l.866-7.03h.662zm11.541 6.038c.198 0 .37-.015.518-.046a1.777 1.777 0 0 0 .664-.272c.078-.054.147-.105.205-.153a2.03 2.03 0 0 1 .156-.12.241.241 0 0 1 .136-.046.18.18 0 0 1 .097.025.357.357 0 0 1 .063.048l.443.55c-.305.35-.663.618-1.075.804-.412.187-.886.28-1.42.28-.432 0-.817-.077-1.154-.231a2.456 2.456 0 0 1-.856-.64 2.802 2.802 0 0 1-.533-.967 3.914 3.914 0 0 1-.183-1.22c0-.405.044-.789.132-1.15a4.29 4.29 0 0 1 .374-1.002c.163-.306.357-.58.584-.824.227-.243.479-.45.754-.622.276-.172.574-.303.893-.394a3.642 3.642 0 0 1 1.7-.065c.212.047.403.112.575.196.172.085.326.186.462.304.136.119.26.25.37.397l-.438.525a.531.531 0 0 1-.114.102.303.303 0 0 1-.367-.044 2.678 2.678 0 0 0-.246-.192 1.693 1.693 0 0 0-.385-.192 1.82 1.82 0 0 0-.62-.088 2.152 2.152 0 0 0-1.693.798 2.838 2.838 0 0 0-.504.926 3.805 3.805 0 0 0-.182 1.218c0 .327.041.62.124.88.082.26.197.479.343.659a1.487 1.487 0 0 0 1.177.556zm9.323.992h-.978a.41.41 0 0 1-.263-.078.336.336 0 0 1-.122-.209l-.292-1.468h-2.622l-.652 1.468a.53.53 0 0 1-.175.2.455.455 0 0 1-.273.087h-.992l3.4-7.03h1.29l1.679 7.03zm-3.883-2.645h2.048l-.476-2.406c-.026-.117-.052-.24-.078-.37a7.668 7.668 0 0 1-.073-.437 10.27 10.27 0 0 1-.35.812L52.886 5.05zm9.386-3.121a.556.556 0 0 1-.136.143.288.288 0 0 1-.166.047.331.331 0 0 1-.2-.078 5.122 5.122 0 0 0-.243-.173 1.825 1.825 0 0 0-.333-.172 1.239 1.239 0 0 0-.465-.078c-.178 0-.335.026-.472.078a.98.98 0 0 0-.343.213.888.888 0 0 0-.209.321c-.047.124-.07.256-.07.4 0 .148.038.272.114.371.076.099.176.186.3.26.122.075.264.141.423.2.158.058.32.12.484.184.163.065.325.14.484.224.159.084.3.188.423.311s.223.271.3.445c.076.173.114.383.114.63 0 .343-.06.667-.178.972a2.36 2.36 0 0 1-1.319 1.344 2.704 2.704 0 0 1-1.068.202 2.786 2.786 0 0 1-1.162-.253 2.615 2.615 0 0 1-.487-.292 2.16 2.16 0 0 1-.39-.379l.448-.603a.42.42 0 0 1 .137-.112.351.351 0 0 1 .165-.043.28.28 0 0 1 .153.048c.05.033.106.072.166.12.06.046.125.098.194.155.07.057.15.109.241.156s.193.086.307.119c.113.032.245.048.394.048.366 0 .654-.103.861-.31.208-.208.312-.495.312-.861a.666.666 0 0 0-.112-.399.936.936 0 0 0-.297-.263 2.375 2.375 0 0 0-.419-.187c-.155-.053-.315-.11-.479-.17a4.33 4.33 0 0 1-.48-.209 1.618 1.618 0 0 1-.418-.306 1.404 1.404 0 0 1-.296-.46 1.77 1.77 0 0 1-.112-.67 2.315 2.315 0 0 1 .647-1.608 2.34 2.34 0 0 1 .756-.51 2.513 2.513 0 0 1 1.005-.192c.192 0 .376.02.552.058.177.04.342.094.494.166.153.07.293.156.421.255s.24.208.333.328l-.374.53zm6.831 5.766h-1.27l.38-3.087h-2.959l-.38 3.087h-1.269l.866-7.03h1.27l-.38 3.048h2.964l.38-3.048h1.27l-.872 7.03zm4.613 0l.866-7.03h2.258c.389 0 .722.038 1 .114.277.076.504.184.68.323.177.14.308.308.392.506.085.198.127.418.127.661 0 .201-.027.393-.08.576a1.633 1.633 0 0 1-.251.508 1.838 1.838 0 0 1-.433.419 2.408 2.408 0 0 1-.628.306c.4.1.696.263.89.489.195.225.293.51.293.858 0 .324-.06.624-.18.902a2.04 2.04 0 0 1-.521.72 2.458 2.458 0 0 1-.83.476 3.313 3.313 0 0 1-1.107.172h-2.476zm1.64-3.097l-.258 2.115h1.192c.227 0 .421-.03.584-.092.162-.062.296-.149.401-.26.105-.112.183-.247.234-.404.05-.157.075-.33.075-.518 0-.256-.081-.46-.243-.612-.163-.153-.429-.229-.798-.229h-1.188zm.107-.87h.934c.434 0 .77-.102 1.004-.306.236-.205.353-.517.353-.939 0-.295-.083-.51-.25-.644-.167-.135-.428-.202-.781-.202H75.72l-.257 2.09zm6.208 2.922h2.56l-.122 1.045h-3.825l.866-7.03h1.26l-.739 5.985zm10.203-2.942c0 .39-.043.76-.129 1.111a4.19 4.19 0 0 1-.37.98c-.16.301-.353.574-.578.817a3.58 3.58 0 0 1-1.672 1.018 3.783 3.783 0 0 1-1.031.139c-.448 0-.85-.08-1.207-.238a2.679 2.679 0 0 1-.912-.657 2.876 2.876 0 0 1-.577-.987c-.133-.379-.2-.79-.2-1.235 0-.388.044-.759.13-1.11a4.19 4.19 0 0 1 .37-.98c.16-.302.353-.574.578-.817A3.567 3.567 0 0 1 87.948.727a3.802 3.802 0 0 1 1.037-.139c.448 0 .85.08 1.207.238.357.16.66.378.91.657.25.278.44.608.574.989.133.38.2.793.2 1.237zm-1.294.03c0-.318-.04-.607-.12-.866a1.938 1.938 0 0 0-.345-.666 1.536 1.536 0 0 0-.552-.428 1.73 1.73 0 0 0-.735-.15c-.35 0-.669.07-.956.213a2.123 2.123 0 0 0-.737.608 2.89 2.89 0 0 0-.474.948c-.112.37-.168.78-.168 1.23 0 .318.039.606.117.866.078.259.191.48.34.663.15.183.332.324.548.423.215.1.461.149.737.149.353 0 .675-.072.963-.214.289-.143.535-.344.74-.603.204-.26.362-.573.474-.94.112-.369.168-.78.168-1.233zm5.41 2.965c.198 0 .371-.015.519-.046a1.777 1.777 0 0 0 .664-.272c.078-.054.146-.105.204-.153a2.03 2.03 0 0 1 .156-.12.241.241 0 0 1 .136-.046.18.18 0 0 1 .098.025.357.357 0 0 1 .063.048l.443.55c-.305.35-.664.618-1.076.804-.412.187-.885.28-1.42.28-.432 0-.816-.077-1.154-.231a2.456 2.456 0 0 1-.856-.64 2.802 2.802 0 0 1-.533-.967 3.914 3.914 0 0 1-.182-1.22c0-.405.044-.789.131-1.15a4.29 4.29 0 0 1 .375-1.002c.162-.306.357-.58.584-.824.227-.243.478-.45.754-.622s.573-.303.893-.394a3.642 3.642 0 0 1 1.7-.065c.211.047.402.112.574.196.172.085.326.186.463.304.136.119.26.25.37.397l-.438.525a.531.531 0 0 1-.115.102.303.303 0 0 1-.367-.044 2.678 2.678 0 0 0-.246-.192 1.693 1.693 0 0 0-.384-.192 1.82 1.82 0 0 0-.62-.088 2.152 2.152 0 0 0-1.694.798 2.838 2.838 0 0 0-.503.926 3.805 3.805 0 0 0-.183 1.218c0 .327.041.62.124.88.083.26.197.479.343.659a1.487 1.487 0 0 0 1.178.556zm5.436-3.068h.272c.114 0 .21-.017.29-.05a.582.582 0 0 0 .216-.168l2.034-2.48a.697.697 0 0 1 .267-.214.862.862 0 0 1 .331-.058h1.085l-2.49 2.941a2.218 2.218 0 0 1-.217.224.902.902 0 0 1-.222.146c.098.039.181.092.25.16.07.068.135.157.193.268l1.786 3.291h-1.11a.904.904 0 0 1-.19-.017.48.48 0 0 1-.133-.049.31.31 0 0 1-.093-.077.604.604 0 0 1-.065-.105l-1.45-2.62a.424.424 0 0 0-.175-.183.703.703 0 0 0-.317-.056h-.38l-.384 3.107H99.67l.861-7.035h1.265l-.37 2.975z"/></g></svg>