<svg width="703" height="180" xmlns="http://www.w3.org/2000/svg"><g fill="#629D1F" fill-rule="evenodd"><path d="M179.734 38.46a7.195 7.195 0 0 0-.544-1.421c-.042-.076-.088-.15-.13-.228a7.261 7.261 0 0 0-.854-1.22c-.026-.03-.044-.064-.072-.094a7.344 7.344 0 0 0-1.186-1.036c-.046-.034-.08-.08-.128-.114-.042-.026-.088-.038-.126-.064a7.104 7.104 0 0 0-1.244-.662L92.69.519a7.226 7.226 0 0 0-5.378 0L4.552 33.623a7.104 7.104 0 0 0-1.244.662c-.04.028-.086.04-.126.064-.048.034-.082.08-.128.114a7.154 7.154 0 0 0-1.186 1.036c-.028.028-.048.062-.074.092-.328.376-.61.788-.854 1.22-.042.078-.09.152-.13.228a7.195 7.195 0 0 0-.544 1.422c-.028.1-.046.2-.07.3A7.07 7.07 0 0 0 0 40.347v99.307a7.24 7.24 0 0 0 4.552 6.724l82.758 33.104c.074.032.152.04.226.066.284.102.568.184.86.252.124.028.244.06.368.082.41.072.822.118 1.236.118.414 0 .826-.046 1.236-.118.124-.022.244-.054.368-.082.292-.068.576-.15.86-.252.074-.028.152-.036.226-.066l82.758-33.104a7.238 7.238 0 0 0 4.552-6.724V40.347c0-.544-.078-1.07-.196-1.584-.022-.102-.042-.202-.07-.302zM90.5 66L27 40.501 90.5 15 154 40.501 90.5 66zm74.5 68.697L97 162V78.305L165 51v83.697z" fill-rule="nonzero"/><path d="M263.08 154V70.84h37.32v9.24h-26.52v25.8h24v9h-24v29.88h28.44V154h-39.24zM334 101.32l14.28-30.48h10.8l-18.96 38.64c1.68 3.6 3.46 7.34 5.34 11.22 1.88 3.88 3.72 7.76 5.52 11.64 1.8 3.88 3.5 7.66 5.1 11.34 1.6 3.68 3 7.12 4.2 10.32H349.6c-.88-2.4-1.9-5.02-3.06-7.86a176.16 176.16 0 0 0-3.84-8.7c-1.4-2.96-2.84-5.98-4.32-9.06-1.48-3.08-2.94-6.06-4.38-8.94-1.44 2.88-2.92 5.86-4.44 8.94-1.52 3.08-2.96 6.1-4.32 9.06-1.36 2.96-2.62 5.86-3.78 8.7-1.16 2.84-2.14 5.46-2.94 7.86h-10.44c1.12-3.12 2.48-6.48 4.08-10.08 1.6-3.6 3.28-7.3 5.04-11.1 1.76-3.8 3.54-7.62 5.34-11.46 1.8-3.84 3.54-7.52 5.22-11.04l-19.2-39.48h11.04l14.4 30.48zm36.72-29.28c5.6-1.36 11.08-2.04 16.44-2.04 4.16 0 7.94.5 11.34 1.5 3.4 1 6.32 2.56 8.76 4.68 2.44 2.12 4.32 4.86 5.64 8.22 1.32 3.36 1.98 7.4 1.98 12.12 0 4.8-.68 8.9-2.04 12.3-1.36 3.4-3.28 6.16-5.76 8.28-2.48 2.12-5.46 3.66-8.94 4.62-3.48.96-7.34 1.44-11.58 1.44h-5.04V154h-10.8V72.04zm10.8 41.64h4.32c2.72 0 5.18-.3 7.38-.9 2.2-.6 4.06-1.58 5.58-2.94 1.52-1.36 2.68-3.12 3.48-5.28.8-2.16 1.2-4.84 1.2-8.04 0-3.2-.4-5.9-1.2-8.1-.8-2.2-1.9-3.96-3.3-5.28-1.4-1.32-3.1-2.26-5.1-2.82-2-.56-4.2-.84-6.6-.84-2.08 0-4 .12-5.76.36v33.84zm82.68 31.08V154h-37.08V70.84h10.8v73.92h26.28zm62.76-32.28c0 6.48-.58 12.38-1.74 17.7-1.16 5.32-2.96 9.88-5.4 13.68-2.44 3.8-5.52 6.74-9.24 8.82-3.72 2.08-8.1 3.12-13.14 3.12-5.04 0-9.42-1.04-13.14-3.12-3.72-2.08-6.8-5.02-9.24-8.82-2.44-3.8-4.26-8.36-5.46-13.68-1.2-5.32-1.8-11.22-1.8-17.7 0-6.48.6-12.4 1.8-17.76 1.2-5.36 3.02-9.94 5.46-13.74 2.44-3.8 5.52-6.76 9.24-8.88 3.72-2.12 8.1-3.18 13.14-3.18 5.04 0 9.42 1.06 13.14 3.18 3.72 2.12 6.8 5.08 9.24 8.88 2.44 3.8 4.24 8.38 5.4 13.74 1.16 5.36 1.74 11.28 1.74 17.76zm-11.52 0c0-5.04-.32-9.64-.96-13.8-.64-4.16-1.68-7.74-3.12-10.74-1.44-3-3.3-5.34-5.58-7.02-2.28-1.68-5.06-2.52-8.34-2.52-3.28 0-6.06.84-8.34 2.52-2.28 1.68-4.14 4.02-5.58 7.02-1.44 3-2.5 6.58-3.18 10.74-.68 4.16-1.02 8.76-1.02 13.8 0 5.04.34 9.64 1.02 13.8.68 4.16 1.74 7.72 3.18 10.68 1.44 2.96 3.3 5.26 5.58 6.9 2.28 1.64 5.06 2.46 8.34 2.46 3.28 0 6.06-.82 8.34-2.46 2.28-1.64 4.14-3.94 5.58-6.9 1.44-2.96 2.48-6.52 3.12-10.68.64-4.16.96-8.76.96-13.8zm26.52-40.44c5.6-1.36 11-2.04 16.2-2.04 4.16 0 7.92.48 11.28 1.44 3.36.96 6.24 2.48 8.64 4.56 2.4 2.08 4.26 4.76 5.58 8.04 1.32 3.28 1.98 7.24 1.98 11.88 0 5.76-1.1 10.42-3.3 13.98-2.2 3.56-5.18 6.26-8.94 8.1.96 1.6 2.18 3.78 3.66 6.54 1.48 2.76 3 5.8 4.56 9.12 1.56 3.32 3.08 6.74 4.56 10.26 1.48 3.52 2.74 6.88 3.78 10.08h-10.8c-.88-2.4-1.98-5.12-3.3-8.16-1.32-3.04-2.7-6.06-4.14-9.06-1.44-3-2.88-5.88-4.32-8.64-1.44-2.76-2.72-5.1-3.84-7.02-1.28.16-2.6.28-3.96.36-1.36.08-2.72.12-4.08.12h-3V154h-10.56V72.04zm10.56 40.68h4.56c5.52 0 9.76-1.26 12.72-3.78 2.96-2.52 4.44-6.86 4.44-13.02 0-3.12-.38-5.74-1.14-7.86-.76-2.12-1.84-3.8-3.24-5.04-1.4-1.24-3.08-2.14-5.04-2.7s-4.14-.84-6.54-.84c-2.08 0-4 .12-5.76.36v32.88zM601.84 154V70.84h37.32v9.24h-26.52v25.8h24v9h-24v29.88h28.44V154h-39.24zm52.92-81.96c5.6-1.36 11-2.04 16.2-2.04 4.16 0 7.92.48 11.28 1.44 3.36.96 6.24 2.48 8.64 4.56 2.4 2.08 4.26 4.76 5.58 8.04 1.32 3.28 1.98 7.24 1.98 11.88 0 5.76-1.1 10.42-3.3 13.98-2.2 3.56-5.18 6.26-8.94 8.1.96 1.6 2.18 3.78 3.66 6.54 1.48 2.76 3 5.8 4.56 9.12 1.56 3.32 3.08 6.74 4.56 10.26 1.48 3.52 2.74 6.88 3.78 10.08h-10.8c-.88-2.4-1.98-5.12-3.3-8.16-1.32-3.04-2.7-6.06-4.14-9.06-1.44-3-2.88-5.88-4.32-8.64-1.44-2.76-2.72-5.1-3.84-7.02-1.28.16-2.6.28-3.96.36-1.36.08-2.72.12-4.08.12h-3V154h-10.56V72.04zm10.56 40.68h4.56c5.52 0 9.76-1.26 12.72-3.78 2.96-2.52 4.44-6.86 4.44-13.02 0-3.12-.38-5.74-1.14-7.86-.76-2.12-1.84-3.8-3.24-5.04-1.4-1.24-3.08-2.14-5.04-2.7s-4.14-.84-6.54-.84c-2.08 0-4 .12-5.76.36v32.88zM265.4 44l3.56-28.92h9.28c1.6 0 2.97.157 4.11.47 1.14.313 2.073.757 2.8 1.33a5.238 5.238 0 0 1 1.61 2.08c.347.813.52 1.72.52 2.72 0 .827-.11 1.617-.33 2.37a6.72 6.72 0 0 1-1.03 2.09 7.556 7.556 0 0 1-1.78 1.72c-.72.507-1.58.927-2.58 1.26 1.64.413 2.86 1.083 3.66 2.01.8.927 1.2 2.103 1.2 3.53 0 1.333-.247 2.57-.74 3.71a8.393 8.393 0 0 1-2.14 2.96c-.933.833-2.07 1.487-3.41 1.96-1.34.473-2.857.71-4.55.71H265.4zm6.74-12.74l-1.06 8.7h4.9c.933 0 1.733-.127 2.4-.38.667-.253 1.217-.61 1.65-1.07.433-.46.753-1.013.96-1.66.207-.647.31-1.357.31-2.13 0-1.053-.333-1.893-1-2.52s-1.76-.94-3.28-.94h-4.88zm.44-3.58h3.84c1.787 0 3.163-.42 4.13-1.26.967-.84 1.45-2.127 1.45-3.86 0-1.213-.343-2.097-1.03-2.65-.687-.553-1.757-.83-3.21-.83h-4.12l-1.06 8.6zM298.2 44h-5.22l3.54-28.92h5.22L298.2 44zm31.24-28.92l-.54 4.26h-7.92L317.94 44h-5.16l3.02-24.66h-7.94l.52-4.26h21.06zm13.08 24.84c.813 0 1.523-.063 2.13-.19a7.762 7.762 0 0 0 1.58-.49 7.3 7.3 0 0 0 1.15-.63c.32-.22.6-.43.84-.63s.453-.363.64-.49a.992.992 0 0 1 .56-.19c.16 0 .293.033.4.1.107.067.193.133.26.2l1.82 2.26a12.812 12.812 0 0 1-4.42 3.31c-1.693.767-3.64 1.15-5.84 1.15-1.773 0-3.353-.317-4.74-.95a10.094 10.094 0 0 1-3.52-2.63c-.96-1.12-1.69-2.447-2.19-3.98s-.75-3.207-.75-5.02c0-1.667.18-3.243.54-4.73.36-1.487.873-2.86 1.54-4.12a15.7 15.7 0 0 1 2.4-3.39c.933-1 1.967-1.853 3.1-2.56a14.276 14.276 0 0 1 3.67-1.62 14.959 14.959 0 0 1 4.11-.56c1.053 0 2.013.097 2.88.29.867.193 1.653.463 2.36.81.707.347 1.34.763 1.9 1.25a10.69 10.69 0 0 1 1.52 1.63l-1.8 2.16c-.133.16-.29.3-.47.42s-.403.18-.67.18c-.293 0-.573-.12-.84-.36a11.01 11.01 0 0 0-1.01-.79c-.407-.287-.933-.55-1.58-.79s-1.497-.36-2.55-.36c-1.387 0-2.673.283-3.86.85a9.144 9.144 0 0 0-3.1 2.43c-.88 1.053-1.57 2.323-2.07 3.81-.5 1.487-.75 3.157-.75 5.01 0 1.347.17 2.553.51 3.62.34 1.067.81 1.97 1.41 2.71.6.74 1.313 1.307 2.14 1.7.827.393 1.727.59 2.7.59zm42.5-12.32c0 1.6-.177 3.123-.53 4.57a17.247 17.247 0 0 1-1.52 4.03 15.926 15.926 0 0 1-2.38 3.36c-.927 1-1.967 1.853-3.12 2.56a14.866 14.866 0 0 1-3.75 1.63c-1.347.38-2.76.57-4.24.57-1.84 0-3.493-.327-4.96-.98a11.012 11.012 0 0 1-3.75-2.7c-1.033-1.147-1.823-2.5-2.37-4.06-.547-1.56-.82-3.253-.82-5.08 0-1.6.177-3.123.53-4.57.353-1.447.86-2.79 1.52-4.03.66-1.24 1.453-2.36 2.38-3.36.927-1 1.967-1.857 3.12-2.57a14.655 14.655 0 0 1 3.75-1.64c1.347-.38 2.767-.57 4.26-.57 1.84 0 3.493.327 4.96.98s2.713 1.553 3.74 2.7c1.027 1.147 1.813 2.503 2.36 4.07.547 1.567.82 3.263.82 5.09zm-5.32.12c0-1.307-.163-2.493-.49-3.56-.327-1.067-.8-1.98-1.42-2.74a6.313 6.313 0 0 0-2.27-1.76c-.893-.413-1.9-.62-3.02-.62-1.44 0-2.75.293-3.93.88a8.728 8.728 0 0 0-3.03 2.5c-.84 1.08-1.49 2.38-1.95 3.9-.46 1.52-.69 3.207-.69 5.06 0 1.307.16 2.493.48 3.56.32 1.067.787 1.977 1.4 2.73a6.192 6.192 0 0 0 2.25 1.74c.887.407 1.897.61 3.03.61 1.453 0 2.773-.293 3.96-.88a8.79 8.79 0 0 0 3.04-2.48c.84-1.067 1.49-2.357 1.95-3.87.46-1.513.69-3.203.69-5.07zM395.58 44h-5.22l3.54-28.92h5.22L395.58 44zm15.08-28.92c.227 0 .417.01.57.03.153.02.29.06.41.12s.227.143.32.25c.093.107.193.253.3.44l11.26 19.74c.027-.387.057-.763.09-1.13.033-.367.07-.71.11-1.03l2.26-18.42h4.58L426.98 44h-2.66c-.4 0-.74-.063-1.02-.19s-.513-.363-.7-.71l-11.2-19.74a169.394 169.394 0 0 1-.16 1.78L408.96 44h-4.58l3.56-28.92h2.72zm47.44 24.84c.813 0 1.523-.063 2.13-.19a7.762 7.762 0 0 0 1.58-.49 7.3 7.3 0 0 0 1.15-.63c.32-.22.6-.43.84-.63s.453-.363.64-.49a.992.992 0 0 1 .56-.19c.16 0 .293.033.4.1.107.067.193.133.26.2l1.82 2.26a12.812 12.812 0 0 1-4.42 3.31c-1.693.767-3.64 1.15-5.84 1.15-1.773 0-3.353-.317-4.74-.95a10.094 10.094 0 0 1-3.52-2.63c-.96-1.12-1.69-2.447-2.19-3.98s-.75-3.207-.75-5.02c0-1.667.18-3.243.54-4.73.36-1.487.873-2.86 1.54-4.12a15.7 15.7 0 0 1 2.4-3.39c.933-1 1.967-1.853 3.1-2.56a14.276 14.276 0 0 1 3.67-1.62 14.959 14.959 0 0 1 4.11-.56c1.053 0 2.013.097 2.88.29.867.193 1.653.463 2.36.81.707.347 1.34.763 1.9 1.25a10.69 10.69 0 0 1 1.52 1.63l-1.8 2.16c-.133.16-.29.3-.47.42s-.403.18-.67.18c-.293 0-.573-.12-.84-.36a11.01 11.01 0 0 0-1.01-.79c-.407-.287-.933-.55-1.58-.79s-1.497-.36-2.55-.36c-1.387 0-2.673.283-3.86.85a9.144 9.144 0 0 0-3.1 2.43c-.88 1.053-1.57 2.323-2.07 3.81-.5 1.487-.75 3.157-.75 5.01 0 1.347.17 2.553.51 3.62.34 1.067.81 1.97 1.41 2.71.6.74 1.313 1.307 2.14 1.7.827.393 1.727.59 2.7.59zM496.42 44h-4.02c-.453 0-.813-.107-1.08-.32a1.383 1.383 0 0 1-.5-.86l-1.2-6.04h-10.78l-2.68 6.04c-.147.307-.387.58-.72.82-.333.24-.707.36-1.12.36h-4.08l13.98-28.92h5.3l6.9 28.92zm-15.96-10.88h8.42l-1.96-9.9c-.107-.48-.213-.987-.32-1.52a31.567 31.567 0 0 1-.3-1.8 42.266 42.266 0 0 1-.75 1.85 31.318 31.318 0 0 1-.69 1.49l-4.4 9.88zm38.58-12.84c-.187.267-.373.463-.56.59-.187.127-.413.19-.68.19-.267 0-.54-.107-.82-.32-.28-.213-.613-.45-1-.71a7.5 7.5 0 0 0-1.37-.71c-.527-.213-1.163-.32-1.91-.32-.733 0-1.38.107-1.94.32-.56.213-1.03.507-1.41.88-.38.373-.667.813-.86 1.32a4.562 4.562 0 0 0-.29 1.64c0 .613.157 1.123.47 1.53a4.41 4.41 0 0 0 1.23 1.07c.507.307 1.087.58 1.74.82s1.317.493 1.99.76 1.337.573 1.99.92a7.247 7.247 0 0 1 1.74 1.28 5.926 5.926 0 0 1 1.23 1.83c.313.713.47 1.577.47 2.59 0 1.413-.243 2.747-.73 4a9.712 9.712 0 0 1-2.1 3.29c-.913.94-2.02 1.687-3.32 2.24-1.3.553-2.763.83-4.39.83-.84 0-1.667-.09-2.48-.27-.813-.18-1.58-.437-2.3-.77a10.747 10.747 0 0 1-2-1.2 8.884 8.884 0 0 1-1.6-1.56l1.84-2.48a1.73 1.73 0 0 1 .56-.46c.227-.12.453-.18.68-.18.213 0 .423.067.63.2.207.133.433.297.68.49.247.193.513.407.8.64.287.233.617.447.99.64s.793.357 1.26.49c.467.133 1.007.2 1.62.2 1.507 0 2.687-.427 3.54-1.28.853-.853 1.28-2.033 1.28-3.54 0-.667-.153-1.213-.46-1.64a3.848 3.848 0 0 0-1.22-1.08 9.76 9.76 0 0 0-1.72-.77c-.64-.22-1.297-.453-1.97-.7a17.79 17.79 0 0 1-1.97-.86 6.65 6.65 0 0 1-1.72-1.26c-.507-.513-.913-1.143-1.22-1.89-.307-.747-.46-1.667-.46-2.76 0-1.24.23-2.433.69-3.58a9.184 9.184 0 0 1 1.97-3.03c.853-.873 1.89-1.573 3.11-2.1 1.22-.527 2.597-.79 4.13-.79.787 0 1.543.08 2.27.24.727.16 1.403.387 2.03.68a9.203 9.203 0 0 1 1.73 1.05c.527.407.983.857 1.37 1.35l-1.54 2.18zM547.12 44h-5.22l1.56-12.7H531.3L529.74 44h-5.22l3.56-28.92h5.22l-1.56 12.54h12.18l1.56-12.54h5.22L547.12 44zm18.96 0l3.56-28.92h9.28c1.6 0 2.97.157 4.11.47 1.14.313 2.073.757 2.8 1.33a5.238 5.238 0 0 1 1.61 2.08c.347.813.52 1.72.52 2.72 0 .827-.11 1.617-.33 2.37a6.72 6.72 0 0 1-1.03 2.09 7.556 7.556 0 0 1-1.78 1.72c-.72.507-1.58.927-2.58 1.26 1.64.413 2.86 1.083 3.66 2.01.8.927 1.2 2.103 1.2 3.53 0 1.333-.247 2.57-.74 3.71a8.393 8.393 0 0 1-2.14 2.96c-.933.833-2.07 1.487-3.41 1.96-1.34.473-2.857.71-4.55.71h-10.18zm6.74-12.74l-1.06 8.7h4.9c.933 0 1.733-.127 2.4-.38.667-.253 1.217-.61 1.65-1.07.433-.46.753-1.013.96-1.66.207-.647.31-1.357.31-2.13 0-1.053-.333-1.893-1-2.52s-1.76-.94-3.28-.94h-4.88zm.44-3.58h3.84c1.787 0 3.163-.42 4.13-1.26.967-.84 1.45-2.127 1.45-3.86 0-1.213-.343-2.097-1.03-2.65-.687-.553-1.757-.83-3.21-.83h-4.12l-1.06 8.6zm25.52 12.02h10.52l-.5 4.3h-15.72l3.56-28.92h5.18l-3.04 24.62zm41.94-12.1c0 1.6-.177 3.123-.53 4.57a17.247 17.247 0 0 1-1.52 4.03 15.926 15.926 0 0 1-2.38 3.36c-.927 1-1.967 1.853-3.12 2.56a14.866 14.866 0 0 1-3.75 1.63c-1.347.38-2.76.57-4.24.57-1.84 0-3.493-.327-4.96-.98a11.012 11.012 0 0 1-3.75-2.7c-1.033-1.147-1.823-2.5-2.37-4.06-.547-1.56-.82-3.253-.82-5.08 0-1.6.177-3.123.53-4.57.353-1.447.86-2.79 1.52-4.03.66-1.24 1.453-2.36 2.38-3.36.927-1 1.967-1.857 3.12-2.57a14.655 14.655 0 0 1 3.75-1.64c1.347-.38 2.767-.57 4.26-.57 1.84 0 3.493.327 4.96.98s2.713 1.553 3.74 2.7c1.027 1.147 1.813 2.503 2.36 4.07.547 1.567.82 3.263.82 5.09zm-5.32.12c0-1.307-.163-2.493-.49-3.56-.327-1.067-.8-1.98-1.42-2.74a6.313 6.313 0 0 0-2.27-1.76c-.893-.413-1.9-.62-3.02-.62-1.44 0-2.75.293-3.93.88a8.728 8.728 0 0 0-3.03 2.5c-.84 1.08-1.49 2.38-1.95 3.9-.46 1.52-.69 3.207-.69 5.06 0 1.307.16 2.493.48 3.56.32 1.067.787 1.977 1.4 2.73a6.192 6.192 0 0 0 2.25 1.74c.887.407 1.897.61 3.03.61 1.453 0 2.773-.293 3.96-.88a8.79 8.79 0 0 0 3.04-2.48c.84-1.067 1.49-2.357 1.95-3.87.46-1.513.69-3.203.69-5.07zm22.24 12.2c.813 0 1.523-.063 2.13-.19a7.762 7.762 0 0 0 1.58-.49 7.3 7.3 0 0 0 1.15-.63c.32-.22.6-.43.84-.63s.453-.363.64-.49a.992.992 0 0 1 .56-.19c.16 0 .293.033.4.1.107.067.193.133.26.2l1.82 2.26a12.812 12.812 0 0 1-4.42 3.31c-1.693.767-3.64 1.15-5.84 1.15-1.773 0-3.353-.317-4.74-.95a10.094 10.094 0 0 1-3.52-2.63c-.96-1.12-1.69-2.447-2.19-3.98s-.75-3.207-.75-5.02c0-1.667.18-3.243.54-4.73.36-1.487.873-2.86 1.54-4.12a15.7 15.7 0 0 1 2.4-3.39c.933-1 1.967-1.853 3.1-2.56a14.276 14.276 0 0 1 3.67-1.62 14.959 14.959 0 0 1 4.11-.56c1.053 0 2.013.097 2.88.29.867.193 1.653.463 2.36.81.707.347 1.34.763 1.9 1.25a10.69 10.69 0 0 1 1.52 1.63l-1.8 2.16c-.133.16-.29.3-.47.42s-.403.18-.67.18c-.293 0-.573-.12-.84-.36a11.01 11.01 0 0 0-1.01-.79c-.407-.287-.933-.55-1.58-.79s-1.497-.36-2.55-.36c-1.387 0-2.673.283-3.86.85a9.144 9.144 0 0 0-3.1 2.43c-.88 1.053-1.57 2.323-2.07 3.81-.5 1.487-.75 3.157-.75 5.01 0 1.347.17 2.553.51 3.62.34 1.067.81 1.97 1.41 2.71.6.74 1.313 1.307 2.14 1.7.827.393 1.727.59 2.7.59zm22.34-12.62h1.12c.467 0 .863-.07 1.19-.21.327-.14.623-.37.89-.69l8.36-10.2c.347-.427.713-.72 1.1-.88.387-.16.84-.24 1.36-.24h4.46l-10.24 12.1a9.12 9.12 0 0 1-.89.92c-.287.253-.59.453-.91.6.4.16.743.38 1.03.66.287.28.55.647.79 1.1L695.58 44h-4.56c-.307 0-.567-.023-.78-.07a1.97 1.97 0 0 1-.55-.2 1.278 1.278 0 0 1-.38-.32c-.1-.127-.19-.27-.27-.43l-5.96-10.78c-.187-.347-.427-.597-.72-.75-.293-.153-.727-.23-1.3-.23h-1.56L677.92 44h-5.16l3.54-28.94h5.2l-1.52 12.24z"/></g></svg>