<svg width="440" height="139" xmlns="http://www.w3.org/2000/svg"><path d="M.08 137V53.84H37.4v9.24H10.88v25.8h24v9h-24v29.88h28.44V137H.08zM71 84.32l14.28-30.48h10.8L77.12 92.48c1.68 3.6 3.46 7.34 5.34 11.22 1.88 3.88 3.72 7.76 5.52 11.64 1.8 3.88 3.5 7.66 5.1 11.34 1.6 3.68 3 7.12 4.2 10.32H86.6c-.88-2.4-1.9-5.02-3.06-7.86a176.16 176.16 0 0 0-3.84-8.7c-1.4-2.96-2.84-5.98-4.32-9.06-1.48-3.08-2.94-6.06-4.38-8.94-1.44 2.88-2.92 5.86-4.44 8.94-1.52 3.08-2.96 6.1-4.32 9.06-1.36 2.96-2.62 5.86-3.78 8.7-1.16 2.84-2.14 5.46-2.94 7.86H45.08c1.12-3.12 2.48-6.48 4.08-10.08 1.6-3.6 3.28-7.3 5.04-11.1 1.76-3.8 3.54-7.62 5.34-11.46 1.8-3.84 3.54-7.52 5.22-11.04l-19.2-39.48H56.6L71 84.32zm36.72-29.28c5.6-1.36 11.08-2.04 16.44-2.04 4.16 0 7.94.5 11.34 1.5 3.4 1 6.32 2.56 8.76 4.68 2.44 2.12 4.32 4.86 5.64 8.22 1.32 3.36 1.98 7.4 1.98 12.12 0 4.8-.68 8.9-2.04 12.3-1.36 3.4-3.28 6.16-5.76 8.28-2.48 2.12-5.46 3.66-8.94 4.62-3.48.96-7.34 1.44-11.58 1.44h-5.04V137h-10.8V55.04zm10.8 41.64h4.32c2.72 0 5.18-.3 7.38-.9 2.2-.6 4.06-1.58 5.58-2.94 1.52-1.36 2.68-3.12 3.48-5.28.8-2.16 1.2-4.84 1.2-8.04 0-3.2-.4-5.9-1.2-8.1-.8-2.2-1.9-3.96-3.3-5.28-1.4-1.32-3.1-2.26-5.1-2.82-2-.56-4.2-.84-6.6-.84-2.08 0-4 .12-5.76.36v33.84zm82.68 31.08V137h-37.08V53.84h10.8v73.92h26.28zm62.76-32.28c0 6.48-.58 12.38-1.74 17.7-1.16 5.32-2.96 9.88-5.4 13.68-2.44 3.8-5.52 6.74-9.24 8.82-3.72 2.08-8.1 3.12-13.14 3.12-5.04 0-9.42-1.04-13.14-3.12-3.72-2.08-6.8-5.02-9.24-8.82-2.44-3.8-4.26-8.36-5.46-13.68-1.2-5.32-1.8-11.22-1.8-17.7 0-6.48.6-12.4 1.8-17.76 1.2-5.36 3.02-9.94 5.46-13.74 2.44-3.8 5.52-6.76 9.24-8.88 3.72-2.12 8.1-3.18 13.14-3.18 5.04 0 9.42 1.06 13.14 3.18 3.72 2.12 6.8 5.08 9.24 8.88 2.44 3.8 4.24 8.38 5.4 13.74 1.16 5.36 1.74 11.28 1.74 17.76zm-11.52 0c0-5.04-.32-9.64-.96-13.8-.64-4.16-1.68-7.74-3.12-10.74-1.44-3-3.3-5.34-5.58-7.02-2.28-1.68-5.06-2.52-8.34-2.52-3.28 0-6.06.84-8.34 2.52-2.28 1.68-4.14 4.02-5.58 7.02-1.44 3-2.5 6.58-3.18 10.74-.68 4.16-1.02 8.76-1.02 13.8 0 5.04.34 9.64 1.02 13.8.68 4.16 1.74 7.72 3.18 10.68 1.44 2.96 3.3 5.26 5.58 6.9 2.28 1.64 5.06 2.46 8.34 2.46 3.28 0 6.06-.82 8.34-2.46 2.28-1.64 4.14-3.94 5.58-6.9 1.44-2.96 2.48-6.52 3.12-10.68.64-4.16.96-8.76.96-13.8zm26.52-40.44c5.6-1.36 11-2.04 16.2-2.04 4.16 0 7.92.48 11.28 1.44 3.36.96 6.24 2.48 8.64 4.56 2.4 2.08 4.26 4.76 5.58 8.04 1.32 3.28 1.98 7.24 1.98 11.88 0 5.76-1.1 10.42-3.3 13.98-2.2 3.56-5.18 6.26-8.94 8.1.96 1.6 2.18 3.78 3.66 6.54 1.48 2.76 3 5.8 4.56 9.12 1.56 3.32 3.08 6.74 4.56 10.26 1.48 3.52 2.74 6.88 3.78 10.08h-10.8c-.88-2.4-1.98-5.12-3.3-8.16-1.32-3.04-2.7-6.06-4.14-9.06-1.44-3-2.88-5.88-4.32-8.64-1.44-2.76-2.72-5.1-3.84-7.02-1.28.16-2.6.28-3.96.36-1.36.08-2.72.12-4.08.12h-3V137h-10.56V55.04zm10.56 40.68h4.56c5.52 0 9.76-1.26 12.72-3.78 2.96-2.52 4.44-6.86 4.44-13.02 0-3.12-.38-5.74-1.14-7.86-.76-2.12-1.84-3.8-3.24-5.04-1.4-1.24-3.08-2.14-5.04-2.7s-4.14-.84-6.54-.84c-2.08 0-4 .12-5.76.36v32.88zM338.84 137V53.84h37.32v9.24h-26.52v25.8h24v9h-24v29.88h28.44V137h-39.24zm52.92-81.96c5.6-1.36 11-2.04 16.2-2.04 4.16 0 7.92.48 11.28 1.44 3.36.96 6.24 2.48 8.64 4.56 2.4 2.08 4.26 4.76 5.58 8.04 1.32 3.28 1.98 7.24 1.98 11.88 0 5.76-1.1 10.42-3.3 13.98-2.2 3.56-5.18 6.26-8.94 8.1.96 1.6 2.18 3.78 3.66 6.54 1.48 2.76 3 5.8 4.56 9.12 1.56 3.32 3.08 6.74 4.56 10.26 1.48 3.52 2.74 6.88 3.78 10.08h-10.8c-.88-2.4-1.98-5.12-3.3-8.16-1.32-3.04-2.7-6.06-4.14-9.06-1.44-3-2.88-5.88-4.32-8.64-1.44-2.76-2.72-5.1-3.84-7.02-1.28.16-2.6.28-3.96.36-1.36.08-2.72.12-4.08.12h-3V137h-10.56V55.04zm10.56 40.68V62.84c1.76-.24 3.68-.36 5.76-.36 2.4 0 4.58.28 6.54.84 1.96.56 3.64 1.46 5.04 2.7 1.4 1.24 2.48 2.92 3.24 5.04.76 2.12 1.14 4.74 1.14 7.86 0 6.16-1.48 10.5-4.44 13.02-2.96 2.52-7.2 3.78-12.72 3.78h-4.56zM2.26 27L5.464.972h8.352c1.44 0 2.673.141 3.699.423 1.026.282 1.866.681 2.52 1.197a4.714 4.714 0 0 1 1.449 1.872c.312.732.468 1.548.468 2.448a7.57 7.57 0 0 1-.297 2.133 6.048 6.048 0 0 1-.927 1.881 6.8 6.8 0 0 1-1.602 1.548c-.648.456-1.422.834-2.322 1.134 1.476.372 2.574.975 3.294 1.809.72.834 1.08 1.893 1.08 3.177 0 1.2-.222 2.313-.666 3.339a7.554 7.554 0 0 1-1.926 2.664c-.84.75-1.863 1.338-3.069 1.764-1.206.426-2.571.639-4.095.639H2.26zm6.066-11.466l-.954 7.83h4.41c.84 0 1.56-.114 2.16-.342.6-.228 1.095-.549 1.485-.963.39-.414.678-.912.864-1.494a6.27 6.27 0 0 0 .279-1.917c0-.948-.3-1.704-.9-2.268-.6-.564-1.584-.846-2.952-.846H8.326zm.396-3.222h3.456c1.608 0 2.847-.378 3.717-1.134.87-.756 1.305-1.914 1.305-3.474 0-1.092-.309-1.887-.927-2.385-.618-.498-1.581-.747-2.889-.747H9.676l-.954 7.74zM31.78 27h-4.698L30.268.972h4.698L31.78 27zM59.896.972l-.486 3.834h-7.128L49.546 27h-4.644L47.62 4.806h-7.146l.468-3.834h18.954zm11.772 22.356c.732 0 1.371-.057 1.917-.171a6.986 6.986 0 0 0 1.422-.441 6.57 6.57 0 0 0 1.035-.567c.288-.198.54-.387.756-.567.216-.18.408-.327.576-.441a.893.893 0 0 1 .504-.171c.144 0 .264.03.36.09.096.06.174.12.234.18l1.638 2.034a11.531 11.531 0 0 1-3.978 2.979c-1.524.69-3.276 1.035-5.256 1.035-1.596 0-3.018-.285-4.266-.855a9.085 9.085 0 0 1-3.168-2.367c-.864-1.008-1.521-2.202-1.971-3.582-.45-1.38-.675-2.886-.675-4.518 0-1.5.162-2.919.486-4.257a15.887 15.887 0 0 1 1.386-3.708 14.13 14.13 0 0 1 2.16-3.051c.84-.9 1.77-1.668 2.79-2.304a12.848 12.848 0 0 1 3.303-1.458A13.463 13.463 0 0 1 74.62.684c.948 0 1.812.087 2.592.261.78.174 1.488.417 2.124.729a7.886 7.886 0 0 1 1.71 1.125c.504.438.96.927 1.368 1.467l-1.62 1.944c-.12.144-.261.27-.423.378a1.064 1.064 0 0 1-.603.162c-.264 0-.516-.108-.756-.324a9.908 9.908 0 0 0-.909-.711c-.366-.258-.84-.495-1.422-.711-.582-.216-1.347-.324-2.295-.324-1.248 0-2.406.255-3.474.765a8.23 8.23 0 0 0-2.79 2.187c-.792.948-1.413 2.091-1.863 3.429-.45 1.338-.675 2.841-.675 4.509 0 1.212.153 2.298.459 3.258.306.96.729 1.773 1.269 2.439a5.502 5.502 0 0 0 1.926 1.53 5.583 5.583 0 0 0 2.43.531zm38.25-11.088c0 1.44-.159 2.811-.477 4.113a15.522 15.522 0 0 1-1.368 3.627 14.333 14.333 0 0 1-2.142 3.024 13.25 13.25 0 0 1-2.808 2.304 13.38 13.38 0 0 1-3.375 1.467 13.986 13.986 0 0 1-3.816.513c-1.656 0-3.144-.294-4.464-.882a9.91 9.91 0 0 1-3.375-2.43c-.93-1.032-1.641-2.25-2.133-3.654s-.738-2.928-.738-4.572c0-1.44.159-2.811.477-4.113a15.522 15.522 0 0 1 1.368-3.627 14.333 14.333 0 0 1 2.142-3.024c.834-.9 1.77-1.671 2.808-2.313a13.19 13.19 0 0 1 3.375-1.476 14.054 14.054 0 0 1 3.834-.513c1.656 0 3.144.294 4.464.882a9.818 9.818 0 0 1 3.366 2.43c.924 1.032 1.632 2.253 2.124 3.663.492 1.41.738 2.937.738 4.581zm-4.788.108c0-1.176-.147-2.244-.441-3.204-.294-.96-.72-1.782-1.278-2.466a5.681 5.681 0 0 0-2.043-1.584c-.804-.372-1.71-.558-2.718-.558-1.296 0-2.475.264-3.537.792a7.855 7.855 0 0 0-2.727 2.25c-.756.972-1.341 2.142-1.755 3.51-.414 1.368-.621 2.886-.621 4.554 0 1.176.144 2.244.432 3.204.288.96.708 1.779 1.26 2.457a5.572 5.572 0 0 0 2.025 1.566c.798.366 1.707.549 2.727.549 1.308 0 2.496-.264 3.564-.792a7.912 7.912 0 0 0 2.736-2.232c.756-.96 1.341-2.121 1.755-3.483.414-1.362.621-2.883.621-4.563zM119.422 27h-4.698L117.91.972h4.698L119.422 27zM132.994.972c.204 0 .375.009.513.027.138.018.261.054.369.108a.939.939 0 0 1 .288.225c.084.096.174.228.27.396l10.134 17.766c.024-.348.051-.687.081-1.017.03-.33.063-.639.099-.927L146.782.972h4.122L147.682 27h-2.394c-.36 0-.666-.057-.918-.171-.252-.114-.462-.327-.63-.639L133.66 8.424a152.454 152.454 0 0 1-.144 1.602L131.464 27h-4.122L130.546.972h2.448zm36.882 22.158h9.468l-.45 3.87h-14.148L167.95.972h4.662l-2.736 22.158zM202.96.972l-.468 3.726h-10.476l-.9 7.398h8.226l-.45 3.582h-8.226l-.936 7.596h10.512L199.774 27h-15.192L187.786.972h15.174zm14.706 22.59c.972 0 1.83-.093 2.574-.279a10.767 10.767 0 0 0 2.142-.783l.612-4.968h-2.88c-.276 0-.489-.069-.639-.207a.69.69 0 0 1-.225-.531l.306-2.772h8.1L226.36 24.48a14.065 14.065 0 0 1-4.266 2.124c-1.524.456-3.264.684-5.22.684-1.596 0-3.045-.288-4.347-.864a9.828 9.828 0 0 1-3.348-2.403c-.93-1.026-1.647-2.244-2.151-3.654-.504-1.41-.756-2.949-.756-4.617 0-1.464.162-2.853.486-4.167a15.745 15.745 0 0 1 1.377-3.645 14.122 14.122 0 0 1 2.142-3.015 13.166 13.166 0 0 1 2.808-2.286 13.4 13.4 0 0 1 3.357-1.449c1.2-.336 2.46-.504 3.78-.504 1.056 0 2.016.093 2.88.279.864.186 1.644.441 2.34.765s1.32.702 1.872 1.134c.552.432 1.044.888 1.476 1.368l-1.512 1.944c-.324.42-.708.63-1.152.63-.276 0-.54-.084-.792-.252-.396-.264-.78-.51-1.152-.738a7.551 7.551 0 0 0-2.565-.99 9.266 9.266 0 0 0-1.737-.144c-1.296 0-2.484.261-3.564.783a8.154 8.154 0 0 0-2.79 2.214c-.78.954-1.386 2.1-1.818 3.438-.432 1.338-.648 2.829-.648 4.473 0 1.248.159 2.364.477 3.348.318.984.765 1.818 1.341 2.502a5.818 5.818 0 0 0 2.079 1.575c.81.366 1.713.549 2.709.549zM253.792 27h-3.618c-.408 0-.732-.096-.972-.288-.24-.192-.39-.45-.45-.774l-1.08-5.436h-9.702l-2.412 5.436c-.132.276-.348.522-.648.738-.3.216-.636.324-1.008.324h-3.672L242.812.972h4.77L253.792 27zm-14.364-9.792h7.578l-1.764-8.91a65.833 65.833 0 0 1-.288-1.368c-.096-.48-.186-1.02-.27-1.62a38.04 38.04 0 0 1-.675 1.665c-.222.51-.429.957-.621 1.341l-3.96 8.892zm29.034 6.12c.732 0 1.371-.057 1.917-.171a6.986 6.986 0 0 0 1.422-.441 6.57 6.57 0 0 0 1.035-.567c.288-.198.54-.387.756-.567.216-.18.408-.327.576-.441a.893.893 0 0 1 .504-.171c.144 0 .264.03.36.09.096.06.174.12.234.18l1.638 2.034a11.531 11.531 0 0 1-3.978 2.979c-1.524.69-3.276 1.035-5.256 1.035-1.596 0-3.018-.285-4.266-.855a9.085 9.085 0 0 1-3.168-2.367c-.864-1.008-1.521-2.202-1.971-3.582-.45-1.38-.675-2.886-.675-4.518 0-1.5.162-2.919.486-4.257a15.887 15.887 0 0 1 1.386-3.708 14.13 14.13 0 0 1 2.16-3.051c.84-.9 1.77-1.668 2.79-2.304a12.848 12.848 0 0 1 3.303-1.458 13.463 13.463 0 0 1 3.699-.504c.948 0 1.812.087 2.592.261.78.174 1.488.417 2.124.729a7.886 7.886 0 0 1 1.71 1.125c.504.438.96.927 1.368 1.467l-1.62 1.944c-.12.144-.261.27-.423.378a1.064 1.064 0 0 1-.603.162c-.264 0-.516-.108-.756-.324a9.908 9.908 0 0 0-.909-.711c-.366-.258-.84-.495-1.422-.711-.582-.216-1.347-.324-2.295-.324-1.248 0-2.406.255-3.474.765a8.23 8.23 0 0 0-2.79 2.187c-.792.948-1.413 2.091-1.863 3.429-.45 1.338-.675 2.841-.675 4.509 0 1.212.153 2.298.459 3.258.306.96.729 1.773 1.269 2.439a5.502 5.502 0 0 0 1.926 1.53 5.583 5.583 0 0 0 2.43.531zm25.632-6.462L292.834 27h-4.68l1.26-10.152L282.646.972h4.158c.408 0 .72.099.936.297.216.198.384.453.504.765l3.366 9c.168.432.303.855.405 1.269.102.414.189.819.261 1.215.192-.396.399-.798.621-1.206.222-.408.471-.834.747-1.278l5.598-9c.168-.276.387-.522.657-.738.27-.216.603-.324.999-.324h3.87l-10.674 15.894zM316.108 27L319.312.972h8.352c1.44 0 2.673.141 3.699.423 1.026.282 1.866.681 2.52 1.197a4.714 4.714 0 0 1 1.449 1.872c.312.732.468 1.548.468 2.448a7.57 7.57 0 0 1-.297 2.133 6.048 6.048 0 0 1-.927 1.881 6.8 6.8 0 0 1-1.602 1.548c-.648.456-1.422.834-2.322 1.134 1.476.372 2.574.975 3.294 1.809.72.834 1.08 1.893 1.08 3.177 0 1.2-.222 2.313-.666 3.339a7.554 7.554 0 0 1-1.926 2.664c-.84.75-1.863 1.338-3.069 1.764-1.206.426-2.571.639-4.095.639h-9.162zm6.066-11.466l-.954 7.83h4.41c.84 0 1.56-.114 2.16-.342.6-.228 1.095-.549 1.485-.963.39-.414.678-.912.864-1.494a6.27 6.27 0 0 0 .279-1.917c0-.948-.3-1.704-.9-2.268-.6-.564-1.584-.846-2.952-.846h-4.392zm.396-3.222h3.456c1.608 0 2.847-.378 3.717-1.134.87-.756 1.305-1.914 1.305-3.474 0-1.092-.309-1.887-.927-2.385-.618-.498-1.581-.747-2.889-.747h-3.708l-.954 7.74zm22.968 10.818h9.468l-.45 3.87h-14.148L343.612.972h4.662l-2.736 22.158zm37.746-10.89c0 1.44-.159 2.811-.477 4.113a15.522 15.522 0 0 1-1.368 3.627 14.333 14.333 0 0 1-2.142 3.024 13.25 13.25 0 0 1-2.808 2.304 13.38 13.38 0 0 1-3.375 1.467 13.986 13.986 0 0 1-3.816.513c-1.656 0-3.144-.294-4.464-.882a9.91 9.91 0 0 1-3.375-2.43c-.93-1.032-1.641-2.25-2.133-3.654s-.738-2.928-.738-4.572c0-1.44.159-2.811.477-4.113a15.522 15.522 0 0 1 1.368-3.627 14.333 14.333 0 0 1 2.142-3.024c.834-.9 1.77-1.671 2.808-2.313a13.19 13.19 0 0 1 3.375-1.476 14.054 14.054 0 0 1 3.834-.513c1.656 0 3.144.294 4.464.882a9.818 9.818 0 0 1 3.366 2.43c.924 1.032 1.632 2.253 2.124 3.663.492 1.41.738 2.937.738 4.581zm-4.788.108c0-1.176-.147-2.244-.441-3.204-.294-.96-.72-1.782-1.278-2.466a5.681 5.681 0 0 0-2.043-1.584c-.804-.372-1.71-.558-2.718-.558-1.296 0-2.475.264-3.537.792a7.855 7.855 0 0 0-2.727 2.25c-.756.972-1.341 2.142-1.755 3.51-.414 1.368-.621 2.886-.621 4.554 0 1.176.144 2.244.432 3.204.288.96.708 1.779 1.26 2.457a5.572 5.572 0 0 0 2.025 1.566c.798.366 1.707.549 2.727.549 1.308 0 2.496-.264 3.564-.792a7.912 7.912 0 0 0 2.736-2.232c.756-.96 1.341-2.121 1.755-3.483.414-1.362.621-2.883.621-4.563zm20.016 10.98c.732 0 1.371-.057 1.917-.171a6.986 6.986 0 0 0 1.422-.441 6.57 6.57 0 0 0 1.035-.567c.288-.198.54-.387.756-.567.216-.18.408-.327.576-.441a.893.893 0 0 1 .504-.171c.144 0 .264.03.36.09.096.06.174.12.234.18l1.638 2.034a11.531 11.531 0 0 1-3.978 2.979c-1.524.69-3.276 1.035-5.256 1.035-1.596 0-3.018-.285-4.266-.855a9.085 9.085 0 0 1-3.168-2.367c-.864-1.008-1.521-2.202-1.971-3.582-.45-1.38-.675-2.886-.675-4.518 0-1.5.162-2.919.486-4.257a15.887 15.887 0 0 1 1.386-3.708 14.13 14.13 0 0 1 2.16-3.051c.84-.9 1.77-1.668 2.79-2.304a12.848 12.848 0 0 1 3.303-1.458 13.463 13.463 0 0 1 3.699-.504c.948 0 1.812.087 2.592.261.78.174 1.488.417 2.124.729a7.886 7.886 0 0 1 1.71 1.125c.504.438.96.927 1.368 1.467l-1.62 1.944c-.12.144-.261.27-.423.378a1.064 1.064 0 0 1-.603.162c-.264 0-.516-.108-.756-.324a9.908 9.908 0 0 0-.909-.711c-.366-.258-.84-.495-1.422-.711-.582-.216-1.347-.324-2.295-.324-1.248 0-2.406.255-3.474.765a8.23 8.23 0 0 0-2.79 2.187c-.792.948-1.413 2.091-1.863 3.429-.45 1.338-.675 2.841-.675 4.509 0 1.212.153 2.298.459 3.258.306.96.729 1.773 1.269 2.439a5.502 5.502 0 0 0 1.926 1.53 5.583 5.583 0 0 0 2.43.531zm20.106-11.358h1.008c.42 0 .777-.063 1.071-.189.294-.126.561-.333.801-.621l7.524-9.18c.312-.384.642-.648.99-.792.348-.144.756-.216 1.224-.216h4.014l-9.216 10.89c-.276.324-.543.6-.801.828a3.335 3.335 0 0 1-.819.54c.36.144.669.342.927.594.258.252.495.582.711.99L432.658 27h-4.104c-.276 0-.51-.021-.702-.063a1.773 1.773 0 0 1-.495-.18 1.15 1.15 0 0 1-.342-.288 2.235 2.235 0 0 1-.243-.387l-5.364-9.702c-.168-.312-.384-.537-.648-.675s-.654-.207-1.17-.207h-1.404L416.764 27h-4.644L415.306.954h4.68l-1.368 11.016z" fill="#629D1F" fill-rule="evenodd"/></svg>