<?xml version="1.0" encoding="UTF-8"?>
<svg width="703px" height="180px" viewBox="0 0 703 180" version="1.1" xmlns="http://www.w3.org/2000/svg" xmlns:xlink="http://www.w3.org/1999/xlink">
    <!-- Generator: Sketch 46.2 (44496) - http://www.bohemiancoding.com/sketch -->
    <title>btc-logotype</title>
    <desc>Created with Sketch.</desc>
    <defs></defs>
    <g id="Page-1" stroke="none" stroke-width="1" fill="none" fill-rule="evenodd">
        <g id="Logotype" transform="translate(-95.000000, -50.000000)" fill="#629D1F">
            <g id="btc-logotype" transform="translate(95.000000, 50.000000)">
                <path d="M179.734,38.4607863 C179.602,37.9667891 179.422,37.4927917 179.19,37.0387942 C179.148,36.9627947 179.102,36.8887951 179.06,36.8107955 C178.816,36.3767979 178.534,35.9668002 178.206,35.5908023 C178.18,35.5608024 178.162,35.5268026 178.134,35.4968028 C177.782,35.108805 177.38,34.7688068 176.948,34.4608086 C176.902,34.4268087 176.868,34.380809 176.82,34.3468092 C176.778,34.3208093 176.732,34.3088094 176.694,34.2828095 C176.304,34.028811 175.896,33.7988122 175.45,33.6208132 L92.69,0.518997117 C90.964,-0.172999039 89.038,-0.172999039 87.312,0.518997117 L4.552,33.6228132 C4.106,33.8008122 3.698,34.0308109 3.308,34.2848095 C3.268,34.3128094 3.222,34.3248093 3.182,34.3488092 C3.134,34.382809 3.1,34.4288087 3.054,34.4628085 C2.622,34.7688068 2.22,35.108805 1.868,35.4988028 C1.84,35.5268026 1.82,35.5608024 1.794,35.5908023 C1.466,35.9668002 1.184,36.3787979 0.94,36.8107955 C0.898,36.8887951 0.85,36.9627947 0.81,37.0387942 C0.578,37.4927917 0.398,37.9667891 0.266,38.4607863 C0.238,38.5607858 0.22,38.6607852 0.196,38.7607847 C0.078,39.2767818 0,39.8007789 0,40.3467759 L0,139.654224 C0,142.616208 1.802,145.278193 4.552,146.378187 L87.31,179.482003 C87.384,179.514003 87.462,179.522003 87.536,179.548003 C87.82,179.650002 88.104,179.732001 88.396,179.800001 C88.52,179.828001 88.64,179.860001 88.764,179.882001 C89.174,179.954 89.586,180 90,180 C90.414,180 90.826,179.954 91.236,179.882001 C91.36,179.860001 91.48,179.828001 91.604,179.800001 C91.896,179.732001 92.18,179.650002 92.464,179.548003 C92.538,179.520003 92.616,179.512003 92.69,179.482003 L175.448,146.378187 C178.198,145.278193 180,142.618208 180,139.654224 L180,40.3467759 C180,39.8027789 179.922,39.2767818 179.804,38.7627847 C179.782,38.6607852 179.762,38.5607858 179.734,38.4607863 Z M90.5,66 L27,40.5010078 L90.5,15 L154,40.5010078 L90.5,66 Z M165,134.696919 L97,162 L97,78.3050802 L165,51 L165,134.696919 Z" id="model" fill-rule="nonzero"></path>
                <g id="type-(text)" transform="translate(263.000000, 17.000000)">
                    <path d="M0.08,137 L0.08,53.84 L37.4,53.84 L37.4,63.08 L10.88,63.08 L10.88,88.88 L34.88,88.88 L34.88,97.88 L10.88,97.88 L10.88,127.76 L39.32,127.76 L39.32,137 L0.08,137 Z M71,84.32 L85.28,53.84 L96.08,53.84 L77.12,92.48 C78.8000084,96.080018 80.5799906,99.8199806 82.46,103.7 C84.3400094,107.580019 86.179991,111.459981 87.98,115.34 C89.780009,119.220019 91.479992,122.999982 93.08,126.68 C94.680008,130.360018 96.079994,133.799984 97.28,137 L86.6,137 C85.7199956,134.599988 84.7000058,131.980014 83.54,129.14 C82.3799942,126.299986 81.100007,123.400015 79.7,120.44 C78.299993,117.479985 76.8600074,114.460015 75.38,111.38 C73.8999926,108.299985 72.4400072,105.320014 71,102.44 C69.5599928,105.320014 68.0800076,108.299985 66.56,111.38 C65.0399924,114.460015 63.6000068,117.479985 62.24,120.44 C60.8799932,123.400015 59.6200058,126.299986 58.46,129.14 C57.2999942,131.980014 56.320004,134.599988 55.52,137 L45.08,137 C46.2000056,133.879984 47.559992,130.520018 49.16,126.92 C50.760008,123.319982 52.4399912,119.620019 54.2,115.82 C55.9600088,112.019981 57.739991,108.200019 59.54,104.36 C61.340009,100.519981 63.0799916,96.8400176 64.76,93.32 L45.56,53.84 L56.6,53.84 L71,84.32 Z M107.72,55.04 C113.320028,53.6799932 118.799973,53 124.16,53 C128.320021,53 132.099983,53.499995 135.5,54.5 C138.900017,55.500005 141.819988,57.0599894 144.26,59.18 C146.700012,61.3000106 148.579993,64.0399832 149.9,67.4 C151.220007,70.7600168 151.88,74.7999764 151.88,79.52 C151.88,84.320024 151.200007,88.419983 149.84,91.82 C148.479993,95.220017 146.560012,97.9799894 144.08,100.1 C141.599988,102.220011 138.620017,103.759995 135.14,104.72 C131.659983,105.680005 127.800021,106.16 123.56,106.16 L118.52,106.16 L118.52,137 L107.72,137 L107.72,55.04 Z M118.52,96.68 L122.84,96.68 C125.560014,96.68 128.019989,96.380003 130.22,95.78 C132.420011,95.179997 134.279992,94.2000068 135.8,92.84 C137.320008,91.4799932 138.479996,89.7200108 139.28,87.56 C140.080004,85.3999892 140.48,82.720016 140.48,79.52 C140.48,76.319984 140.080004,73.620011 139.28,71.42 C138.479996,69.219989 137.380007,67.4600066 135.98,66.14 C134.579993,64.8199934 132.88001,63.8800028 130.88,63.32 C128.87999,62.7599972 126.680012,62.48 124.28,62.48 C122.19999,62.48 120.280009,62.5999988 118.52,62.84 L118.52,96.68 Z M201.2,127.76 L201.2,137 L164.12,137 L164.12,53.84 L174.92,53.84 L174.92,127.76 L201.2,127.76 Z M263.96,95.48 C263.96,101.960032 263.380006,107.859973 262.22,113.18 C261.059994,118.500027 259.260012,123.059981 256.82,126.86 C254.379988,130.660019 251.300019,133.59999 247.58,135.68 C243.859982,137.76001 239.480025,138.8 234.44,138.8 C229.399975,138.8 225.020019,137.76001 221.3,135.68 C217.579982,133.59999 214.500012,130.660019 212.06,126.86 C209.619988,123.059981 207.800006,118.500027 206.6,113.18 C205.399994,107.859973 204.8,101.960032 204.8,95.48 C204.8,88.9999676 205.399994,83.0800268 206.6,77.72 C207.800006,72.3599732 209.619988,67.780019 212.06,63.98 C214.500012,60.179981 217.579982,57.2200106 221.3,55.1 C225.020019,52.9799894 229.399975,51.92 234.44,51.92 C239.480025,51.92 243.859982,52.9799894 247.58,55.1 C251.300019,57.2200106 254.379988,60.179981 256.82,63.98 C259.260012,67.780019 261.059994,72.3599732 262.22,77.72 C263.380006,83.0800268 263.96,88.9999676 263.96,95.48 Z M252.44,95.48 C252.44,90.4399748 252.120003,85.8400208 251.48,81.68 C250.839997,77.5199792 249.800007,73.940015 248.36,70.94 C246.919993,67.939985 245.060012,65.6000084 242.78,63.92 C240.499989,62.2399916 237.720017,61.4 234.44,61.4 C231.159984,61.4 228.380012,62.2399916 226.1,63.92 C223.819989,65.6000084 221.960007,67.939985 220.52,70.94 C219.079993,73.940015 218.020004,77.5199792 217.34,81.68 C216.659997,85.8400208 216.32,90.4399748 216.32,95.48 C216.32,100.520025 216.659997,105.119979 217.34,109.28 C218.020004,113.440021 219.079993,116.999985 220.52,119.96 C221.960007,122.920015 223.819989,125.219992 226.1,126.86 C228.380012,128.500008 231.159984,129.32 234.44,129.32 C237.720017,129.32 240.499989,128.500008 242.78,126.86 C245.060012,125.219992 246.919993,122.920015 248.36,119.96 C249.800007,116.999985 250.839997,113.440021 251.48,109.28 C252.120003,105.119979 252.44,100.520025 252.44,95.48 Z M278.96,55.04 C284.560028,53.6799932 289.959974,53 295.16,53 C299.320021,53 303.079983,53.4799952 306.44,54.44 C309.800017,55.4000048 312.679988,56.9199896 315.08,59 C317.480012,61.0800104 319.339994,63.7599836 320.66,67.04 C321.980007,70.3200164 322.64,74.2799768 322.64,78.92 C322.64,84.6800288 321.540011,89.3399822 319.34,92.9 C317.139989,96.4600178 314.160019,99.1599908 310.4,101 C311.360005,102.600008 312.579993,104.779986 314.06,107.54 C315.540008,110.300014 317.059992,113.339983 318.62,116.66 C320.180008,119.980017 321.699993,123.399982 323.18,126.92 C324.660008,130.440018 325.919995,133.799984 326.96,137 L316.16,137 C315.279996,134.599988 314.180007,131.880015 312.86,128.84 C311.539994,125.799985 310.160007,122.780015 308.72,119.78 C307.279993,116.779985 305.840007,113.900014 304.4,111.14 C302.959993,108.379986 301.680006,106.04001 300.56,104.12 C299.279994,104.280001 297.960007,104.4 296.6,104.48 C295.239993,104.56 293.880007,104.6 292.52,104.6 L289.52,104.6 L289.52,137 L278.96,137 L278.96,55.04 Z M289.52,95.72 L294.08,95.72 C299.600028,95.72 303.839985,94.4600126 306.8,91.94 C309.760015,89.4199874 311.24,85.0800308 311.24,78.92 C311.24,75.7999844 310.860004,73.1800106 310.1,71.06 C309.339996,68.9399894 308.260007,67.2600062 306.86,66.02 C305.459993,64.7799938 303.78001,63.8800028 301.82,63.32 C299.85999,62.7599972 297.680012,62.48 295.28,62.48 C293.19999,62.48 291.280009,62.5999988 289.52,62.84 L289.52,95.72 Z M338.84,137 L338.84,53.84 L376.16,53.84 L376.16,63.08 L349.64,63.08 L349.64,88.88 L373.64,88.88 L373.64,97.88 L349.64,97.88 L349.64,127.76 L378.08,127.76 L378.08,137 L338.84,137 Z M391.76,55.04 C397.360028,53.6799932 402.759974,53 407.96,53 C412.120021,53 415.879984,53.4799952 419.24,54.44 C422.600017,55.4000048 425.479988,56.9199896 427.88,59 C430.280012,61.0800104 432.139994,63.7599836 433.46,67.04 C434.780007,70.3200164 435.44,74.2799768 435.44,78.92 C435.44,84.6800288 434.340011,89.3399822 432.14,92.9 C429.939989,96.4600178 426.960019,99.1599908 423.2,101 C424.160005,102.600008 425.379993,104.779986 426.86,107.54 C428.340008,110.300014 429.859993,113.339983 431.42,116.66 C432.980008,119.980017 434.499993,123.399982 435.98,126.92 C437.460008,130.440018 438.719995,133.799984 439.76,137 L428.96,137 C428.079996,134.599988 426.980007,131.880015 425.66,128.84 C424.339994,125.799985 422.960008,122.780015 421.52,119.78 C420.079993,116.779985 418.640008,113.900014 417.2,111.14 C415.759993,108.379986 414.480006,106.04001 413.36,104.12 C412.079994,104.280001 410.760007,104.4 409.4,104.48 C408.039994,104.56 406.680007,104.6 405.32,104.6 L402.32,104.6 L402.32,137 L391.76,137 L391.76,55.04 Z M402.32,95.72 L402.32,62.84 C404.080009,62.5999988 405.99999,62.48 408.08,62.48 C410.480012,62.48 412.659991,62.7599972 414.62,63.32 C416.58001,63.8800028 418.259993,64.7799938 419.66,66.02 C421.060007,67.2600062 422.139997,68.9399894 422.9,71.06 C423.660004,73.1800106 424.04,75.7999844 424.04,78.92 C424.04,85.0800308 422.560015,89.4199874 419.6,91.94 C416.639986,94.4600126 412.400028,95.72 406.88,95.72 L402.32,95.72 Z M2.26,27 L5.464,0.972 L13.816,0.972 C15.2560072,0.972 16.4889949,1.11299859 17.515,1.395 C18.5410051,1.67700141 19.3809967,2.07599742 20.035,2.592 C20.6890033,3.10800258 21.1719984,3.73199634 21.484,4.464 C21.7960016,5.19600366 21.952,6.0119955 21.952,6.912 C21.952,7.65600372 21.853001,8.36699661 21.655,9.045 C21.456999,9.72300339 21.1480021,10.3499971 20.728,10.926 C20.3079979,11.5020029 19.7740032,12.0179977 19.126,12.474 C18.4779968,12.9300023 17.7040045,13.3079985 16.804,13.608 C18.2800074,13.9800019 19.3779964,14.5829958 20.098,15.417 C20.8180036,16.2510042 21.178,17.3099936 21.178,18.594 C21.178,19.794006 20.9560022,20.9069949 20.512,21.933 C20.0679978,22.9590051 19.4260042,23.8469962 18.586,24.597 C17.7459958,25.3470037 16.723006,25.9349979 15.517,26.361 C14.310994,26.7870021 12.9460076,27 11.422,27 L2.26,27 Z M8.326,15.534 L7.372,23.364 L11.782,23.364 C12.6220042,23.364 13.341997,23.2500011 13.942,23.022 C14.542003,22.7939989 15.036998,22.4730021 15.427,22.059 C15.8170019,21.6449979 16.1049991,21.1470029 16.291,20.565 C16.4770009,19.9829971 16.57,19.3440035 16.57,18.648 C16.57,17.6999953 16.270003,16.9440028 15.67,16.38 C15.069997,15.8159972 14.0860068,15.534 12.718,15.534 L8.326,15.534 Z M8.722,12.312 L12.178,12.312 C13.786008,12.312 15.0249956,11.9340038 15.895,11.178 C16.7650043,10.4219962 17.2,9.2640078 17.2,7.704 C17.2,6.61199454 16.8910031,5.81700249 16.273,5.319 C15.6549969,4.82099751 14.6920065,4.572 13.384,4.572 L9.676,4.572 L8.722,12.312 Z M31.78,27 L27.082,27 L30.268,0.972 L34.966,0.972 L31.78,27 Z M59.8960001,0.972 L59.4100001,4.806 L52.2820001,4.806 L49.5460001,27 L44.9020001,27 L47.6200001,4.806 L40.4740001,4.806 L40.9420001,0.972 L59.8960001,0.972 Z M71.6680001,23.328 C72.4000038,23.328 73.0389974,23.2710006 73.5850001,23.157 C74.1310029,23.0429994 74.6049981,22.8960009 75.0070001,22.716 C75.4090022,22.5359991 75.7539987,22.347001 76.0420001,22.149 C76.3300016,21.950999 76.5819991,21.7620009 76.7980001,21.582 C77.0140012,21.4019991 77.2059993,21.2550006 77.3740001,21.141 C77.542001,21.0269994 77.7099993,20.97 77.8780001,20.97 C78.0220009,20.97 78.1419997,20.9999997 78.2380001,21.06 C78.3340006,21.1200003 78.4119998,21.1799997 78.4720001,21.24 L80.1100001,23.274 C78.9819945,24.5700065 77.6560078,25.5629965 76.1320001,26.253 C74.6079925,26.9430034 72.85601,27.288 70.8760001,27.288 C69.2799922,27.288 67.8580064,27.0030028 66.6100001,26.433 C65.3619939,25.8629971 64.3060045,25.074005 63.4420001,24.066 C62.5779958,23.057995 61.9210024,21.8640069 61.4710001,20.484 C61.0209979,19.1039931 60.7960001,17.5980082 60.7960001,15.966 C60.7960001,14.4659925 60.9579985,13.0470067 61.2820001,11.709 C61.6060018,10.3709933 62.0679971,9.13500567 62.6680001,8.001 C63.2680031,6.86699433 63.9879959,5.8500045 64.8280001,4.95 C65.6680043,4.0499955 66.597995,3.28200318 67.6180001,2.646 C68.6380052,2.00999682 69.7389942,1.52400168 70.9210001,1.188 C72.1030061,0.85199832 73.3359937,0.684 74.6200001,0.684 C75.5680049,0.684 76.4319962,0.77099913 77.2120001,0.945 C77.992004,1.11900087 78.699997,1.36199844 79.3360001,1.674 C79.9720033,1.98600156 80.5419976,2.36099781 81.0460001,2.799 C81.5500027,3.23700219 82.0059981,3.7259973 82.4140001,4.266 L80.7940001,6.21 C80.6739995,6.35400072 80.533001,6.47999946 80.3710001,6.588 C80.2089993,6.69600054 80.0080013,6.75 79.7680001,6.75 C79.5039988,6.75 79.2520013,6.64200108 79.0120001,6.426 C78.7719989,6.20999892 78.469002,5.97300129 78.1030001,5.715 C77.7369983,5.45699871 77.2630031,5.22000108 76.6810001,5.004 C76.0989972,4.78799892 75.3340049,4.68 74.3860001,4.68 C73.1379939,4.68 71.9800055,4.93499745 70.9120001,5.445 C69.8439948,5.95500255 68.9140041,6.68399526 68.1220001,7.632 C67.3299962,8.58000474 66.7090024,9.72299331 66.2590001,11.061 C65.8089979,12.3990067 65.5840001,13.9019917 65.5840001,15.57 C65.5840001,16.7820061 65.7369986,17.8679952 66.0430001,18.828 C66.3490017,19.7880048 66.7719974,20.6009967 67.3120001,21.267 C67.8520028,21.9330033 68.4939964,22.4429982 69.2380001,22.797 C69.9820039,23.1510018 70.7919958,23.328 71.6680001,23.328 Z M109.918,12.24 C109.918,13.6800072 109.759002,15.0509935 109.441,16.353 C109.122999,17.6550065 108.667003,18.8639944 108.073,19.98 C107.478997,21.0960056 106.765004,22.1039955 105.931,23.004 C105.096996,23.9040045 104.161005,24.6719968 103.123,25.308 C102.084995,25.9440032 100.960006,26.4329983 99.7480002,26.775 C98.5359941,27.1170017 97.2640069,27.288 95.9320002,27.288 C94.2759919,27.288 92.7880068,26.9940029 91.4680002,26.406 C90.1479936,25.8179971 89.0230048,25.0080052 88.0930002,23.976 C87.1629955,22.9439948 86.4520027,21.726007 85.9600002,20.322 C85.4679977,18.917993 85.2220002,17.3940082 85.2220002,15.75 C85.2220002,14.3099928 85.3809986,12.9390065 85.6990002,11.637 C86.0170018,10.3349935 86.4729972,9.12600558 87.0670002,8.01 C87.6610032,6.89399442 88.374996,5.8860045 89.2090002,4.986 C90.0430044,4.0859955 90.978995,3.31500321 92.0170002,2.673 C93.0550054,2.03099679 94.1799941,1.53900171 95.3920002,1.197 C96.6040063,0.85499829 97.8819935,0.684 99.2260002,0.684 C100.882008,0.684 102.369994,0.97799706 103.69,1.566 C105.010007,2.15400294 106.131996,2.96399484 107.056,3.996 C107.980005,5.02800516 108.687998,6.24899295 109.18,7.659 C109.672003,9.06900705 109.918,10.5959918 109.918,12.24 Z M105.13,12.348 C105.13,11.1719941 104.983002,10.1040048 104.689,9.144 C104.394999,8.1839952 103.969003,7.36200342 103.411,6.678 C102.852997,5.99399658 102.172004,5.46600186 101.368,5.094 C100.563996,4.72199814 99.6580052,4.536 98.6500002,4.536 C97.3539937,4.536 96.1750055,4.79999736 95.1130002,5.328 C94.0509949,5.85600264 93.142004,6.60599514 92.3860002,7.578 C91.6299964,8.55000486 91.0450023,9.71999316 90.6310002,11.088 C90.2169981,12.4560068 90.0100002,13.9739917 90.0100002,15.642 C90.0100002,16.8180059 90.1539988,17.8859952 90.4420002,18.846 C90.7300016,19.8060048 91.1499974,20.6249966 91.7020002,21.303 C92.254003,21.9810034 92.9289962,22.5029982 93.7270002,22.869 C94.5250042,23.2350018 95.4339951,23.418 96.4540002,23.418 C97.7620067,23.418 98.9499949,23.1540026 100.018,22.626 C101.086006,22.0979974 101.997996,21.3540048 102.754,20.394 C103.510004,19.4339952 104.094998,18.2730068 104.509,16.911 C104.923002,15.5489932 105.13,14.0280084 105.13,12.348 Z M119.422,27 L114.724,27 L117.91,0.972 L122.608,0.972 L119.422,27 Z M132.994,0.972 C133.198001,0.972 133.369,0.98099991 133.507,0.999 C133.645001,1.01700009 133.768,1.05299973 133.876,1.107 C133.984001,1.16100027 134.08,1.23599952 134.164,1.332 C134.248001,1.42800048 134.338,1.55999916 134.434,1.728 L144.568,19.494 C144.592,19.1459983 144.619,18.8070016 144.649,18.477 C144.679,18.1469983 144.712,17.8380014 144.748,17.55 L146.782,0.972 L150.904,0.972 L147.682,27 L145.288,27 C144.927998,27 144.622002,26.9430006 144.37,26.829 C144.117999,26.7149994 143.908001,26.5020016 143.74,26.19 L133.66,8.424 C133.636,8.71200144 133.612,8.99099865 133.588,9.261 C133.564,9.53100135 133.54,9.7859988 133.516,10.026 L131.464,27 L127.342,27 L130.546,0.972 L132.994,0.972 Z M169.876,23.13 L179.344,23.13 L178.894,27 L164.746,27 L167.95,0.972 L172.612,0.972 L169.876,23.13 Z M202.96,0.972 L202.492,4.698 L192.016,4.698 L191.116,12.096 L199.342,12.096 L198.892,15.678 L190.666,15.678 L189.73,23.274 L200.242,23.274 L199.774,27 L184.582,27 L187.786,0.972 L202.96,0.972 Z M217.666,23.562 C218.638005,23.562 219.495997,23.4690009 220.24,23.283 C220.984004,23.0969991 221.697997,22.8360017 222.382,22.5 L222.994,17.532 L220.114,17.532 C219.837999,17.532 219.625001,17.4630007 219.475,17.325 C219.325,17.1869993 219.25,17.0100011 219.25,16.794 L219.556,14.022 L227.656,14.022 L226.36,24.48 C225.039994,25.4400048 223.618008,26.1479977 222.094,26.604 C220.569993,27.0600023 218.83001,27.288 216.874,27.288 C215.277992,27.288 213.829007,27.0000029 212.527,26.424 C211.224994,25.8479971 210.109005,25.0470051 209.179,24.021 C208.248996,22.9949949 207.532003,21.777007 207.028,20.367 C206.523998,18.9569929 206.272,17.4180083 206.272,15.75 C206.272,14.2859927 206.433999,12.8970066 206.758,11.583 C207.082002,10.2689934 207.540998,9.05400558 208.135,7.938 C208.729003,6.82199442 209.442996,5.81700447 210.277,4.923 C211.111005,4.02899553 212.046995,3.26700315 213.085,2.637 C214.123006,2.00699685 215.241994,1.52400168 216.442,1.188 C217.642006,0.85199832 218.901994,0.684 220.222,0.684 C221.278006,0.684 222.237996,0.77699907 223.102,0.963 C223.966005,1.14900093 224.745997,1.40399838 225.442,1.728 C226.138004,2.05200162 226.761998,2.42999784 227.314,2.862 C227.866003,3.29400216 228.357998,3.7499976 228.79,4.23 L227.278,6.174 C226.953999,6.5940021 226.570003,6.804 226.126,6.804 C225.849999,6.804 225.586002,6.72000084 225.334,6.552 C224.937998,6.28799868 224.554002,6.04200114 224.182,5.814 C223.809999,5.58599886 223.414003,5.38800084 222.994,5.22 C222.573998,5.05199916 222.115003,4.92000048 221.617,4.824 C221.118998,4.72799952 220.540004,4.68 219.88,4.68 C218.583994,4.68 217.396006,4.94099739 216.316,5.463 C215.235995,5.98500261 214.306004,6.72299523 213.526,7.677 C212.745997,8.63100477 212.140003,9.77699331 211.708,11.115 C211.275998,12.4530067 211.06,13.9439918 211.06,15.588 C211.06,16.8360062 211.218999,17.9519951 211.537,18.936 C211.855002,19.9200049 212.301998,20.7539966 212.878,21.438 C213.454003,22.1220034 214.146996,22.6469982 214.957,23.013 C215.767005,23.3790018 216.669995,23.562 217.666,23.562 Z M253.792001,27 L250.174001,27 C249.765998,27 249.442002,26.904001 249.202001,26.712 C248.961999,26.519999 248.812001,26.2620016 248.752001,25.938 L247.672001,20.502 L237.970001,20.502 L235.558001,25.938 C235.426,26.2140014 235.210002,26.4599989 234.910001,26.676 C234.609999,26.8920011 234.274002,27 233.902001,27 L230.230001,27 L242.812001,0.972 L247.582001,0.972 L253.792001,27 Z M239.428001,17.208 L247.006001,17.208 L245.242001,8.298 C245.146,7.86599784 245.050001,7.4100024 244.954001,6.93 C244.858,6.4499976 244.768001,5.910003 244.684001,5.31 C244.455999,5.910003 244.231002,6.46499745 244.009001,6.975 C243.786999,7.48500255 243.580001,7.93199808 243.388001,8.316 L239.428001,17.208 Z M268.462001,23.328 C269.194004,23.328 269.832998,23.2710006 270.379001,23.157 C270.925003,23.0429994 271.398999,22.8960009 271.801001,22.716 C272.203003,22.5359991 272.547999,22.347001 272.836001,22.149 C273.124002,21.950999 273.375999,21.7620009 273.592001,21.582 C273.808002,21.4019991 274,21.2550006 274.168001,21.141 C274.336001,21.0269994 274.504,20.97 274.672001,20.97 C274.816001,20.97 274.936,20.9999997 275.032001,21.06 C275.128001,21.1200003 275.206,21.1799997 275.266001,21.24 L276.904001,23.274 C275.775995,24.5700065 274.450008,25.5629965 272.926001,26.253 C271.401993,26.9430034 269.65001,27.288 267.670001,27.288 C266.073993,27.288 264.652007,27.0030028 263.404001,26.433 C262.155994,25.8629971 261.100005,25.074005 260.236001,24.066 C259.371996,23.057995 258.715003,21.8640069 258.265001,20.484 C257.814998,19.1039931 257.590001,17.5980082 257.590001,15.966 C257.590001,14.4659925 257.751999,13.0470067 258.076001,11.709 C258.400002,10.3709933 258.861998,9.13500567 259.462001,8.001 C260.062004,6.86699433 260.781996,5.8500045 261.622001,4.95 C262.462005,4.0499955 263.391995,3.28200318 264.412001,2.646 C265.432006,2.00999682 266.532995,1.52400168 267.715001,1.188 C268.897006,0.85199832 270.129994,0.684 271.414001,0.684 C272.362005,0.684 273.225997,0.77099913 274.006001,0.945 C274.786004,1.11900087 275.493997,1.36199844 276.130001,1.674 C276.766004,1.98600156 277.335998,2.36099781 277.840001,2.799 C278.344003,3.23700219 278.799999,3.7259973 279.208001,4.266 L277.588001,6.21 C277.468,6.35400072 277.327001,6.47999946 277.165001,6.588 C277.003,6.69600054 276.802002,6.75 276.562001,6.75 C276.297999,6.75 276.046002,6.64200108 275.806001,6.426 C275.565999,6.20999892 275.263002,5.97300129 274.897001,5.715 C274.530999,5.45699871 274.057003,5.22000108 273.475001,5.004 C272.892998,4.78799892 272.128005,4.68 271.180001,4.68 C269.931994,4.68 268.774006,4.93499745 267.706001,5.445 C266.637995,5.95500255 265.708005,6.68399526 264.916001,7.632 C264.123997,8.58000474 263.503003,9.72299331 263.053001,11.061 C262.602998,12.3990067 262.378001,13.9019917 262.378001,15.57 C262.378001,16.7820061 262.530999,17.8679952 262.837001,18.828 C263.143002,19.7880048 263.565998,20.6009967 264.106001,21.267 C264.646003,21.9330033 265.287997,22.4429982 266.032001,22.797 C266.776004,23.1510018 267.585996,23.328 268.462001,23.328 Z M294.094001,16.866 L292.834001,27 L288.154001,27 L289.414001,16.848 L282.646001,0.972 L286.804001,0.972 C287.212003,0.972 287.524,1.07099901 287.740001,1.269 C287.956002,1.46700099 288.124,1.72199844 288.244001,2.034 L291.610001,11.034 C291.778001,11.4660022 291.913,11.8889979 292.015001,12.303 C292.117001,12.7170021 292.204,13.121998 292.276001,13.518 C292.468002,13.121998 292.675,12.720002 292.897001,12.312 C293.119002,11.903998 293.367999,11.4780022 293.644001,11.034 L299.242001,2.034 C299.410001,1.75799862 299.628999,1.51200108 299.899001,1.296 C300.169002,1.07999892 300.501999,0.972 300.898001,0.972 L304.768001,0.972 L294.094001,16.866 Z M316.108001,27 L319.312001,0.972 L327.664001,0.972 C329.104008,0.972 330.336996,1.11299859 331.363001,1.395 C332.389006,1.67700141 333.228997,2.07599742 333.883001,2.592 C334.537004,3.10800258 335.019999,3.73199634 335.332001,4.464 C335.644002,5.19600366 335.800001,6.0119955 335.800001,6.912 C335.800001,7.65600372 335.701002,8.36699661 335.503001,9.045 C335.305,9.72300339 334.996003,10.3499971 334.576001,10.926 C334.155999,11.5020029 333.622004,12.0179977 332.974001,12.474 C332.325997,12.9300023 331.552005,13.3079985 330.652001,13.608 C332.128008,13.9800019 333.225997,14.5829958 333.946001,15.417 C334.666004,16.2510042 335.026001,17.3099936 335.026001,18.594 C335.026001,19.794006 334.804003,20.9069949 334.360001,21.933 C333.915998,22.9590051 333.274005,23.8469962 332.434001,24.597 C331.593997,25.3470037 330.571007,25.9349979 329.365001,26.361 C328.158995,26.7870021 326.794008,27 325.270001,27 L316.108001,27 Z M322.174001,15.534 L321.220001,23.364 L325.630001,23.364 C326.470005,23.364 327.189998,23.2500011 327.790001,23.022 C328.390004,22.7939989 328.884999,22.4730021 329.275001,22.059 C329.665003,21.6449979 329.953,21.1470029 330.139001,20.565 C330.325002,19.9829971 330.418001,19.3440035 330.418001,18.648 C330.418001,17.6999953 330.118004,16.9440028 329.518001,16.38 C328.917998,15.8159972 327.934008,15.534 326.566001,15.534 L322.174001,15.534 Z M322.570001,12.312 L326.026001,12.312 C327.634009,12.312 328.872996,11.9340038 329.743001,11.178 C330.613005,10.4219962 331.048001,9.2640078 331.048001,7.704 C331.048001,6.61199454 330.739004,5.81700249 330.121001,5.319 C329.502998,4.82099751 328.540007,4.572 327.232001,4.572 L323.524001,4.572 L322.570001,12.312 Z M345.538001,23.13 L355.006001,23.13 L354.556001,27 L340.408001,27 L343.612001,0.972 L348.274001,0.972 L345.538001,23.13 Z M383.284001,12.24 C383.284001,13.6800072 383.125002,15.0509935 382.807001,16.353 C382.488999,17.6550065 382.033004,18.8639944 381.439001,19.98 C380.844998,21.0960056 380.131005,22.1039955 379.297001,23.004 C378.462997,23.9040045 377.527006,24.6719968 376.489001,25.308 C375.450996,25.9440032 374.326007,26.4329983 373.114001,26.775 C371.901995,27.1170017 370.630007,27.288 369.298001,27.288 C367.641993,27.288 366.154007,26.9940029 364.834001,26.406 C363.513994,25.8179971 362.389005,25.0080052 361.459001,23.976 C360.528996,22.9439948 359.818003,21.726007 359.326001,20.322 C358.833998,18.917993 358.588001,17.3940082 358.588001,15.75 C358.588001,14.3099928 358.746999,12.9390065 359.065001,11.637 C359.383002,10.3349935 359.838998,9.12600558 360.433001,8.01 C361.027004,6.89399442 361.740997,5.8860045 362.575001,4.986 C363.409005,4.0859955 364.344996,3.31500321 365.383001,2.673 C366.421006,2.03099679 367.545995,1.53900171 368.758001,1.197 C369.970007,0.85499829 371.247994,0.684 372.592001,0.684 C374.248009,0.684 375.735994,0.97799706 377.056001,1.566 C378.376007,2.15400294 379.497996,2.96399484 380.422001,3.996 C381.346005,5.02800516 382.053998,6.24899295 382.546001,7.659 C383.038003,9.06900705 383.284001,10.5959918 383.284001,12.24 Z M378.496001,12.348 C378.496001,11.1719941 378.349002,10.1040048 378.055001,9.144 C377.760999,8.1839952 377.335004,7.36200342 376.777001,6.678 C376.218998,5.99399658 375.538005,5.46600186 374.734001,5.094 C373.929997,4.72199814 373.024006,4.536 372.016001,4.536 C370.719994,4.536 369.541006,4.79999736 368.479001,5.328 C367.416996,5.85600264 366.508005,6.60599514 365.752001,7.578 C364.995997,8.55000486 364.411003,9.71999316 363.997001,11.088 C363.582999,12.4560068 363.376001,13.9739917 363.376001,15.642 C363.376001,16.8180059 363.519999,17.8859952 363.808001,18.846 C364.096002,19.8060048 364.515998,20.6249966 365.068001,21.303 C365.620004,21.9810034 366.294997,22.5029982 367.093001,22.869 C367.891005,23.2350018 368.799996,23.418 369.820001,23.418 C371.128007,23.418 372.315995,23.1540026 373.384001,22.626 C374.452006,22.0979974 375.363997,21.3540048 376.120001,20.394 C376.876005,19.4339952 377.460999,18.2730068 377.875001,16.911 C378.289003,15.5489932 378.496001,14.0280084 378.496001,12.348 Z M398.512001,23.328 C399.244005,23.328 399.882998,23.2710006 400.429001,23.157 C400.975004,23.0429994 401.448999,22.8960009 401.851001,22.716 C402.253003,22.5359991 402.597999,22.347001 402.886001,22.149 C403.174002,21.950999 403.426,21.7620009 403.642001,21.582 C403.858002,21.4019991 404.05,21.2550006 404.218001,21.141 C404.386002,21.0269994 404.554,20.97 404.722001,20.97 C404.866002,20.97 404.986,20.9999997 405.082001,21.06 C405.178001,21.1200003 405.256001,21.1799997 405.316001,21.24 L406.954001,23.274 C405.825995,24.5700065 404.500008,25.5629965 402.976001,26.253 C401.451993,26.9430034 399.700011,27.288 397.720001,27.288 C396.123993,27.288 394.702007,27.0030028 393.454001,26.433 C392.205995,25.8629971 391.150005,25.074005 390.286001,24.066 C389.421997,23.057995 388.765003,21.8640069 388.315001,20.484 C387.864999,19.1039931 387.640001,17.5980082 387.640001,15.966 C387.640001,14.4659925 387.801999,13.0470067 388.126001,11.709 C388.450002,10.3709933 388.911998,9.13500567 389.512001,8.001 C390.112004,6.86699433 390.831997,5.8500045 391.672001,4.95 C392.512005,4.0499955 393.441996,3.28200318 394.462001,2.646 C395.482006,2.00999682 396.582995,1.52400168 397.765001,1.188 C398.947007,0.85199832 400.179994,0.684 401.464001,0.684 C402.412006,0.684 403.275997,0.77099913 404.056001,0.945 C404.836005,1.11900087 405.543998,1.36199844 406.180001,1.674 C406.816004,1.98600156 407.385998,2.36099781 407.890001,2.799 C408.394003,3.23700219 408.849999,3.7259973 409.258001,4.266 L407.638001,6.21 C407.518,6.35400072 407.377002,6.47999946 407.215001,6.588 C407.053,6.69600054 406.852002,6.75 406.612001,6.75 C406.348,6.75 406.096002,6.64200108 405.856001,6.426 C405.616,6.20999892 405.313003,5.97300129 404.947001,5.715 C404.580999,5.45699871 404.107004,5.22000108 403.525001,5.004 C402.942998,4.78799892 402.178006,4.68 401.230001,4.68 C399.981995,4.68 398.824006,4.93499745 397.756001,5.445 C396.687996,5.95500255 395.758005,6.68399526 394.966001,7.632 C394.173997,8.58000474 393.553003,9.72299331 393.103001,11.061 C392.652999,12.3990067 392.428001,13.9019917 392.428001,15.57 C392.428001,16.7820061 392.580999,17.8679952 392.887001,18.828 C393.193002,19.7880048 393.615998,20.6009967 394.156001,21.267 C394.696004,21.9330033 395.337997,22.4429982 396.082001,22.797 C396.826005,23.1510018 397.635996,23.328 398.512001,23.328 Z M418.618001,11.97 L419.626001,11.97 C420.046003,11.97 420.402999,11.9070006 420.697001,11.781 C420.991002,11.6549994 421.258,11.4480014 421.498001,11.16 L429.022001,1.98 C429.334002,1.59599808 429.663999,1.33200072 430.012001,1.188 C430.360003,1.04399928 430.767999,0.972 431.236001,0.972 L435.250001,0.972 L426.034001,11.862 C425.758,12.1860016 425.491002,12.4619989 425.233001,12.69 C424.975,12.9180011 424.702002,13.0979993 424.414001,13.23 C424.774003,13.3740007 425.083,13.5719987 425.341001,13.824 C425.599002,14.0760013 425.836,14.405998 426.052001,14.814 L432.658001,27 L428.554001,27 C428.278,27 428.044002,26.9790002 427.852001,26.937 C427.66,26.8949998 427.495002,26.8350004 427.357001,26.757 C427.219,26.6789996 427.105001,26.5830006 427.015001,26.469 C426.925,26.3549994 426.844001,26.2260007 426.772001,26.082 L421.408001,16.38 C421.24,16.0679984 421.024002,15.8430007 420.760001,15.705 C420.496,15.5669993 420.106003,15.498 419.590001,15.498 L418.186001,15.498 L416.764001,27 L412.120001,27 L415.306001,0.954 L419.986001,0.954 L418.618001,11.97 Z" id="Combined-Shape"></path>
                </g>
            </g>
        </g>
    </g>
</svg>