<svg width="44" height="44" xmlns="http://www.w3.org/2000/svg"><g fill="none" fill-rule="evenodd"><path d="M2.368 9.751l19.996 8.105 19.3-8.073-19.777-7.922-19.52 7.89z" stroke="#629D1F" stroke-width="3.402"/><path d="M21.74 17.888a.243.243 0 0 0-.152.226v23.7a.243.243 0 0 0 .334.226l20.016-8.112a.243.243 0 0 0 .152-.226V10.053a.243.243 0 0 0-.334-.225l-20.016 8.06z" stroke="#629D1F" stroke-width="3.402"/><path d="M2.833 8.287l19.606 7.887a1.944 1.944 0 0 1 1.218 1.804v23.95a1.944 1.944 0 0 1-2.682 1.799L1.37 35.68a1.944 1.944 0 0 1-1.206-1.799V10.09a1.944 1.944 0 0 1 2.67-1.803z" fill="#629D1F"/></g></svg>