<svg width="22" height="22" xmlns="http://www.w3.org/2000/svg"><g fill-rule="nonzero" fill="#FFF"><path d="M13.564 10.745c.717-.514 1.174-1.287 1.174-2.15 0-1.326-1.079-2.437-2.52-2.725v-.89a.557.557 0 1 0-1.115 0v.816h-1.26v-.817a.557.557 0 1 0-1.114 0v.817h-1.35a.557.557 0 1 0 0 1.114h.847v8.18H7.38a.557.557 0 1 0 0 1.114h1.35v.817a.557.557 0 1 0 1.114 0v-.817h1.26v.817a.557.557 0 1 0 1.114 0v-.853c1.673-.213 2.962-1.442 2.962-2.926 0-1.05-.646-1.97-1.615-2.497zm.06-2.15c0 .93-.96 1.685-2.142 1.685H9.341V6.91h2.141c1.181 0 2.142.756 2.142 1.685zm-1.921 6.495H9.34v-3.696h2.361c1.303 0 2.362.83 2.362 1.848 0 1.02-1.06 1.848-2.361 1.848z"/><path d="M11 .708C5.325.708.708 5.325.708 11S5.325 21.292 11 21.292 21.292 16.675 21.292 11 16.675.708 11 .708zm0 19.47c-5.06 0-9.178-4.117-9.178-9.178 0-5.06 4.117-9.178 9.178-9.178 5.06 0 9.178 4.117 9.178 9.178 0 5.06-4.117 9.178-9.178 9.178z"/></g></svg>