<svg width="21" height="21" xmlns="http://www.w3.org/2000/svg"><g fill-rule="nonzero" fill="none"><path d="M20.686 13.04c-1.403 5.625-7.1 9.048-12.727 7.646-5.624-1.403-9.048-7.1-7.644-12.725 1.401-5.626 7.1-9.05 12.724-7.647 5.626 1.403 9.05 7.1 7.647 12.726z" fill="#C5BDA8"/><path d="M14.974 9.226c.208-1.366-.851-2.1-2.3-2.59l.47-1.85-1.146-.281-.458 1.802a48.713 48.713 0 0 0-.918-.213l.46-1.813L9.936 4l-.47 1.85c-.25-.056-.495-.111-.732-.17v-.005l-1.58-.388-.306 1.203s.851.192.833.203c.465.114.549.416.535.656L7.68 9.457c.032.008.074.02.12.037l-.121-.03-.75 2.954c-.057.138-.201.346-.526.267.011.017-.834-.204-.834-.204L5 13.77l1.492.365c.278.068.55.14.818.207l-.475 1.871 1.146.281.47-1.852c.313.084.617.16.914.233l-.468 1.843 1.146.281.475-1.868c1.956.363 3.426.217 4.045-1.52.5-1.4-.025-2.206-1.053-2.732.749-.17 1.313-.654 1.464-1.654zm-2.62 3.609c-.355 1.399-2.753.643-3.53.453l.63-2.48c.777.191 3.27.568 2.9 2.027zm.354-3.629c-.323 1.272-2.319.626-2.966.467l.57-2.248c.648.158 2.733.454 2.396 1.781z" fill="#FFF"/></g></svg>