<?xml version="1.0" encoding="UTF-8"?>
<svg width="36px" height="16px" viewBox="0 0 36 16" version="1.1" xmlns="http://www.w3.org/2000/svg" xmlns:xlink="http://www.w3.org/1999/xlink">
    <!-- Generator: Sketch 46.2 (44496) - http://www.bohemiancoding.com/sketch -->
    <title>transaction</title>
    <desc>Created with Sketch.</desc>
    <defs></defs>
    <g id="Page-1" stroke="none" stroke-width="1" fill="none" fill-rule="evenodd" fill-opacity="0.752943841">
        <g id="Address" transform="translate(-121.000000, -391.000000)" fill="#646762">
            <path d="M153.853553,402.267767 L132.767767,402.267767 C132.215482,402.267767 131.767767,401.820052 131.767767,401.267767 C131.767767,400.715482 132.215482,400.267767 132.767767,400.267767 L153.853553,400.267767 L151.292893,397.707107 C150.902369,397.316582 150.902369,396.683418 151.292893,396.292893 L151.292893,396.292893 C151.683418,395.902369 152.316582,395.902369 152.707107,396.292893 L156.242641,399.828427 C156.408166,399.993953 156.503533,400.20307 156.528741,400.418825 C156.811721,400.595444 157,400.909618 157,401.267767 C157,401.625916 156.811721,401.94009 156.528741,402.116709 C156.503533,402.332464 156.408166,402.541581 156.242641,402.707107 L152.707107,406.242641 C152.316582,406.633165 151.683418,406.633165 151.292893,406.242641 C150.902369,405.852116 150.902369,405.218951 151.292893,404.828427 L153.853553,402.267767 Z M123.678007,397.263793 L126.242641,399.828427 C126.633165,400.218951 126.633165,400.852116 126.242641,401.242641 C125.852116,401.633165 125.218951,401.633165 124.828427,401.242641 L124.828427,401.242641 L121.292893,397.707107 C120.902369,397.316582 120.902369,396.683418 121.292893,396.292893 L121.292893,396.292893 C121.301456,396.28433 121.310136,396.275955 121.318928,396.267767 C121.310136,396.259579 121.301456,396.251204 121.292893,396.242641 L121.292893,396.242641 L121.292893,396.242641 C120.902369,395.852116 120.902369,395.218951 121.292893,394.828427 L121.292893,394.828427 L124.828427,391.292893 C125.218951,390.902369 125.852116,390.902369 126.242641,391.292893 L126.242641,391.292893 C126.633165,391.683418 126.633165,392.316582 126.242641,392.707107 L123.678007,395.271741 C123.707575,395.26911 123.737514,395.267767 123.767767,395.267767 L144.767767,395.267767 C145.320052,395.267767 145.767767,395.715482 145.767767,396.267767 C145.767767,396.820052 145.320052,397.267767 144.767767,397.267767 L123.767767,397.267767 C123.737514,397.267767 123.707575,397.266424 123.678007,397.263793 Z M122.771741,396.357527 C122.76911,396.327958 122.767767,396.29802 122.767767,396.267767 C122.767767,396.237514 122.76911,396.207575 122.771741,396.178007 L122.707107,396.242641 C122.698544,396.251204 122.689864,396.259579 122.681072,396.267767 C122.689864,396.275955 122.698544,396.28433 122.707107,396.292893 L122.771741,396.357527 Z" id="transaction"></path>
        </g>
    </g>
</svg>