<svg width="36" height="16" xmlns="http://www.w3.org/2000/svg"><path d="M32.854 11.268H11.768a1 1 0 1 1 0-2h21.086l-2.561-2.56a1 1 0 0 1 1.414-1.414l3.536 3.534c.165.166.26.375.286.59a1 1 0 0 1 0 1.699.996.996 0 0 1-.286.59l-3.536 3.536a1 1 0 0 1-1.414-1.415l2.56-2.56zM2.678 6.264l2.565 2.564a1 1 0 0 1-1.415 1.415L.293 6.707a1 1 0 0 1 0-1.414l.026-.025a1 1 0 0 1-.026-1.44L3.828.293a1 1 0 0 1 1.414 1.414L2.679 4.272c.03-.003.06-.004.09-.004h21a1 1 0 1 1 0 2h-21c-.03 0-.06-.002-.09-.004zm-.906-.906a1.013 1.013 0 0 1 0-.18l-.065.065a1.018 1.018 0 0 1-.026.025l.026.025.065.065z" fill="#646762" fill-rule="evenodd" fill-opacity=".753"/></svg>